<svg width="390" height="102" viewBox="0 0 390 102" fill="none" xmlns="http://www.w3.org/2000/svg">
<path fill-rule="evenodd" clip-rule="evenodd" d="M262.789 189.336C260.804 182.055 245.749 177.303 239.124 174.549C226.024 169.101 212.66 164.409 199.368 159.565C186.076 154.722 172.759 149.908 159.781 144.158C151.355 140.426 141.527 136.313 134.689 129.592C120.122 115.268 152.361 109.336 160.437 106.773C180.981 100.25 204.953 94.2917 222.076 80.212C232.297 71.8068 234.562 61.6967 228.6 49.4439C226.668 45.4571 222.987 41.26 223.911 36.6244C224.896 31.6737 229.183 27.8206 232.849 25.0248C246.221 14.8344 263.303 9.49168 278.992 4.45857C295.905 -0.9846 313.273 -5.37191 330.276 -9.99829C337.485 -11.9597 344.289 -16.7151 350.566 -20.7801C358.794 -26.1087 366.82 -31.7678 374.907 -37.3272C392.702 -49.5412 410.996 -62.2853 431.32 -69.6221C444.047 -74.2173 458.682 -76.5369 471.376 -69.633C477.749 -66.1665 482.331 -59.7023 486.976 -54.114C492.594 -47.3649 498.092 -40.5036 503.908 -33.9372C522.642 -12.7895 546.441 6.40393 575.015 0.032468C579.338 -0.932088 583.378 -2.64566 587.602 -3.89605C590.293 -4.68997 592.889 -4.64511 594.697 -1.924C599.239 4.89945 594.455 18.8745 592.786 25.7009C589.133 40.6441 584.411 55.2472 580.285 70.0369C577.554 79.8183 572.003 93.6729 574.661 103.956C577.03 113.119 590.321 116.638 597.8 119.46C604.807 122.101 617.036 125.146 619.979 133.549C621.405 137.623 619.73 141.765 617.734 145.167C614.231 151.118 609.637 155.885 606.788 162.367C602.118 173 599.484 186.616 603.598 198.156C606.448 206.153 612.302 210.321 619.295 213.932C622.234 215.45 624.559 216.458 625.62 219.917C627.307 225.41 626.821 231.83 626.503 237.427C625.367 257.456 621.519 277.559 616.385 296.743C613.82 306.329 610.864 315.994 606.411 324.778C603.498 330.544 599.372 337.583 593.025 339.276C585.68 341.245 577.157 340.53 569.456 340.351C555.073 340.015 540.687 339.026 526.322 337.906C493.101 335.311 459.932 331.77 426.816 327.285C403.486 324.111 379.707 321.043 356.855 314.635C352.394 313.369 348.047 311.665 343.872 309.544C339.427 307.334 334.585 307.109 329.777 307.263C299.939 308.215 270.53 321.502 243.183 332.22C236.241 334.939 229.3 337.662 222.274 340.147C216.234 342.282 209.219 345.645 202.665 345.173C189.754 344.247 196.041 326.397 198.761 319.081C208.338 293.323 223.268 269.701 236.646 246.085C243.002 234.842 249.432 223.605 255.178 211.985C258.172 205.943 264.53 195.718 262.789 189.336Z" stroke="#F2F4F7"/>
<path fill-rule="evenodd" clip-rule="evenodd" d="M267.758 186.687C260.979 180.236 251.184 176.751 242.883 173.224C230.937 168.147 218.796 163.582 206.751 158.765C195.362 154.211 183.932 149.58 172.986 143.875C166.312 140.396 158.015 136.32 153.53 129.731C143.804 115.45 174.057 109.906 181.257 107.535C199.158 101.645 219.701 95.89 234.292 83.0893C243.403 75.0958 245.414 65.3493 239.979 54.0227C238.1 50.1036 235.761 46.9544 236.427 42.3761C237.195 37.0779 241.098 32.8575 244.843 29.6131C256.574 19.4486 272.142 13.7854 286.451 8.71024C301.233 3.4672 316.743 -1.59272 331.594 -4.63389C337.533 -5.85162 343.731 -9.6326 349.109 -12.6997C357.383 -17.422 365.471 -22.4791 373.655 -27.3595C390.288 -37.2819 407.438 -47.1426 426.013 -52.7187C439.424 -56.7447 454.105 -58.3329 467.618 -52.8875C481.315 -47.3637 489.935 -35.4215 499.643 -24.4745C516.415 -5.54565 538.279 17.0748 564.771 14.9249C568.788 14.6 572.367 13.2335 576.239 12.3805C578.229 11.9406 580.543 11.6167 582.089 13.3956C586.102 18.0137 581.608 29.6279 580.309 34.337C576.723 47.3498 572.17 60.0321 568.209 72.9129C565.063 83.1411 560.708 94.7361 561.365 105.685C562.162 118.972 581.408 123.421 589.708 130.703C604.098 143.331 586.99 157.307 579.363 167.21C570.603 178.58 565.626 196.374 578.991 206.754C584.102 210.722 589.546 212.445 592.974 218.493C598.337 227.951 599.454 240.103 600.006 250.724C600.828 266.694 599.728 283.003 596.449 298.514C594.097 309.62 589.958 327.156 577.575 329.242C569.241 330.653 560.226 330.065 551.647 329.708C538.802 329.176 525.967 328.085 513.151 326.814C483.573 323.908 454.014 319.886 424.679 314.61C404.662 311.008 345.919 290.107 341.861 289.887C329.764 289.234 317.287 293.263 305.97 296.899C290.914 301.735 276.254 307.74 261.568 313.599C254.576 316.384 247.598 319.367 240.452 321.731C235.366 323.412 228.65 325.485 223.276 323.529C212.788 319.715 218.838 302.935 221.304 295.861C228.855 274.177 240.369 254.067 250.803 233.862C255.922 223.944 261.156 214.008 265.435 203.629C267.159 199.439 271.947 190.67 267.758 186.687Z" stroke="#F2F4F7"/>
<path fill-rule="evenodd" clip-rule="evenodd" d="M273.218 180.986C256.212 168.999 235.374 162.279 216.59 153.496C207.161 149.086 197.637 144.512 188.935 138.582C184.409 135.498 178.74 131.584 176.578 126.174C170.795 111.702 198.027 106.572 205.863 103.864C221.013 98.6246 238.238 93.114 250.206 81.7313C257.517 74.7742 259.683 65.9909 255.387 56.36C253.482 52.0867 251.361 48.5908 252.001 43.7222C252.649 38.7897 255.639 34.6308 258.887 31.2433C268.219 21.5031 281.488 15.6333 293.602 10.6629C307.816 4.84559 322.447 0.140928 337.377 -3.4131C350.452 -6.53145 362.285 -14.0327 374.244 -20.0913C390.086 -28.1156 406.353 -35.775 423.655 -39.9124C437.321 -43.1778 451.774 -43.9362 465.441 -39.3222C479.333 -34.616 489.573 -24.7439 499.365 -13.7542C514.167 2.85931 533.096 25.3649 556.237 26.9803C559.603 27.2174 562.506 26.5648 565.734 25.8982C567.301 25.5738 569.302 25.0674 570.523 26.5604C573.46 30.1562 568.775 39.9086 567.615 43.1809C563.913 53.6268 559.594 63.8119 555.709 74.1814C552.082 83.8621 548.029 94.0237 546.975 104.512C545.301 121.214 566.02 125.166 569.378 139.755C571.461 148.812 565.042 157.428 559.785 163.606C553.312 171.207 542.843 177.869 541.545 188.921C540.578 197.153 546.383 200.238 551.473 204.925C560.098 212.865 563.985 225.719 566.321 236.96C569.479 252.148 570.224 268.221 568.252 283.488C567.358 290.409 565.956 297.735 562.631 303.815C559.516 309.513 555.728 311.774 549.691 312.396C531.21 314.296 511.193 311.151 492.302 308.613C468.567 305.424 444.878 301.228 421.488 295.634C405.538 291.819 389.156 287.65 374.137 280.498C370.223 278.633 366.169 276.553 362.878 273.592C360.395 271.369 359.051 269.344 355.67 268.6C345.65 266.399 333.73 270.87 324.43 273.87C309.558 278.664 295.094 284.692 280.597 290.515C272.14 293.921 256.567 301.677 247.437 295.528C239.556 290.218 243.663 276.463 245.743 269.368C251.005 251.424 259.463 234.647 266.94 217.701C270.367 209.935 273.983 202.067 276.324 193.826C276.923 191.725 278.017 188.86 277.726 186.58C277.385 183.97 275.307 182.464 273.218 180.986Z" stroke="#F2F4F7"/>
<path fill-rule="evenodd" clip-rule="evenodd" d="M275.287 184.281C259.738 173.82 242.407 166.448 226.219 157.097C218.96 152.905 211.57 148.447 205.337 142.631C201.984 139.503 198.226 135.442 197.622 130.6C195.887 116.702 218.163 112.03 226.822 108.869C239.69 104.185 254.518 98.9673 264.234 88.6195C270.599 81.8415 271.588 74.085 267.748 65.4524C263.627 56.1926 265.167 48.2568 271.506 40.7769C279.454 31.4041 291.035 25.3487 301.843 20.3555C314.866 14.3509 328.413 9.60633 342.317 6.17956C355.84 2.84792 368.234 -3.02171 381.181 -8.14823C398.347 -14.9433 416.359 -20.8527 435 -21.3471C451.229 -21.7768 467.163 -17.4104 480.827 -7.71681C495.097 2.39813 504.827 17.3523 517.44 29.3931C525.307 36.9036 536.104 46.7338 547.246 47.4873C550.962 47.7386 556.745 44.5065 555.56 50.959C554.883 54.6489 552.744 58.2998 551.163 61.5913C548.609 66.9104 545.9 72.1434 543.268 77.4197C537.658 88.6668 531.529 100.26 528.383 112.641C524.416 128.231 538.506 135.635 540.812 149.747C542.054 157.341 538.762 164.55 534.848 170.568C532.317 174.466 529.364 178.045 526.288 181.471C523.075 185.049 518.987 188.214 516.471 192.402C512.883 198.363 516.463 203.322 518.986 209.109C523.422 219.279 526.657 229.95 528.618 240.88C531.024 254.276 532.044 268.445 529.778 281.812C528.898 287.016 527.526 292.65 524.365 296.827C521.205 301.005 517.018 301.899 512.192 302.189C497.88 303.06 482.614 300.254 468.106 297.606C449.948 294.289 431.866 289.99 414.181 284.326C401.973 280.416 389.586 275.976 378.441 269.226C375.199 267.261 372.03 265.076 369.234 262.437C367.314 260.628 365.847 258.023 363.472 256.914C356.042 253.453 344.269 258.236 337.233 260.438C323.191 264.832 309.966 271.378 295.967 275.859C288.327 278.305 276.456 282.489 268.909 277.058C261.812 271.954 263.895 260.362 265.402 253.208C268.362 239.142 273.841 225.848 278.317 212.311C280.156 206.741 282.234 200.872 282.798 194.924C283.297 189.624 279.272 186.964 275.287 184.281Z" stroke="#F2F4F7"/>
<path fill-rule="evenodd" clip-rule="evenodd" d="M278.272 183.721C265.588 174.248 251.321 166.645 238.517 156.995C231.021 151.343 218.191 141.902 219.807 130.67C221.575 118.328 237.998 113.605 247.299 110.156C258.369 106.052 271.315 101.028 279.18 91.5106C281.667 88.5016 283.51 84.9071 283.599 80.7993C283.695 76.4028 281.439 73.1825 280.176 69.1455C277.527 60.6764 280.531 52.5026 285.678 46.0627C292.952 36.9585 303.439 30.7657 313.553 25.6971C325.015 19.9657 337.016 15.4387 349.383 12.1808C361.201 9.05992 372.808 5.65391 384.54 2.16871C399.881 -2.39728 415.738 -5.91069 431.89 -5.59689C447.802 -5.28478 463.373 -0.881366 477.074 8.06172C490.441 16.7893 501.144 28.9667 511.056 41.6364C516.68 48.8279 525.758 59.3943 535.086 61.2887C539.234 62.1327 542.791 61.0453 540.172 66.8329C536.873 74.1207 531.553 80.6841 527.247 87.3151C521.037 96.8834 514.659 106.651 510.137 117.26C507.249 124.035 506.749 129.992 508.994 137.161C510.707 142.62 513.231 147.802 514.18 153.489C516.412 166.837 509.09 178.362 502.729 188.973C498.636 195.797 494.684 201.225 493.877 209.588C492.921 219.474 494.128 229.627 494.38 239.558C494.656 250.464 494.66 261.884 491.688 272.351C489.043 281.67 484.174 286.835 474.861 287.011C460.337 287.287 444.686 282.575 430.534 278.129C416.132 273.606 401.68 268.053 388.601 260.036C381.539 255.707 375.955 249.898 369.394 244.972C361.145 238.791 348.025 245.484 339.934 248.363C326.501 253.141 285.514 272.948 282.355 245.215C281.036 233.639 284.835 221.612 286.995 210.507C287.888 205.899 289.452 200.237 288.649 195.446C287.775 190.228 282.086 186.573 278.272 183.721Z" stroke="#F2F4F7"/>
<path fill-rule="evenodd" clip-rule="evenodd" d="M283.543 183.402C273.393 174.458 261.981 166.496 252.625 156.405C246.559 149.871 239.88 140.76 242.916 131.314C246.343 120.654 258.702 115.072 267.89 111.368C277.357 107.554 288.77 103.421 294.922 94.3857C296.879 91.5086 298.183 87.9862 297.624 84.3369C297.089 80.8358 295.115 77.7204 294.54 74.1642C293.246 66.1791 295.997 58.5769 300.512 52.3881C313.867 34.0797 338.407 24.229 358.867 18.3617C369.109 15.4262 379.949 13.5259 390.485 11.4226C404.157 8.69321 418.116 6.9572 432.14 8.03055C461.955 10.3094 485.912 26.6626 505.752 49.6834C511.996 56.9298 517.481 65.1107 525.564 70.1128C529.733 72.6971 529.689 75.367 527.217 79.4048C523.352 85.7157 518.036 91.1715 513.383 96.8211C506.765 104.856 499.995 113.025 494.632 121.962C490.936 128.123 488.64 133.719 489.504 141.241C490.119 146.604 491.706 151.812 492.635 157.125C494.399 167.219 494.015 177.808 490.885 187.411C488.394 195.026 484.94 202.265 481.243 209.276C476.44 218.4 472.711 227.362 469.901 237.417C466.171 250.73 462.282 274.485 444.742 273.174C425.396 271.725 404.605 260.444 389.174 248.249C383.992 244.155 379.183 238.72 373.033 236.325C363.827 232.749 356.073 235.039 346.927 237.514C333.234 241.218 304.26 252.345 298.134 230.772C295.708 222.225 297.053 213.169 296.526 204.463C295.95 194.71 290.47 189.495 283.543 183.402Z" stroke="#F2F4F7"/>
<path fill-rule="evenodd" clip-rule="evenodd" d="M289.19 182.93C278.235 170.663 255.946 151.655 263.922 132.613C268.135 122.551 278.696 116.363 287.76 111.934C295.052 108.362 304.182 105.308 308.282 97.349C311.296 91.4977 307.563 85.1574 307.622 78.8277C307.698 70.9799 310.762 63.7539 315.291 57.7264C327.947 40.8811 349.189 31.0604 368.241 25.0771C388.027 18.8648 411.144 16.9292 432.026 19.5256C458.063 22.7665 480.493 36.1034 498.921 55.6655C502.322 59.2769 505.545 63.0543 508.869 66.741C511.101 69.2134 514.015 71.4029 515.977 74.107C519.244 78.6167 518.081 83.3304 515.329 87.5777C511.371 93.6912 505.856 98.765 500.852 103.898C494.01 110.921 486.962 117.905 480.913 125.615C476.849 130.801 472.626 136.346 472.583 143.466C472.552 148.322 473.578 153.182 474.877 157.855C477.665 167.874 479.342 176.131 477.364 186.521C474.099 203.583 466.494 220.177 457.643 234.659C450.697 246.026 439.638 263.754 424.467 261.464C410.858 259.421 400.324 248.623 389.542 240.5C384.3 236.551 378.692 233.165 372.588 230.992C364.892 228.254 358.273 228.014 350.38 229.343C337.095 231.58 317.476 236.494 309.079 221.172C305.979 215.518 305.144 209.025 302.726 203.104C299.542 195.272 294.717 189.117 289.19 182.93Z" stroke="#F2F4F7"/>
<path fill-rule="evenodd" clip-rule="evenodd" d="M296.771 181.459C287.517 167.305 275.583 149.539 284.193 132.448C288.363 124.169 295.746 118.187 303.112 113.221C308.388 109.664 317.458 106.602 319.373 99.497C320.777 94.2696 319.466 87.9284 320.534 82.4447C322 74.9059 325.457 68.0941 330.086 62.2462C342.146 47.0087 360.603 37.4239 378.16 31.3909C416.31 18.2861 461.601 29.1078 491.844 58.775C500.861 67.6177 511.862 76.6532 504.715 90.0708C496.91 104.711 481.895 114.613 471.064 126.431C466.925 130.945 461.589 136.467 460.346 142.964C459.597 146.869 460.644 151.237 461.588 155.063C463.983 164.81 465.556 173.731 464.286 183.764C462.326 199.269 456.684 214.601 449.205 227.925C442.683 239.544 432.763 253.802 417.927 250.661C406.549 248.241 397.299 239.113 387.381 233.214C376.343 226.642 364.033 223.52 351.492 223.742C339.295 223.966 326.239 225.411 316.979 214.959C313.802 211.374 310.206 206.593 308.204 202.219C304.929 195 301.105 188.057 296.771 181.459Z" stroke="#F2F4F7"/>
<path fill-rule="evenodd" clip-rule="evenodd" d="M305.095 179.347C298.539 164.307 293.899 148.036 301.54 132.75C305.107 125.618 310.471 119.793 316.01 114.333C320.086 110.316 324.433 106.684 326.824 101.248C329.04 96.2141 330.279 90.7266 332.351 85.615C335.078 78.8464 338.84 72.6115 343.492 67.1499C355.159 53.4781 371.326 44.214 387.544 38.1573C395.395 35.2223 404.028 32.4763 412.598 32.4466C420.875 32.4159 429.383 33.5945 437.498 35.4523C454.748 39.3937 470.978 47.5862 484.435 59.8365C493.663 68.2397 499.826 77.1635 494.155 89.7161C487.762 103.866 474.578 114.26 464.315 125.082C457.276 132.504 449.192 140.096 450.56 151.494C451.647 160.564 452.851 169.126 451.822 178.25C450.26 191.72 446.123 204.652 439.655 216.277C433.731 226.877 425.298 236.784 412.398 235.427C402.176 234.346 392.846 228.287 383.22 224.747C372.488 220.788 361.632 219.929 350.435 219.899C340.37 219.862 330.486 218.31 322.192 211.613C320.495 210.245 318.696 208.743 317.229 207.097C315.358 204.997 314.808 202.565 313.839 199.909C311.291 192.896 308.062 186.154 305.095 179.347Z" stroke="#F2F4F7"/>
<path fill-rule="evenodd" clip-rule="evenodd" d="M313.899 175.614C310.112 160.674 309.735 145.697 315.919 131.606C318.563 125.579 322.211 120.22 325.365 114.501C327.902 109.892 330.316 105.595 333.554 101.489C341.238 91.7631 346.56 80.4156 355.057 71.3118C366.395 59.1464 380.735 50.2589 395.712 44.2288C403.024 41.2836 410.747 38.8698 418.673 37.8595C425.481 36.9915 432.61 38.4377 439.304 40.0782C452.424 43.2897 465.919 49.2345 476.369 58.5303C499.409 79.0246 471.976 105.764 458.246 120.797C451.932 127.712 441.802 136.476 441.267 146.965C440.884 154.458 441.404 161.835 440.321 169.288C437.412 189.303 427.4 214.61 405.767 217.395C396.511 218.588 387.061 215.892 377.843 214.853C368.352 213.782 358.984 214.277 349.505 214.606C340.646 214.914 333.262 213.954 325.904 208.046C322.388 205.226 321.489 200.962 320.106 196.717C317.836 189.743 315.698 182.69 313.899 175.614Z" stroke="#F2F4F7"/>
<path fill-rule="evenodd" clip-rule="evenodd" d="M321.717 171.477C319.051 148.11 324.936 120.242 339.758 102.285C357.192 81.1621 377.073 61.9817 401.822 51.3678C413.296 46.4466 426.144 42.0955 438.916 44.7119C448.636 46.7003 460.308 50.4378 467.439 58.1818C484.884 77.1226 463.913 101.541 452.02 115.653C445.616 123.25 437.026 131.283 433.239 140.887C431.04 146.456 430.929 153.073 429.517 158.921C425.236 176.643 414.711 192.831 398.035 199.69C390.324 202.861 381.937 203.742 373.74 204.852C365.348 205.99 356.982 207.628 348.531 208.342C341.785 208.911 333.675 208.987 329.357 202.354C323.913 193.996 322.807 181.02 321.717 171.477Z" stroke="#F2F4F7"/>
<path fill-rule="evenodd" clip-rule="evenodd" d="M328.917 165.678C328.149 143.242 332.987 119.861 347.023 102.584C354.466 93.4221 363.95 85.9334 373.021 78.6146C383.303 70.3194 394.418 63.0408 406.335 57.7146C421.173 51.0817 445.681 42.1197 458.773 58.5863C471.768 74.9308 455.842 96.7459 446.33 109.295C440.23 117.335 433.457 125.029 427.85 133.535C424.809 138.147 422.832 143.063 420.569 148.123C414.321 162.135 403.459 174.813 391.202 183.311C379.323 191.549 363.624 197.993 349.333 200.152C343.168 201.086 338.283 199.972 334.751 194.032C329.849 185.772 329.233 174.946 328.917 165.678Z" stroke="#F2F4F7"/>
<path fill-rule="evenodd" clip-rule="evenodd" d="M335.508 157.816C335.384 137.914 341.315 118.117 353.614 102.857C367.4 85.7511 387.607 72.8839 406.945 63.9125C417.224 59.1452 439.225 47.792 448.626 60.8935C458.027 73.9949 445.988 92.6144 438.962 102.971C430.431 115.526 420.944 127.983 411.296 139.782C402.914 150.039 393.882 160.65 384.181 169.435C378.715 174.41 372.823 178.854 366.576 182.715C361.947 185.562 356.149 189.512 350.575 189.81C336.516 190.556 335.566 167.331 335.508 157.816Z" stroke="#F2F4F7"/>
<path fill-rule="evenodd" clip-rule="evenodd" d="M344.033 149.56C345.272 111.53 374.421 85.1782 405.334 70.4325C412.518 67.0075 432.356 56.2834 439.46 65.8959C446.345 75.2164 436.634 91.06 432.107 98.5468C418.077 121.746 398.342 141.448 379.796 160.697C374.008 166.705 363.976 179.065 354.298 177.197C343.787 175.16 343.778 157.446 344.033 149.56Z" stroke="#F2F4F7"/>
<path fill-rule="evenodd" clip-rule="evenodd" d="M353.141 139.864C355.474 111.476 378.466 89.3931 401.952 77.8509C407.704 75.0251 422.131 67.1607 428.668 73.1564C434.717 78.7022 427.153 91.1132 424.384 95.9816C418.219 106.822 410.083 116.572 401.995 126.015C394.518 134.75 386.984 143.669 378.768 151.564C374.441 155.72 366.518 164.238 359.592 161.466C352.136 158.486 352.624 146.167 353.141 139.864Z" stroke="#F2F4F7"/>
<path fill-rule="evenodd" clip-rule="evenodd" d="M363.15 129.072C365.685 110.262 381.672 94.2059 397.393 86.0815C401.623 83.8975 410.653 78.7529 415.654 82.2547C420.258 85.48 416.269 93.086 414.527 96.5715C406.81 112.021 393.599 127.514 380.592 138.34C377.321 141.062 371.518 146.24 366.748 143.793C361.854 141.279 362.567 133.391 363.15 129.072Z" stroke="#F2F4F7"/>
<path fill-rule="evenodd" clip-rule="evenodd" d="M374.014 118.543C375.747 109.076 384.458 99.95 392.54 95.6223C398.228 92.5778 405.851 91.8487 402.521 100.577C399.212 109.241 391.239 118.48 383.764 123.631C378.061 127.561 372.528 126.674 374.014 118.543Z" stroke="#F2F4F7"/>
<path fill-rule="evenodd" clip-rule="evenodd" d="M66.6325 263.259C61.9306 246.733 48.9523 231.726 48.5489 213.711C48.217 198.916 64.9684 193.185 73.5183 184.15C80.3127 176.972 82.5562 166.881 84.6785 157.207C86.587 148.52 88.0319 139.712 90.1852 131.095C91.5808 125.523 93.6571 114.759 99.456 113.021C105.007 111.356 112.127 117.403 116.552 120.919C122.322 125.501 127.713 130.591 133.385 135.298C142.946 143.239 153.21 148.263 164.577 152.575C177.513 157.481 190.556 162.073 203.706 166.349C213.393 169.514 223.125 172.623 232.634 176.405C238.599 178.778 251.435 182.789 253.316 189.607C254.214 192.86 252.254 197.254 250.979 200.388C248.822 205.693 246.097 210.745 243.337 215.713C238.196 224.967 232.664 233.969 227.235 243.034C220.189 254.799 213.529 266.3 207.967 279.003C202.22 292.15 196.955 305.55 191.48 318.843C187.772 327.847 184.317 337.769 177.31 344.563C168.53 353.06 158.442 349.284 147.991 352.009C139 354.352 133.781 332.227 131.005 326.43C128.205 320.56 124.142 315.486 121.506 309.556C118.216 302.153 116.081 294.25 113.688 286.518C110.764 277.06 108.181 268.002 97.5285 266.951C91.4667 266.357 85.3925 267.518 79.3601 267.805C75.4517 267.99 68.1177 268.48 66.6325 263.259Z" stroke="#F2F4F7"/>
<path fill-rule="evenodd" clip-rule="evenodd" d="M70.2533 259.128C65.5853 245.469 55.2571 229.154 56.6651 213.387C57.8673 199.914 71.4833 194.56 79.2116 185.581C85.5928 178.173 86.7364 168.542 88.3481 158.949C89.6414 151.254 90.8222 143.519 92.5972 135.929C93.9053 130.336 95.6912 121.007 100.865 118.536C105.516 116.314 112.719 122.198 116.46 125.17C121.92 129.511 126.924 134.472 132.007 139.28C140.939 147.725 149.747 155.111 160.845 160.099C171.991 165.108 183.493 168.005 195.163 171.101C204.293 173.523 213.417 176.088 222.34 179.318C228.986 181.722 238.377 184.562 242.805 190.838C246.309 195.802 238.471 207.699 236.302 211.738C231.834 220.044 226.886 228.044 221.914 236.009C215.853 245.715 209.281 254.545 204.449 265.059C195.805 283.859 190.266 305.871 176.904 321.703C168.845 331.252 158.292 335.969 146.997 337.89C142.525 338.65 139.735 332.43 138.169 328.786C135.567 322.732 133.735 316.355 131.338 310.219C129.092 304.475 126.123 299.242 123.389 293.752C120.62 288.189 118.671 282.252 116.206 276.564C114.677 273.033 112.992 268.898 109.821 266.58C106.54 264.179 102.135 263.985 98.3247 263.962C91.1736 263.936 73.5484 268.766 70.2533 259.128Z" stroke="#F2F4F7"/>
<path fill-rule="evenodd" clip-rule="evenodd" d="M74.3716 251.781C69.3682 239.437 62.8919 224.127 66.185 210.636C68.8758 199.605 79.5556 194.52 85.9015 186.102C91.1799 179.101 91.4801 170.136 92.7293 161.545C93.755 154.498 94.7875 147.42 96.4715 140.524C97.7488 135.295 99.3128 128.249 103.848 125.329C107.727 122.833 114.151 127.638 117.315 130.039C122.703 134.131 127.519 139.043 132.292 143.886C140.101 151.809 147.656 160.483 157.243 166.062C166.555 171.472 176.436 173.491 186.626 176.008C194.431 177.936 202.232 180.021 209.838 182.777C215.677 184.891 222.863 187.324 226.957 192.348C230.494 196.68 226.364 204.035 224.452 208.271C221.292 215.264 217.49 221.921 213.766 228.58C209.747 235.765 205.012 242.667 201.21 249.944C193.216 265.254 187.844 281.274 176.456 294.414C169.081 302.925 158.442 311.712 147.526 313.57C139.675 314.904 135.386 296.882 133.119 291.364C129.406 282.343 124.44 273.15 118.423 265.536C113.26 259.014 105.079 258.768 97.6702 258.98C93.0286 259.111 88.3055 259.775 83.655 259.3C78.2712 258.749 76.4687 256.956 74.3716 251.781Z" stroke="#F2F4F7"/>
</svg>
