<svg width="17" height="18" viewBox="0 0 17 18" fill="none" xmlns="http://www.w3.org/2000/svg">
    <path d="M7.621 8.572v.004c0 .403-.292.694-.617.694-.319 0-.617-.293-.617-.694 0-.402.291-.693.617-.693.329 0 .623.294.617.69zm1.868.004c0-.402.292-.693.617-.693.326 0 .617.291.617.693 0 .403-.291.694-.617.694-.318 0-.617-.293-.617-.694z" fill="#98A2B3" stroke="#98A2B3" stroke-width=".5"/>
    <path d="M14.238.5H2.848c-.961 0-1.743.782-1.743 1.751v11.492c0 .969.782 1.751 1.742 1.751h9.64l-.451-1.572 1.088 1.011 1.028.952L15.98 17.5V2.251c0-.969-.782-1.751-1.742-1.751zm-3.281 11.101s-.307-.366-.562-.689c1.114-.314 1.539-1.011 1.539-1.011-.348.23-.68.391-.977.502a5.594 5.594 0 0 1-1.233.365 5.954 5.954 0 0 1-2.202-.009 7.135 7.135 0 0 1-1.249-.365 4.981 4.981 0 0 1-.62-.289c-.026-.017-.052-.026-.077-.043-.017-.008-.026-.016-.034-.025a2.982 2.982 0 0 1-.238-.145s.408.68 1.487 1.004c-.255.322-.569.705-.569.705-1.879-.06-2.593-1.292-2.593-1.292 0-2.737 1.224-4.955 1.224-4.955 1.224-.918 2.389-.893 2.389-.893l.085.102c-1.53.442-2.236 1.114-2.236 1.114s.187-.103.502-.247c.91-.4 1.632-.51 1.93-.535.05-.009.093-.017.144-.017a6.929 6.929 0 0 1 4.276.799s-.672-.638-2.117-1.08l.119-.136s1.165-.026 2.389.893c0 0 1.223 2.218 1.223 4.955 0 0-.722 1.232-2.6 1.292z" fill="#98A2B3"/>
</svg>
