<svg width="14" height="14" viewBox="0 0 14 14" fill="none" xmlns="http://www.w3.org/2000/svg">
<g clip-path="url(#clip0_1346_53341)">
<path d="M10.8109 2.4798C10.9439 2.80138 11.1991 3.05699 11.5205 3.19044L12.6474 3.65722C12.969 3.79043 13.2245 4.04594 13.3577 4.36754C13.4909 4.68913 13.4909 5.05048 13.3577 5.37208L12.8913 6.49817C12.758 6.81991 12.7578 7.18163 12.8917 7.50321L13.3573 8.62897C13.4234 8.78826 13.4574 8.95899 13.4574 9.13142C13.4574 9.30385 13.4235 9.4746 13.3575 9.6339C13.2915 9.79321 13.1948 9.93795 13.0728 10.0599C12.9509 10.1818 12.8061 10.2784 12.6468 10.3444L11.5207 10.8108C11.1991 10.9438 10.9435 11.199 10.8101 11.5204L10.3433 12.6473C10.2101 12.9689 9.95457 13.2244 9.63298 13.3576C9.31138 13.4908 8.95003 13.4908 8.62843 13.3576L7.50234 12.8912C7.18073 12.7583 6.81951 12.7586 6.49811 12.8919L5.3712 13.358C5.04978 13.4909 4.68875 13.4908 4.36741 13.3577C4.04608 13.2246 3.79071 12.9694 3.65741 12.6482L3.19049 11.5209C3.05752 11.1993 2.8023 10.9437 2.48093 10.8103L1.35402 10.3435C1.03256 10.2104 0.77713 9.95501 0.64387 9.63359C0.51061 9.31218 0.510429 8.951 0.643368 8.62945L1.10981 7.50336C1.24269 7.18175 1.24242 6.82054 1.10906 6.49913L0.643283 5.37142C0.577245 5.21213 0.543241 5.0414 0.543214 4.86897C0.543186 4.69654 0.577135 4.52579 0.643122 4.36649C0.709108 4.20718 0.805838 4.06244 0.927785 3.94053C1.04973 3.81862 1.1945 3.72194 1.35383 3.65601L2.47992 3.18956C2.80122 3.05671 3.05667 2.80181 3.19022 2.4808L3.657 1.3539C3.79021 1.0323 4.04572 0.776794 4.36732 0.643583C4.68892 0.510372 5.05026 0.510372 5.37186 0.643583L6.49796 1.11003C6.81957 1.24291 7.18078 1.24264 7.50219 1.10927L8.62957 0.644306C8.95112 0.51117 9.31239 0.511197 9.63393 0.644382C9.95546 0.777567 10.2109 1.033 10.3442 1.35452L10.8111 2.48176L10.8109 2.4798Z" fill="#07939C"/>
<path fill-rule="evenodd" clip-rule="evenodd" d="M9.7416 5.16548C9.83513 5.01858 9.86646 4.84055 9.82872 4.67055C9.79098 4.50054 9.68725 4.3525 9.54035 4.25898C9.39346 4.16545 9.21543 4.13412 9.04542 4.17186C8.87542 4.2096 8.72738 4.31333 8.63385 4.46023L6.06398 8.49835L4.88798 7.02835C4.77926 6.89236 4.62097 6.80513 4.44793 6.78585C4.27489 6.76657 4.10128 6.81682 3.96529 6.92554C3.8293 7.03426 3.74207 7.19255 3.72279 7.36559C3.70351 7.53863 3.75376 7.71224 3.86248 7.84823L5.61248 10.0357C5.6777 10.1174 5.76146 10.1822 5.85681 10.225C5.95216 10.2677 6.05633 10.287 6.16065 10.2814C6.26498 10.2757 6.36646 10.2452 6.45663 10.1925C6.54681 10.1397 6.62308 10.0662 6.6791 9.97798L9.7416 5.16548Z" fill="white"/>
</g>
<defs>
<clipPath id="clip0_1346_53341">
<rect width="14" height="14" fill="white"/>
</clipPath>
</defs>
</svg>
