<svg width="17" height="18" viewBox="0 0 17 18" fill="none" xmlns="http://www.w3.org/2000/svg">
    <path d="M1.417 9h14.166M1.417 9A7.083 7.083 0 0 0 8.5 16.082M1.417 8.999A7.083 7.083 0 0 1 8.5 1.916m7.083 7.083A7.083 7.083 0 0 1 8.5 16.083m7.083-7.084A7.083 7.083 0 0 0 8.5 1.916m0 0a10.837 10.837 0 0 1 2.833 7.083A10.838 10.838 0 0 1 8.5 16.083m0-14.167a10.837 10.837 0 0 0-2.833 7.083A10.838 10.838 0 0 0 8.5 16.083" stroke="#98A2B3" stroke-width="1.33" stroke-linecap="round" stroke-linejoin="round"/>
</svg>
