<svg width="96" height="28" viewBox="0 0 96 28" fill="none" xmlns="http://www.w3.org/2000/svg">
    <mask id="1r9ynagsle" style="mask-type:alpha" maskUnits="userSpaceOnUse" x="0" y="0" width="96" height="28">
        <path d="M7.942 20.498c0 .887.266 1.57.798 2.052.557.481 1.28.722 2.166.722.71 0 1.419-.14 2.128-.418v4.408c-.633.203-1.305.367-2.014.494a10.13 10.13 0 0 1-2.128.228c-.81 0-1.583-.101-2.318-.304a5.267 5.267 0 0 1-1.976-1.026c-.583-.507-1.051-1.165-1.406-1.976-.33-.836-.494-1.862-.494-3.078v-8.512H0V9.554l2.698-1.14V4.196h5.244v4.218h5.092v4.674H7.942v7.41zM24.807 7.882a9.21 9.21 0 0 1 3.8.798 9.472 9.472 0 0 1 3.116 2.128 9.663 9.663 0 0 1 2.09 3.154 9.3 9.3 0 0 1 .798 3.838c0 1.368-.266 2.66-.798 3.876a10.228 10.228 0 0 1-2.09 3.154 10.308 10.308 0 0 1-3.116 2.128 9.603 9.603 0 0 1-3.8.76c-1.368 0-2.647-.253-3.838-.76a10.305 10.305 0 0 1-3.116-2.128 10.81 10.81 0 0 1-2.128-3.154 9.975 9.975 0 0 1-.76-3.876c0-1.368.253-2.647.76-3.838a10.178 10.178 0 0 1 2.128-3.154 9.47 9.47 0 0 1 3.116-2.128 9.3 9.3 0 0 1 3.838-.798zm0 15.238c.633 0 1.216-.127 1.748-.38a4.54 4.54 0 0 0 1.444-1.026c.43-.456.76-.988.988-1.596a5.58 5.58 0 0 0 .38-2.09c0-.76-.127-1.47-.38-2.128a4.969 4.969 0 0 0-.988-1.71 4.296 4.296 0 0 0-1.444-1.178 3.462 3.462 0 0 0-1.748-.456c-.633 0-1.229.152-1.786.456a4.689 4.689 0 0 0-1.482 1.178 5.934 5.934 0 0 0-.988 1.71 6.462 6.462 0 0 0-.342 2.128c0 .76.114 1.457.342 2.09.253.608.583 1.14.988 1.596.43.43.924.773 1.482 1.026.557.253 1.152.38 1.786.38zM49.325 17.382c1.393.988 2.09 2.394 2.09 4.218 0 .836-.203 1.621-.608 2.356a6.11 6.11 0 0 1-1.596 1.938c-.684.557-1.482 1-2.394 1.33a9.195 9.195 0 0 1-2.926.456 8.957 8.957 0 0 1-2.318-.304 9.174 9.174 0 0 1-2.052-.836 7.599 7.599 0 0 1-1.672-1.254 5.232 5.232 0 0 1-1.026-1.672 187.85 187.85 0 0 1 1.938-.912c.71-.355 1.33-.671 1.862-.95.228.38.583.735 1.064 1.064.482.304 1.14.456 1.976.456.862 0 1.495-.203 1.9-.608.405-.405.608-.785.608-1.14 0-.253-.14-.481-.418-.684a3.171 3.171 0 0 0-.95-.532c-.506-.203-.924-.304-1.254-.304a5.645 5.645 0 0 1-1.14-.228c-1.368-.33-2.42-.76-3.154-1.292-.71-.557-1.229-1.115-1.558-1.672-.33-.557-.52-1.09-.57-1.596A25.62 25.62 0 0 1 37.09 14c0-.81.178-1.583.532-2.318a5.914 5.914 0 0 1 1.444-1.9c.634-.557 1.355-1 2.166-1.33a7.191 7.191 0 0 1 2.66-.494 7.282 7.282 0 0 1 4.18 1.292 6.178 6.178 0 0 1 1.482 1.444c.43.557.748 1.178.95 1.862l-4.066 1.368c-.152-.456-.468-.823-.95-1.102a2.79 2.79 0 0 0-1.482-.418c-.532 0-.963.177-1.292.532-.33.355-.494.71-.494 1.064 0 .43.152.773.456 1.026.33.228.684.393 1.064.494.279.05.545.101.798.152.279.025.545.063.798.114.887.203 1.647.43 2.28.684a7.258 7.258 0 0 1 1.71.912zM59.903 27.262h-5.244V8.414h5.244v18.848zM57.28 5.83c-.81 0-1.495-.279-2.052-.836-.557-.557-.836-1.241-.836-2.052 0-.81.279-1.495.836-2.052A2.73 2.73 0 0 1 57.28.016c.81 0 1.495.291 2.052.874.557.557.836 1.241.836 2.052 0 .81-.279 1.495-.836 2.052-.557.557-1.241.836-2.052.836z" fill="#212B36"/>
        <path d="M68.742 25.662c.096-.085.181-.181.256-.288a.626.626 0 0 0 .112-.368.563.563 0 0 0-.192-.432 1.353 1.353 0 0 0-.448-.288 2.356 2.356 0 0 0-.544-.192c-.192-.043-.352-.08-.48-.112a8.328 8.328 0 0 1-.992-.304 3.948 3.948 0 0 1-.816-.448 2.317 2.317 0 0 1-.544-.624 1.843 1.843 0 0 1-.192-.864c0-.31.075-.597.224-.864.15-.277.347-.517.592-.72a2.85 2.85 0 0 1 .88-.496 3.028 3.028 0 0 1 1.072-.192c.33 0 .645.048.944.144.299.096.565.23.8.4.245.16.448.357.608.592.17.235.283.496.336.784l-1.392.336a1.163 1.163 0 0 0-.416-.64c-.213-.17-.507-.256-.88-.256-.128 0-.261.021-.4.064a1.22 1.22 0 0 0-.688.432.626.626 0 0 0-.112.368c0 .15.043.277.128.384.096.107.208.197.336.272.128.064.267.117.416.16.15.043.288.08.416.112a9.21 9.21 0 0 1 1.408.448c.373.16.672.336.896.528.224.192.379.405.464.64.096.224.144.48.144.768 0 .341-.08.661-.24.96-.15.299-.363.56-.64.784a3.132 3.132 0 0 1-.976.512 4.038 4.038 0 0 1-1.216.176c-.661 0-1.253-.16-1.776-.48-.512-.33-.859-.768-1.04-1.312l1.312-.592c.17.373.39.63.656.768.267.128.57.192.912.192.427 0 .784-.117 1.072-.352z" fill="#01AFA5"/>
        <path d="M68.742 25.662c.096-.085.181-.181.256-.288a.626.626 0 0 0 .112-.368.563.563 0 0 0-.192-.432 1.353 1.353 0 0 0-.448-.288 2.356 2.356 0 0 0-.544-.192c-.192-.043-.352-.08-.48-.112a8.328 8.328 0 0 1-.992-.304 3.948 3.948 0 0 1-.816-.448 2.317 2.317 0 0 1-.544-.624 1.843 1.843 0 0 1-.192-.864c0-.31.075-.597.224-.864.15-.277.347-.517.592-.72a2.85 2.85 0 0 1 .88-.496 3.028 3.028 0 0 1 1.072-.192c.33 0 .645.048.944.144.299.096.565.23.8.4.245.16.448.357.608.592.17.235.283.496.336.784l-1.392.336a1.163 1.163 0 0 0-.416-.64c-.213-.17-.507-.256-.88-.256-.128 0-.261.021-.4.064a1.22 1.22 0 0 0-.688.432.626.626 0 0 0-.112.368c0 .15.043.277.128.384.096.107.208.197.336.272.128.064.267.117.416.16.15.043.288.08.416.112a9.21 9.21 0 0 1 1.408.448c.373.16.672.336.896.528.224.192.379.405.464.64.096.224.144.48.144.768 0 .341-.08.661-.24.96-.15.299-.363.56-.64.784a3.132 3.132 0 0 1-.976.512 4.038 4.038 0 0 1-1.216.176c-.661 0-1.253-.16-1.776-.48-.512-.33-.859-.768-1.04-1.312l1.312-.592c.17.373.39.63.656.768.267.128.57.192.912.192.427 0 .784-.117 1.072-.352z" fill="url(#eswzin7gya)"/>
        <path d="M75.569 27.454a3.752 3.752 0 0 1-1.504-.304 4.075 4.075 0 0 1-1.216-.864 4.17 4.17 0 0 1-1.12-2.848 4.17 4.17 0 0 1 1.12-2.848 3.846 3.846 0 0 1 1.216-.848c.47-.213.97-.32 1.504-.32.619 0 1.19.139 1.712.416.523.277.96.656 1.312 1.136l-1.088.848a2.208 2.208 0 0 0-.816-.72 2.075 2.075 0 0 0-1.04-.272c-.32 0-.624.07-.912.208a2.23 2.23 0 0 0-.752.544 2.732 2.732 0 0 0-.512.832c-.117.32-.176.661-.176 1.024s.059.704.176 1.024c.128.32.299.603.512.848.213.235.464.421.752.56.288.139.592.208.912.208.416 0 .795-.112 1.136-.336.341-.224.619-.523.832-.896l1.056.928a3.872 3.872 0 0 1-1.328 1.232 3.63 3.63 0 0 1-1.776.448z" fill="#01AFA5"/>
        <path d="M75.569 27.454a3.752 3.752 0 0 1-1.504-.304 4.075 4.075 0 0 1-1.216-.864 4.17 4.17 0 0 1-1.12-2.848 4.17 4.17 0 0 1 1.12-2.848 3.846 3.846 0 0 1 1.216-.848c.47-.213.97-.32 1.504-.32.619 0 1.19.139 1.712.416.523.277.96.656 1.312 1.136l-1.088.848a2.208 2.208 0 0 0-.816-.72 2.075 2.075 0 0 0-1.04-.272c-.32 0-.624.07-.912.208a2.23 2.23 0 0 0-.752.544 2.732 2.732 0 0 0-.512.832c-.117.32-.176.661-.176 1.024s.059.704.176 1.024c.128.32.299.603.512.848.213.235.464.421.752.56.288.139.592.208.912.208.416 0 .795-.112 1.136-.336.341-.224.619-.523.832-.896l1.056.928a3.872 3.872 0 0 1-1.328 1.232 3.63 3.63 0 0 1-1.776.448z" fill="url(#9sc3opcayb)"/>
        <path d="M87.438 19.598v7.664h-1.312l-.24-.88a2.528 2.528 0 0 1-1.024.8 3.137 3.137 0 0 1-1.264.272 3.752 3.752 0 0 1-1.504-.304 4.075 4.075 0 0 1-1.216-.864 4.17 4.17 0 0 1-1.12-2.848 4.17 4.17 0 0 1 1.12-2.848 3.846 3.846 0 0 1 1.216-.848c.47-.213.97-.32 1.504-.32.427 0 .837.085 1.232.256.395.16.747.416 1.056.768l.24-.848h1.312zm-3.84 6.48c.31 0 .603-.07.88-.208.277-.139.517-.325.72-.56a2.952 2.952 0 0 0 .656-1.872c0-.363-.059-.704-.176-1.024a2.658 2.658 0 0 0-.48-.832 2.207 2.207 0 0 0-.72-.576 1.941 1.941 0 0 0-.88-.208c-.31 0-.603.07-.88.208-.277.139-.517.33-.72.576a2.658 2.658 0 0 0-.48.832c-.117.32-.176.661-.176 1.024a2.952 2.952 0 0 0 .656 1.872c.203.235.443.421.72.56.277.139.57.208.88.208z" fill="#01AFA5"/>
        <path d="M87.438 19.598v7.664h-1.312l-.24-.88a2.528 2.528 0 0 1-1.024.8 3.137 3.137 0 0 1-1.264.272 3.752 3.752 0 0 1-1.504-.304 4.075 4.075 0 0 1-1.216-.864 4.17 4.17 0 0 1-1.12-2.848 4.17 4.17 0 0 1 1.12-2.848 3.846 3.846 0 0 1 1.216-.848c.47-.213.97-.32 1.504-.32.427 0 .837.085 1.232.256.395.16.747.416 1.056.768l.24-.848h1.312zm-3.84 6.48c.31 0 .603-.07.88-.208.277-.139.517-.325.72-.56a2.952 2.952 0 0 0 .656-1.872c0-.363-.059-.704-.176-1.024a2.658 2.658 0 0 0-.48-.832 2.207 2.207 0 0 0-.72-.576 1.941 1.941 0 0 0-.88-.208c-.31 0-.603.07-.88.208-.277.139-.517.33-.72.576a2.658 2.658 0 0 0-.48.832c-.117.32-.176.661-.176 1.024a2.952 2.952 0 0 0 .656 1.872c.203.235.443.421.72.56.277.139.57.208.88.208z" fill="url(#wshryuw3cc)"/>
        <path d="M90.538 27.262h-1.552v-7.664h1.232l.32.672c.256-.245.565-.448.928-.608a2.9 2.9 0 0 1 1.184-.24c.277 0 .592.043.944.128s.677.245.976.48c.31.235.565.56.768.976.213.416.32.955.32 1.616v4.64h-1.472v-4.656c0-.33-.054-.608-.16-.832a1.374 1.374 0 0 0-.4-.56 1.336 1.336 0 0 0-.56-.288 2.113 2.113 0 0 0-.64-.096c-.17 0-.368.032-.592.096-.214.064-.416.17-.608.32a1.88 1.88 0 0 0-.496.544c-.128.213-.192.48-.192.8v4.672z" fill="#01AFA5"/>
        <path d="M90.538 27.262h-1.552v-7.664h1.232l.32.672c.256-.245.565-.448.928-.608a2.9 2.9 0 0 1 1.184-.24c.277 0 .592.043.944.128s.677.245.976.48c.31.235.565.56.768.976.213.416.32.955.32 1.616v4.64h-1.472v-4.656c0-.33-.054-.608-.16-.832a1.374 1.374 0 0 0-.4-.56 1.336 1.336 0 0 0-.56-.288 2.113 2.113 0 0 0-.64-.096c-.17 0-.368.032-.592.096-.214.064-.416.17-.608.32a1.88 1.88 0 0 0-.496.544c-.128.213-.192.48-.192.8v4.672z" fill="url(#4qv0gosvzd)"/>
    </mask>
    <g mask="url(#1r9ynagsle)">
        <path d="M7.942 20.498c0 .887.266 1.57.798 2.052.557.481 1.28.722 2.166.722.71 0 1.419-.14 2.128-.418v4.408c-.633.203-1.305.367-2.014.494a10.13 10.13 0 0 1-2.128.228c-.81 0-1.583-.101-2.318-.304a5.267 5.267 0 0 1-1.976-1.026c-.583-.507-1.051-1.165-1.406-1.976-.33-.836-.494-1.862-.494-3.078v-8.512H0V9.554l2.698-1.14V4.196h5.244v4.218h5.092v4.674H7.942v7.41zM24.807 7.882a9.21 9.21 0 0 1 3.8.798 9.472 9.472 0 0 1 3.116 2.128 9.663 9.663 0 0 1 2.09 3.154 9.3 9.3 0 0 1 .798 3.838c0 1.368-.266 2.66-.798 3.876a10.228 10.228 0 0 1-2.09 3.154 10.308 10.308 0 0 1-3.116 2.128 9.603 9.603 0 0 1-3.8.76c-1.368 0-2.647-.253-3.838-.76a10.305 10.305 0 0 1-3.116-2.128 10.81 10.81 0 0 1-2.128-3.154 9.975 9.975 0 0 1-.76-3.876c0-1.368.253-2.647.76-3.838a10.178 10.178 0 0 1 2.128-3.154 9.47 9.47 0 0 1 3.116-2.128 9.3 9.3 0 0 1 3.838-.798zm0 15.238c.633 0 1.216-.127 1.748-.38a4.54 4.54 0 0 0 1.444-1.026c.43-.456.76-.988.988-1.596a5.58 5.58 0 0 0 .38-2.09c0-.76-.127-1.47-.38-2.128a4.969 4.969 0 0 0-.988-1.71 4.296 4.296 0 0 0-1.444-1.178 3.462 3.462 0 0 0-1.748-.456c-.633 0-1.229.152-1.786.456a4.689 4.689 0 0 0-1.482 1.178 5.934 5.934 0 0 0-.988 1.71 6.462 6.462 0 0 0-.342 2.128c0 .76.114 1.457.342 2.09.253.608.583 1.14.988 1.596.43.43.924.773 1.482 1.026.557.253 1.152.38 1.786.38zM49.325 17.382c1.393.988 2.09 2.394 2.09 4.218 0 .836-.203 1.621-.608 2.356a6.11 6.11 0 0 1-1.596 1.938c-.684.557-1.482 1-2.394 1.33a9.195 9.195 0 0 1-2.926.456 8.957 8.957 0 0 1-2.318-.304 9.174 9.174 0 0 1-2.052-.836 7.599 7.599 0 0 1-1.672-1.254 5.232 5.232 0 0 1-1.026-1.672 187.85 187.85 0 0 1 1.938-.912c.71-.355 1.33-.671 1.862-.95.228.38.583.735 1.064 1.064.482.304 1.14.456 1.976.456.862 0 1.495-.203 1.9-.608.405-.405.608-.785.608-1.14 0-.253-.14-.481-.418-.684a3.171 3.171 0 0 0-.95-.532c-.506-.203-.924-.304-1.254-.304a5.645 5.645 0 0 1-1.14-.228c-1.368-.33-2.42-.76-3.154-1.292-.71-.557-1.229-1.115-1.558-1.672-.33-.557-.52-1.09-.57-1.596A25.62 25.62 0 0 1 37.09 14c0-.81.178-1.583.532-2.318a5.914 5.914 0 0 1 1.444-1.9c.634-.557 1.355-1 2.166-1.33a7.191 7.191 0 0 1 2.66-.494 7.282 7.282 0 0 1 4.18 1.292 6.178 6.178 0 0 1 1.482 1.444c.43.557.748 1.178.95 1.862l-4.066 1.368c-.152-.456-.468-.823-.95-1.102a2.79 2.79 0 0 0-1.482-.418c-.532 0-.963.177-1.292.532-.33.355-.494.71-.494 1.064 0 .43.152.773.456 1.026.33.228.684.393 1.064.494.279.05.545.101.798.152.279.025.545.063.798.114.887.203 1.647.43 2.28.684a7.258 7.258 0 0 1 1.71.912zM59.903 27.262h-5.244V8.414h5.244v18.848zM57.28 5.83c-.81 0-1.495-.279-2.052-.836-.557-.557-.836-1.241-.836-2.052 0-.81.279-1.495.836-2.052A2.73 2.73 0 0 1 57.28.016c.81 0 1.495.291 2.052.874.557.557.836 1.241.836 2.052 0 .81-.279 1.495-.836 2.052-.557.557-1.241.836-2.052.836z" fill="#212B36"/>
        <path d="M68.742 25.662c.096-.085.181-.181.256-.288a.626.626 0 0 0 .112-.368.563.563 0 0 0-.192-.432 1.353 1.353 0 0 0-.448-.288 2.356 2.356 0 0 0-.544-.192c-.192-.043-.352-.08-.48-.112a8.328 8.328 0 0 1-.992-.304 3.948 3.948 0 0 1-.816-.448 2.317 2.317 0 0 1-.544-.624 1.843 1.843 0 0 1-.192-.864c0-.31.075-.597.224-.864.15-.277.347-.517.592-.72a2.85 2.85 0 0 1 .88-.496 3.028 3.028 0 0 1 1.072-.192c.33 0 .645.048.944.144.299.096.565.23.8.4.245.16.448.357.608.592.17.235.283.496.336.784l-1.392.336a1.163 1.163 0 0 0-.416-.64c-.213-.17-.507-.256-.88-.256-.128 0-.261.021-.4.064a1.22 1.22 0 0 0-.688.432.626.626 0 0 0-.112.368c0 .15.043.277.128.384.096.107.208.197.336.272.128.064.267.117.416.16.15.043.288.08.416.112a9.21 9.21 0 0 1 1.408.448c.373.16.672.336.896.528.224.192.379.405.464.64.096.224.144.48.144.768 0 .341-.08.661-.24.96-.15.299-.363.56-.64.784a3.132 3.132 0 0 1-.976.512 4.038 4.038 0 0 1-1.216.176c-.661 0-1.253-.16-1.776-.48-.512-.33-.859-.768-1.04-1.312l1.312-.592c.17.373.39.63.656.768.267.128.57.192.912.192.427 0 .784-.117 1.072-.352z" fill="#01AFA5"/>
        <path d="M68.742 25.662c.096-.085.181-.181.256-.288a.626.626 0 0 0 .112-.368.563.563 0 0 0-.192-.432 1.353 1.353 0 0 0-.448-.288 2.356 2.356 0 0 0-.544-.192c-.192-.043-.352-.08-.48-.112a8.328 8.328 0 0 1-.992-.304 3.948 3.948 0 0 1-.816-.448 2.317 2.317 0 0 1-.544-.624 1.843 1.843 0 0 1-.192-.864c0-.31.075-.597.224-.864.15-.277.347-.517.592-.72a2.85 2.85 0 0 1 .88-.496 3.028 3.028 0 0 1 1.072-.192c.33 0 .645.048.944.144.299.096.565.23.8.4.245.16.448.357.608.592.17.235.283.496.336.784l-1.392.336a1.163 1.163 0 0 0-.416-.64c-.213-.17-.507-.256-.88-.256-.128 0-.261.021-.4.064a1.22 1.22 0 0 0-.688.432.626.626 0 0 0-.112.368c0 .15.043.277.128.384.096.107.208.197.336.272.128.064.267.117.416.16.15.043.288.08.416.112a9.21 9.21 0 0 1 1.408.448c.373.16.672.336.896.528.224.192.379.405.464.64.096.224.144.48.144.768 0 .341-.08.661-.24.96-.15.299-.363.56-.64.784a3.132 3.132 0 0 1-.976.512 4.038 4.038 0 0 1-1.216.176c-.661 0-1.253-.16-1.776-.48-.512-.33-.859-.768-1.04-1.312l1.312-.592c.17.373.39.63.656.768.267.128.57.192.912.192.427 0 .784-.117 1.072-.352z" fill="url(#604nbsj8bf)"/>
        <path d="M75.569 27.454a3.752 3.752 0 0 1-1.504-.304 4.075 4.075 0 0 1-1.216-.864 4.17 4.17 0 0 1-1.12-2.848 4.17 4.17 0 0 1 1.12-2.848 3.846 3.846 0 0 1 1.216-.848c.47-.213.97-.32 1.504-.32.619 0 1.19.139 1.712.416.523.277.96.656 1.312 1.136l-1.088.848a2.208 2.208 0 0 0-.816-.72 2.075 2.075 0 0 0-1.04-.272c-.32 0-.624.07-.912.208a2.23 2.23 0 0 0-.752.544 2.732 2.732 0 0 0-.512.832c-.117.32-.176.661-.176 1.024s.059.704.176 1.024c.128.32.299.603.512.848.213.235.464.421.752.56.288.139.592.208.912.208.416 0 .795-.112 1.136-.336.341-.224.619-.523.832-.896l1.056.928a3.872 3.872 0 0 1-1.328 1.232 3.63 3.63 0 0 1-1.776.448z" fill="#01AFA5"/>
        <path d="M75.569 27.454a3.752 3.752 0 0 1-1.504-.304 4.075 4.075 0 0 1-1.216-.864 4.17 4.17 0 0 1-1.12-2.848 4.17 4.17 0 0 1 1.12-2.848 3.846 3.846 0 0 1 1.216-.848c.47-.213.97-.32 1.504-.32.619 0 1.19.139 1.712.416.523.277.96.656 1.312 1.136l-1.088.848a2.208 2.208 0 0 0-.816-.72 2.075 2.075 0 0 0-1.04-.272c-.32 0-.624.07-.912.208a2.23 2.23 0 0 0-.752.544 2.732 2.732 0 0 0-.512.832c-.117.32-.176.661-.176 1.024s.059.704.176 1.024c.128.32.299.603.512.848.213.235.464.421.752.56.288.139.592.208.912.208.416 0 .795-.112 1.136-.336.341-.224.619-.523.832-.896l1.056.928a3.872 3.872 0 0 1-1.328 1.232 3.63 3.63 0 0 1-1.776.448z" fill="url(#fyeche6ckg)"/>
        <path d="M87.438 19.598v7.664h-1.312l-.24-.88a2.528 2.528 0 0 1-1.024.8 3.137 3.137 0 0 1-1.264.272 3.752 3.752 0 0 1-1.504-.304 4.075 4.075 0 0 1-1.216-.864 4.17 4.17 0 0 1-1.12-2.848 4.17 4.17 0 0 1 1.12-2.848 3.846 3.846 0 0 1 1.216-.848c.47-.213.97-.32 1.504-.32.427 0 .837.085 1.232.256.395.16.747.416 1.056.768l.24-.848h1.312zm-3.84 6.48c.31 0 .603-.07.88-.208.277-.139.517-.325.72-.56a2.952 2.952 0 0 0 .656-1.872c0-.363-.059-.704-.176-1.024a2.658 2.658 0 0 0-.48-.832 2.207 2.207 0 0 0-.72-.576 1.941 1.941 0 0 0-.88-.208c-.31 0-.603.07-.88.208-.277.139-.517.33-.72.576a2.658 2.658 0 0 0-.48.832c-.117.32-.176.661-.176 1.024a2.952 2.952 0 0 0 .656 1.872c.203.235.443.421.72.56.277.139.57.208.88.208z" fill="#01AFA5"/>
        <path d="M87.438 19.598v7.664h-1.312l-.24-.88a2.528 2.528 0 0 1-1.024.8 3.137 3.137 0 0 1-1.264.272 3.752 3.752 0 0 1-1.504-.304 4.075 4.075 0 0 1-1.216-.864 4.17 4.17 0 0 1-1.12-2.848 4.17 4.17 0 0 1 1.12-2.848 3.846 3.846 0 0 1 1.216-.848c.47-.213.97-.32 1.504-.32.427 0 .837.085 1.232.256.395.16.747.416 1.056.768l.24-.848h1.312zm-3.84 6.48c.31 0 .603-.07.88-.208.277-.139.517-.325.72-.56a2.952 2.952 0 0 0 .656-1.872c0-.363-.059-.704-.176-1.024a2.658 2.658 0 0 0-.48-.832 2.207 2.207 0 0 0-.72-.576 1.941 1.941 0 0 0-.88-.208c-.31 0-.603.07-.88.208-.277.139-.517.33-.72.576a2.658 2.658 0 0 0-.48.832c-.117.32-.176.661-.176 1.024a2.952 2.952 0 0 0 .656 1.872c.203.235.443.421.72.56.277.139.57.208.88.208z" fill="url(#5wceogkdwh)"/>
        <path d="M90.538 27.262h-1.552v-7.664h1.232l.32.672c.256-.245.565-.448.928-.608a2.9 2.9 0 0 1 1.184-.24c.277 0 .592.043.944.128s.677.245.976.48c.31.235.565.56.768.976.213.416.32.955.32 1.616v4.64h-1.472v-4.656c0-.33-.054-.608-.16-.832a1.374 1.374 0 0 0-.4-.56 1.336 1.336 0 0 0-.56-.288 2.113 2.113 0 0 0-.64-.096c-.17 0-.368.032-.592.096-.214.064-.416.17-.608.32a1.88 1.88 0 0 0-.496.544c-.128.213-.192.48-.192.8v4.672z" fill="#01AFA5"/>
        <path d="M90.538 27.262h-1.552v-7.664h1.232l.32.672c.256-.245.565-.448.928-.608a2.9 2.9 0 0 1 1.184-.24c.277 0 .592.043.944.128s.677.245.976.48c.31.235.565.56.768.976.213.416.32.955.32 1.616v4.64h-1.472v-4.656c0-.33-.054-.608-.16-.832a1.374 1.374 0 0 0-.4-.56 1.336 1.336 0 0 0-.56-.288 2.113 2.113 0 0 0-.64-.096c-.17 0-.368.032-.592.096-.214.064-.416.17-.608.32a1.88 1.88 0 0 0-.496.544c-.128.213-.192.48-.192.8v4.672z" fill="url(#umk3candci)"/>
        <circle cx="57.278" cy="3.262" r="4" fill="#22B477"/>
    </g>
    <defs>
        <linearGradient id="eswzin7gya" x1="64.278" y1="29.262" x2="99.02" y2="22.914" gradientUnits="userSpaceOnUse">
            <stop stop-color="#07939C"/>
            <stop offset="1" stop-color="#24B871"/>
        </linearGradient>
        <linearGradient id="9sc3opcayb" x1="64.278" y1="29.262" x2="99.02" y2="22.914" gradientUnits="userSpaceOnUse">
            <stop stop-color="#07939C"/>
            <stop offset="1" stop-color="#24B871"/>
        </linearGradient>
        <linearGradient id="wshryuw3cc" x1="64.278" y1="29.262" x2="99.02" y2="22.914" gradientUnits="userSpaceOnUse">
            <stop stop-color="#07939C"/>
            <stop offset="1" stop-color="#24B871"/>
        </linearGradient>
        <linearGradient id="4qv0gosvzd" x1="64.278" y1="29.262" x2="99.02" y2="22.914" gradientUnits="userSpaceOnUse">
            <stop stop-color="#07939C"/>
            <stop offset="1" stop-color="#24B871"/>
        </linearGradient>
        <linearGradient id="604nbsj8bf" x1="64.278" y1="29.262" x2="99.02" y2="22.914" gradientUnits="userSpaceOnUse">
            <stop stop-color="#07939C"/>
            <stop offset="1" stop-color="#24B871"/>
        </linearGradient>
        <linearGradient id="fyeche6ckg" x1="64.278" y1="29.262" x2="99.02" y2="22.914" gradientUnits="userSpaceOnUse">
            <stop stop-color="#07939C"/>
            <stop offset="1" stop-color="#24B871"/>
        </linearGradient>
        <linearGradient id="5wceogkdwh" x1="64.278" y1="29.262" x2="99.02" y2="22.914" gradientUnits="userSpaceOnUse">
            <stop stop-color="#07939C"/>
            <stop offset="1" stop-color="#24B871"/>
        </linearGradient>
        <linearGradient id="umk3candci" x1="64.278" y1="29.262" x2="99.02" y2="22.914" gradientUnits="userSpaceOnUse">
            <stop stop-color="#07939C"/>
            <stop offset="1" stop-color="#24B871"/>
        </linearGradient>
    </defs>
</svg>
