<svg width="196" height="56" viewBox="0 0 196 56" fill="none" xmlns="http://www.w3.org/2000/svg">
<g clip-path="url(#clip0_284_2034)">
<path d="M20.8079 44.354H24.7251V50.8399H19.4593C16.9335 50.8399 14.7501 50.3475 12.9092 49.3629C11.0683 48.3782 9.65554 46.9654 8.67088 45.1246C7.68622 43.2409 7.19389 41.0361 7.19389 38.5102V22.2633H0.964844V20.9148L13.0376 8.07138H14.2578V16.1627H24.5325V22.2633H14.322V37.9323C14.322 39.9872 14.8785 41.5712 15.9916 42.6843C17.1047 43.7974 18.7101 44.354 20.8079 44.354Z" fill="white"/>
<path d="M76.9987 51.6747C72.7604 51.6747 69.3569 50.6044 66.7882 48.4638C64.2196 46.3233 62.8924 43.4549 62.8068 39.8588H69.8064C69.8921 41.614 70.5984 42.984 71.9256 43.9687C73.2955 44.9105 75.0722 45.3814 77.2556 45.3814C78.5399 45.3814 79.6744 45.2102 80.6591 44.8677C81.6866 44.5252 82.5 44.0115 83.0993 43.3265C83.6987 42.6415 83.9984 41.8281 83.9984 40.8862C83.9984 40.2441 83.8485 39.6875 83.5489 39.2166C83.2492 38.7029 82.8853 38.2962 82.4572 37.9965C82.0291 37.6968 81.4083 37.4185 80.5949 37.1617C79.8243 36.9048 79.1179 36.7121 78.4757 36.5837C77.8764 36.4553 77.0629 36.3054 76.0355 36.1342C74.9652 35.9629 74.109 35.8131 73.4668 35.6847C72.8246 35.5562 72.0112 35.3636 71.0265 35.1067C70.0419 34.807 69.2285 34.5074 68.5863 34.2077C67.9869 33.8652 67.3234 33.4371 66.5956 32.9233C65.8678 32.4096 65.2898 31.8316 64.8617 31.1895C64.4764 30.5473 64.1339 29.7767 63.8343 28.8777C63.5774 27.9358 63.4489 26.9084 63.4489 25.7953C63.4489 22.67 64.6691 20.1442 67.1093 18.2177C69.5924 16.2911 72.846 15.3279 76.8703 15.3279C80.8946 15.3279 84.1268 16.334 86.5671 18.3461C89.0073 20.3582 90.2488 23.0553 90.2916 26.4374H83.5489C83.5061 24.8106 82.8853 23.5691 81.6866 22.7128C80.4879 21.8138 78.8396 21.3643 76.7419 21.3643C74.7725 21.3643 73.2099 21.7496 72.054 22.5202C70.8981 23.2908 70.3202 24.2969 70.3202 25.5384C70.3202 26.0521 70.4058 26.5016 70.577 26.8869C70.7483 27.2722 71.0266 27.6147 71.4119 27.9144C71.84 28.2141 72.2253 28.471 72.5678 28.685C72.9531 28.8563 73.5096 29.0275 74.2374 29.1988C74.9652 29.37 75.5645 29.4984 76.0355 29.5841C76.5064 29.6697 77.1914 29.7767 78.0904 29.9051C79.2463 30.1192 80.1025 30.2904 80.6591 30.4189C81.2585 30.5045 82.0933 30.6971 83.1636 30.9968C84.2338 31.2537 85.0687 31.532 85.668 31.8317C86.2674 32.1313 86.9524 32.5594 87.723 33.116C88.5364 33.6297 89.1357 34.2291 89.521 34.9141C89.9491 35.5562 90.313 36.3696 90.6127 37.3543C90.9124 38.339 91.0622 39.4093 91.0622 40.5652C91.0622 43.9472 89.7779 46.6444 87.2092 48.6565C84.6405 50.6686 81.237 51.6747 76.9987 51.6747Z" fill="white"/>
<path d="M94.0534 10.7685V3.44775H101.438V10.7685H94.0534ZM94.1818 50.8399V16.1627H101.31V50.8399H94.1818Z" fill="white"/>
<path fill-rule="evenodd" clip-rule="evenodd" d="M33.5375 42.2274L33.5416 42.2274C33.5416 47.5444 37.8519 51.8547 43.1689 51.8547C48.4859 51.8547 52.7962 47.5444 52.7962 42.2274C58.1128 42.2269 62.4226 37.9168 62.4226 32.6001C62.4226 27.2834 58.1128 22.9733 52.7962 22.9728C52.7962 17.6558 48.4859 13.3455 43.1689 13.3455C37.8519 13.3455 33.5416 17.6558 33.5416 22.9728L33.5375 22.9728C28.2205 22.9728 23.9102 27.2831 23.9102 32.6001C23.9102 37.9171 28.2205 42.2274 33.5375 42.2274ZM34.7348 24.5178C33.4336 25.9535 33.4336 28.1691 33.4336 32.6002C33.4336 37.0313 33.4336 39.2469 34.7348 40.6825C34.8452 40.8043 34.9615 40.9206 35.0833 41.031C36.5189 42.3322 38.7345 42.3322 43.1656 42.3322C47.5967 42.3322 49.8123 42.3322 51.248 41.031C51.3697 40.9206 51.486 40.8043 51.5964 40.6825C52.8977 39.2469 52.8977 37.0313 52.8977 32.6002C52.8977 28.1691 52.8977 25.9535 51.5964 24.5178C51.486 24.3961 51.3697 24.2798 51.248 24.1694C49.8123 22.8681 47.5967 22.8681 43.1656 22.8681C38.7345 22.8681 36.5189 22.8681 35.0833 24.1694C34.9615 24.2798 34.8452 24.3961 34.7348 24.5178Z" fill="url(#paint0_linear_284_2034)"/>
<path fill-rule="evenodd" clip-rule="evenodd" d="M109 33.5869C109 23.8739 116.874 16 126.587 16H176.847C186.56 16 194.434 23.8739 194.434 33.5869C194.434 43.2999 186.56 51.1738 176.847 51.1738H126.587C116.874 51.1738 109 43.2999 109 33.5869ZM126.587 18.1538C118.063 18.1538 111.154 25.0634 111.154 33.5869C111.154 42.1104 118.063 49.02 126.587 49.02H176.847C185.37 49.02 192.28 42.1104 192.28 33.5869C192.28 25.0634 185.37 18.1538 176.847 18.1538H126.587Z" fill="url(#paint1_linear_284_2034)"/>
<path d="M128.75 40.7847C127.071 40.7847 125.723 40.3608 124.706 39.513C123.688 38.6652 123.163 37.5292 123.129 36.1049H125.901C125.935 36.8001 126.215 37.3427 126.741 37.7326C127.283 38.1057 127.987 38.2922 128.852 38.2922C129.36 38.2922 129.81 38.2244 130.2 38.0887C130.606 37.9531 130.929 37.7496 131.166 37.4783C131.403 37.207 131.522 36.8848 131.522 36.5118C131.522 36.2575 131.463 36.0371 131.344 35.8505C131.225 35.6471 131.081 35.486 130.912 35.3673C130.742 35.2486 130.496 35.1384 130.174 35.0367C129.869 34.9349 129.589 34.8586 129.335 34.8078C129.097 34.7569 128.775 34.6975 128.368 34.6297C127.944 34.5619 127.605 34.5025 127.351 34.4517C127.097 34.4008 126.774 34.3245 126.384 34.2228C125.994 34.1041 125.672 33.9854 125.418 33.8667C125.181 33.7311 124.918 33.5615 124.63 33.358C124.341 33.1546 124.112 32.9257 123.943 32.6713C123.79 32.417 123.655 32.1118 123.536 31.7557C123.434 31.3827 123.383 30.9757 123.383 30.5349C123.383 29.2971 123.866 28.2967 124.833 27.5337C125.816 26.7707 127.105 26.3892 128.699 26.3892C130.293 26.3892 131.573 26.7876 132.539 27.5845C133.506 28.3815 133.998 29.4497 134.015 30.7892H131.344C131.327 30.1449 131.081 29.6532 130.606 29.314C130.132 28.958 129.479 28.7799 128.648 28.7799C127.868 28.7799 127.249 28.9325 126.791 29.2377C126.334 29.543 126.105 29.9414 126.105 30.4331C126.105 30.6366 126.139 30.8146 126.206 30.9672C126.274 31.1198 126.384 31.2555 126.537 31.3742C126.707 31.4929 126.859 31.5946 126.995 31.6794C127.147 31.7472 127.368 31.815 127.656 31.8829C127.944 31.9507 128.182 32.0016 128.368 32.0355C128.555 32.0694 128.826 32.1118 129.182 32.1626C129.64 32.2474 129.979 32.3152 130.2 32.3661C130.437 32.4 130.768 32.4763 131.191 32.595C131.615 32.6967 131.946 32.807 132.183 32.9257C132.421 33.0443 132.692 33.2139 132.997 33.4343C133.319 33.6378 133.557 33.8752 133.709 34.1465C133.879 34.4008 134.023 34.723 134.142 35.113C134.26 35.5029 134.32 35.9268 134.32 36.3846C134.32 37.7242 133.811 38.7924 132.794 39.5893C131.776 40.3862 130.428 40.7847 128.75 40.7847Z" fill="white"/>
<path d="M142.499 40.7847C140.464 40.7847 138.751 40.098 137.361 38.7246C135.988 37.3342 135.301 35.6216 135.301 33.5869C135.301 31.5353 135.988 29.8227 137.361 28.4493C138.751 27.0759 140.473 26.3892 142.524 26.3892C144.203 26.3892 145.661 26.8639 146.899 27.8135C148.137 28.763 148.942 30.0262 149.315 31.6031H146.517C146.161 30.8231 145.627 30.2127 144.915 29.7719C144.203 29.314 143.397 29.0851 142.499 29.0851C141.702 29.0851 140.973 29.2801 140.311 29.6701C139.65 30.0601 139.125 30.6027 138.735 31.2979C138.362 31.9761 138.175 32.7391 138.175 33.5869C138.175 34.8586 138.59 35.9268 139.421 36.7916C140.252 37.6563 141.278 38.0887 142.499 38.0887C143.397 38.0887 144.194 37.8598 144.89 37.402C145.602 36.9442 146.144 36.2914 146.517 35.4436H149.366C148.976 37.0544 148.154 38.3515 146.899 39.335C145.661 40.3015 144.194 40.7847 142.499 40.7847Z" fill="white"/>
<path d="M162.619 26.7198H164.806V40.4541H162.517L162.237 38.7754C160.915 40.1149 159.261 40.7847 157.278 40.7847C155.226 40.7847 153.513 40.098 152.14 38.7246C150.783 37.3511 150.105 35.6386 150.105 33.5869C150.105 31.5183 150.783 29.8058 152.14 28.4493C153.513 27.0759 155.226 26.3892 157.278 26.3892C159.295 26.3892 160.965 27.0674 162.288 28.4239L162.619 26.7198ZM154.251 36.817C155.116 37.6648 156.192 38.0887 157.481 38.0887C158.787 38.0887 159.855 37.6648 160.686 36.817C161.534 35.9523 161.957 34.8756 161.957 33.5869C161.957 32.2813 161.534 31.2046 160.686 30.3568C159.855 29.509 158.787 29.0851 157.481 29.0851C156.633 29.0851 155.862 29.2801 155.167 29.6701C154.488 30.0601 153.954 30.6027 153.564 31.2979C153.174 31.9761 152.979 32.7391 152.979 33.5869C152.979 34.8756 153.403 35.9523 154.251 36.817Z" fill="white"/>
<path d="M175.089 26.4146C176.682 26.4146 177.946 26.9487 178.878 28.0169C179.828 29.0851 180.303 30.4755 180.303 32.1881V40.4541H177.479V32.7476C177.479 31.5098 177.208 30.5688 176.665 29.9245C176.14 29.2632 175.36 28.9325 174.326 28.9325C173.257 28.9325 172.376 29.3225 171.68 30.1025C170.985 30.8825 170.638 31.8829 170.638 33.1037V40.4541H167.815V26.7198H169.773L170.332 28.6273C170.858 27.9321 171.528 27.3896 172.342 26.9996C173.173 26.6096 174.088 26.4146 175.089 26.4146Z" fill="white"/>
</g>
<defs>
<linearGradient id="paint0_linear_284_2034" x1="53.0119" y1="19.092" x2="23.8635" y2="51.7705" gradientUnits="userSpaceOnUse">
<stop stop-color="#D4EF33"/>
<stop offset="1" stop-color="#00D1FF"/>
</linearGradient>
<linearGradient id="paint1_linear_284_2034" x1="173.558" y1="21.2488" x2="156.213" y2="68.4745" gradientUnits="userSpaceOnUse">
<stop stop-color="#D4EF33"/>
<stop offset="1" stop-color="#00D1FF"/>
</linearGradient>
<clipPath id="clip0_284_2034">
<rect width="196" height="56" fill="white"/>
</clipPath>
</defs>
</svg>
