<svg width="206" height="61" viewBox="0 0 206 61" fill="none" xmlns="http://www.w3.org/2000/svg">
<g clip-path="url(#clip0_304_45585)">
<path d="M22.7794 47.3691H26.8707V54.1432H21.3709C18.7328 54.1432 16.4525 53.629 14.5298 52.6006C12.6071 51.5721 11.1315 50.0966 10.1031 48.1739C9.07472 46.2065 8.56051 43.9038 8.56051 41.2657V24.2969H2.05469V22.8884L14.6639 9.47433H15.9382V17.9252H26.6695V24.2969H16.0053V40.662C16.0053 42.8083 16.5866 44.4627 17.7491 45.6252C18.9117 46.7878 20.5885 47.3691 22.7794 47.3691Z" fill="#081010"/>
<path d="M81.467 55.0151C77.0404 55.0151 73.4857 53.8973 70.8028 51.6616C68.12 49.4259 66.7339 46.4301 66.6445 42.6741H73.9551C74.0446 44.5074 74.7823 45.9382 76.1685 46.9666C77.5993 47.9503 79.4549 48.4422 81.7353 48.4422C83.0767 48.4422 84.2616 48.2633 85.29 47.9056C86.3632 47.5479 87.2127 47.0114 87.8387 46.2959C88.4647 45.5805 88.7777 44.731 88.7777 43.7473C88.7777 43.0766 88.6212 42.4953 88.3082 42.0034C87.9952 41.4669 87.6151 41.0421 87.168 40.7291C86.7209 40.4161 86.0725 40.1255 85.223 39.8572C84.4181 39.5889 83.6804 39.3877 83.0096 39.2536C82.3837 39.1194 81.5341 38.9629 80.461 38.7841C79.3431 38.6052 78.4489 38.4487 77.7782 38.3146C77.1075 38.1804 76.2579 37.9792 75.2295 37.7109C74.2011 37.3979 73.3515 37.085 72.6808 36.772C72.0548 36.4142 71.3618 35.9671 70.6016 35.4306C69.8415 34.894 69.2379 34.2904 68.7907 33.6196C68.3883 32.9489 68.0306 32.1441 67.7176 31.2051C67.4493 30.2214 67.3152 29.1483 67.3152 27.9857C67.3152 24.7217 68.5895 22.0836 71.1382 20.0714C73.7316 18.0593 77.1298 17.0533 81.3329 17.0533C85.536 17.0533 88.9118 18.104 91.4605 20.2056C94.0092 22.3071 95.3059 25.1241 95.3506 28.6564H88.3082C88.2635 26.9573 87.6151 25.6606 86.3632 24.7664C85.1112 23.8274 83.3897 23.3579 81.1987 23.3579C79.1419 23.3579 77.5099 23.7603 76.3026 24.5652C75.0953 25.37 74.4917 26.4208 74.4917 27.7175C74.4917 28.254 74.5811 28.7235 74.76 29.1259C74.9388 29.5284 75.2295 29.8861 75.6319 30.1991C76.079 30.5121 76.4815 30.7803 76.8392 31.0039C77.2416 31.1828 77.8229 31.3616 78.583 31.5405C79.3431 31.7193 79.9691 31.8535 80.461 31.9429C80.9528 32.0323 81.6682 32.1441 82.6072 32.2782C83.8145 32.5018 84.7088 32.6807 85.29 32.8148C85.916 32.9042 86.7879 33.1054 87.9058 33.4184C89.0236 33.6867 89.8955 33.9774 90.5215 34.2904C91.1475 34.6034 91.8629 35.0505 92.6678 35.6318C93.5173 36.1683 94.1433 36.7943 94.5457 37.5097C94.9929 38.1804 95.3729 39.03 95.6859 40.0584C95.9989 41.0868 96.1554 42.2047 96.1554 43.4119C96.1554 46.9443 94.814 49.7612 92.1312 51.8628C89.4484 53.9643 85.8937 55.0151 81.467 55.0151Z" fill="#081010"/>
<path d="M99.2794 12.2913V4.64526H106.993V12.2913H99.2794ZM99.4136 54.1432V17.9252H106.858V54.1432H99.4136Z" fill="#081010"/>
<path fill-rule="evenodd" clip-rule="evenodd" d="M36.0789 25.038C36.0789 19.4847 40.5807 14.9829 46.134 14.9829C51.6873 14.9829 56.1891 19.4847 56.1891 25.038V25.0382C61.7419 25.0387 66.2432 29.5403 66.2432 35.0933C66.2432 40.6462 61.7419 45.1479 56.1891 45.1484C56.189 50.7016 51.6872 55.2033 46.134 55.2033C40.5808 55.2033 36.079 50.7016 36.0789 45.1484L36.0746 45.1484C30.5214 45.1484 26.0195 40.6466 26.0195 35.0933C26.0195 29.54 30.5214 25.0382 36.0746 25.0382L36.0789 25.0382V25.038ZM37.3238 26.6517C35.9647 28.1511 35.9647 30.4652 35.9647 35.0932C35.9647 39.7212 35.9647 42.0352 37.3238 43.5347C37.4391 43.6619 37.5605 43.7833 37.6877 43.8986C39.1872 45.2577 41.5012 45.2577 46.1292 45.2577C50.7572 45.2577 53.0712 45.2577 54.5707 43.8986C54.6979 43.7833 54.8193 43.6619 54.9346 43.5347C56.2937 42.0352 56.2937 39.7212 56.2937 35.0932C56.2937 30.4652 56.2937 28.1511 54.9346 26.6517C54.8193 26.5245 54.6979 26.403 54.5707 26.2877C53.0712 24.9287 50.7572 24.9287 46.1292 24.9287C41.5012 24.9287 39.1872 24.9287 37.6877 26.2877C37.5605 26.403 37.4391 26.5245 37.3238 26.6517Z" fill="url(#paint0_linear_304_45585)"/>
<path fill-rule="evenodd" clip-rule="evenodd" d="M114.375 35.7971C114.375 25.6525 122.599 17.4287 132.743 17.4287H185.237C195.381 17.4287 203.605 25.6525 203.605 35.7971C203.605 45.9416 195.381 54.1654 185.237 54.1654H132.743C122.599 54.1654 114.375 45.9416 114.375 35.7971ZM132.743 19.6782C123.841 19.6782 116.624 26.8949 116.624 35.7971C116.624 44.6993 123.841 51.9159 132.743 51.9159H185.237C194.139 51.9159 201.355 44.6993 201.355 35.7971C201.355 26.8949 194.139 19.6782 185.237 19.6782H132.743Z" fill="url(#paint1_linear_304_45585)"/>
<path d="M135.003 43.3147C133.25 43.3147 131.842 42.872 130.78 41.9865C129.717 41.1011 129.168 39.9145 129.133 38.427H132.028C132.064 39.153 132.356 39.7197 132.905 40.1271C133.472 40.5167 134.207 40.7115 135.11 40.7115C135.641 40.7115 136.11 40.6406 136.518 40.4989C136.943 40.3573 137.279 40.1448 137.527 39.8614C137.775 39.5781 137.899 39.2416 137.899 38.852C137.899 38.5863 137.837 38.3561 137.713 38.1613C137.589 37.9488 137.438 37.7806 137.261 37.6566C137.084 37.5326 136.827 37.4175 136.491 37.3113C136.172 37.205 135.88 37.1253 135.614 37.0722C135.366 37.0191 135.03 36.9571 134.605 36.8863C134.162 36.8154 133.808 36.7534 133.542 36.7003C133.277 36.6472 132.94 36.5675 132.533 36.4612C132.126 36.3373 131.789 36.2133 131.524 36.0893C131.276 35.9477 131.001 35.7706 130.7 35.5581C130.399 35.3455 130.16 35.1065 129.983 34.8408C129.823 34.5752 129.682 34.2564 129.558 33.8845C129.452 33.4949 129.398 33.0699 129.398 32.6095C129.398 31.3167 129.903 30.2718 130.913 29.4749C131.94 28.678 133.286 28.2795 134.95 28.2795C136.615 28.2795 137.952 28.6957 138.961 29.528C139.971 30.3604 140.484 31.4761 140.502 32.8751H137.713C137.695 32.2021 137.438 31.6886 136.943 31.3344C136.447 30.9625 135.765 30.7765 134.897 30.7765C134.083 30.7765 133.436 30.9359 132.958 31.2547C132.48 31.5735 132.241 31.9896 132.241 32.5032C132.241 32.7157 132.276 32.9017 132.347 33.061C132.418 33.2204 132.533 33.3621 132.692 33.4861C132.869 33.61 133.029 33.7163 133.171 33.8048C133.33 33.8757 133.56 33.9465 133.861 34.0173C134.162 34.0882 134.41 34.1413 134.605 34.1767C134.8 34.2122 135.083 34.2564 135.455 34.3096C135.933 34.3981 136.287 34.4689 136.518 34.5221C136.766 34.5575 137.111 34.6372 137.554 34.7611C137.996 34.8674 138.342 34.9825 138.59 35.1065C138.838 35.2304 139.121 35.4075 139.44 35.6377C139.776 35.8503 140.024 36.0982 140.183 36.3815C140.36 36.6472 140.511 36.9837 140.635 37.391C140.759 37.7983 140.821 38.241 140.821 38.7192C140.821 40.1182 140.29 41.2339 139.227 42.0662C138.165 42.8986 136.757 43.3147 135.003 43.3147Z" fill="#081010"/>
<path d="M149.363 43.3147C147.238 43.3147 145.45 42.5975 143.997 41.163C142.563 39.7109 141.846 37.9222 141.846 35.7971C141.846 33.6543 142.563 31.8657 143.997 30.4312C145.45 28.9968 147.247 28.2795 149.39 28.2795C151.143 28.2795 152.666 28.7754 153.959 29.7671C155.252 30.7588 156.093 32.0782 156.482 33.7251H153.56C153.189 32.9105 152.631 32.273 151.887 31.8125C151.143 31.3344 150.302 31.0953 149.363 31.0953C148.531 31.0953 147.769 31.299 147.079 31.7063C146.388 32.1136 145.839 32.6803 145.432 33.4064C145.042 34.1147 144.847 34.9117 144.847 35.7971C144.847 37.1253 145.281 38.241 146.149 39.1442C147.017 40.0474 148.088 40.4989 149.363 40.4989C150.302 40.4989 151.134 40.2599 151.86 39.7817C152.604 39.3036 153.171 38.6218 153.56 37.7363H156.536C156.128 39.4187 155.269 40.7734 153.959 41.8006C152.666 42.81 151.134 43.3147 149.363 43.3147Z" fill="#081010"/>
<path d="M170.377 28.6249H172.662V42.9694H170.271L169.979 41.2162C168.597 42.6152 166.871 43.3147 164.799 43.3147C162.656 43.3147 160.867 42.5975 159.433 41.163C158.016 39.7286 157.308 37.94 157.308 35.7971C157.308 33.6366 158.016 31.848 159.433 30.4312C160.867 28.9968 162.656 28.2795 164.799 28.2795C166.906 28.2795 168.651 28.9879 170.032 30.4047L170.377 28.6249ZM161.638 39.1707C162.541 40.0562 163.665 40.4989 165.011 40.4989C166.375 40.4989 167.491 40.0562 168.358 39.1707C169.244 38.2676 169.687 37.143 169.687 35.7971C169.687 34.4335 169.244 33.309 168.358 32.4235C167.491 31.538 166.375 31.0953 165.011 31.0953C164.126 31.0953 163.32 31.299 162.594 31.7063C161.886 32.1136 161.328 32.6803 160.92 33.4064C160.513 34.1147 160.31 34.9117 160.31 35.7971C160.31 37.143 160.752 38.2676 161.638 39.1707Z" fill="#081010"/>
<path d="M183.401 28.3061C185.066 28.3061 186.385 28.8639 187.359 29.9796C188.351 31.0953 188.847 32.5475 188.847 34.3361V42.9694H185.898V34.9205C185.898 33.6277 185.615 32.6449 185.048 31.9719C184.499 31.2813 183.685 30.9359 182.604 30.9359C181.489 30.9359 180.568 31.3432 179.842 32.1579C179.116 32.9725 178.753 34.0173 178.753 35.2924V42.9694H175.804V28.6249H177.849L178.434 30.6172C178.983 29.8911 179.682 29.3244 180.532 28.9171C181.4 28.5098 182.356 28.3061 183.401 28.3061Z" fill="#081010"/>
</g>
<defs>
<linearGradient id="paint0_linear_304_45585" x1="56.4143" y1="20.9847" x2="25.9708" y2="55.1153" gradientUnits="userSpaceOnUse">
<stop stop-color="#D4EF33"/>
<stop offset="1" stop-color="#00D1FF"/>
</linearGradient>
<linearGradient id="paint1_linear_304_45585" x1="181.801" y1="22.9107" x2="163.686" y2="72.2349" gradientUnits="userSpaceOnUse">
<stop stop-color="#D4EF33"/>
<stop offset="1" stop-color="#00D1FF"/>
</linearGradient>
<clipPath id="clip0_304_45585">
<rect width="205.56" height="60.2505" fill="white"/>
</clipPath>
</defs>
</svg>
