<svg width="116" height="34" viewBox="0 0 116 34" fill="none" xmlns="http://www.w3.org/2000/svg">
<g clip-path="url(#clip0_284_2020)">
<path d="M12.5585 26.5466H14.8672V30.3693H11.7637C10.2749 30.3693 8.9881 30.0792 7.90311 29.4988C6.81811 28.9185 5.98545 28.0858 5.4051 27.0008C4.82476 25.8906 4.53459 24.5911 4.53459 23.1024V13.5267H0.863281V12.7319L7.9788 5.16223H8.69792V9.93114H14.7537V13.5267H8.73577V22.7618C8.73577 23.9729 9.06379 24.9065 9.71983 25.5626C10.3759 26.2186 11.3221 26.5466 12.5585 26.5466Z" fill="white"/>
<path d="M45.6765 30.8614C43.1785 30.8614 41.1725 30.2306 39.6586 28.9689C38.1447 27.7073 37.3625 26.0168 37.312 23.8972H41.4375C41.488 24.9318 41.9043 25.7392 42.6865 26.3195C43.4939 26.8747 44.5411 27.1522 45.8279 27.1522C46.5849 27.1522 47.2535 27.0513 47.8339 26.8494C48.4395 26.6476 48.9189 26.3448 49.2721 25.9411C49.6254 25.5373 49.802 25.0579 49.802 24.5028C49.802 24.1243 49.7137 23.7963 49.5371 23.5188C49.3604 23.216 49.146 22.9763 48.8936 22.7996C48.6413 22.623 48.2755 22.459 47.796 22.3076C47.3419 22.1562 46.9255 22.0427 46.547 21.967C46.1938 21.8913 45.7144 21.803 45.1088 21.702C44.478 21.6011 43.9733 21.5128 43.5949 21.4371C43.2164 21.3614 42.737 21.2478 42.1566 21.0965C41.5763 20.9198 41.0968 20.7432 40.7184 20.5666C40.3651 20.3647 39.974 20.1124 39.5451 19.8096C39.1161 19.5068 38.7755 19.1662 38.5231 18.7877C38.2961 18.4092 38.0942 17.955 37.9176 17.4251C37.7662 16.87 37.6905 16.2645 37.6905 15.6084C37.6905 13.7665 38.4096 12.2777 39.8478 11.1423C41.3113 10.0068 43.229 9.43911 45.6008 9.43911C47.9727 9.43911 49.8777 10.0321 51.3159 11.218C52.7542 12.4039 53.4859 13.9935 53.5112 15.9869H49.5371C49.5118 15.0281 49.146 14.2963 48.4395 13.7917C47.733 13.2618 46.7615 12.9969 45.5251 12.9969C44.3644 12.9969 43.4435 13.224 42.7622 13.6781C42.0809 14.1323 41.7403 14.7253 41.7403 15.457C41.7403 15.7598 41.7907 16.0248 41.8917 16.2518C41.9926 16.4789 42.1566 16.6808 42.3837 16.8574C42.636 17.034 42.8631 17.1854 43.065 17.3116C43.2921 17.4125 43.6201 17.5135 44.049 17.6144C44.478 17.7153 44.8312 17.791 45.1088 17.8415C45.3863 17.8919 45.7901 17.955 46.3199 18.0307C47.0012 18.1569 47.5059 18.2578 47.8339 18.3335C48.1871 18.384 48.6792 18.4975 49.31 18.6741C49.9408 18.8255 50.4328 18.9896 50.7861 19.1662C51.1393 19.3428 51.543 19.5951 51.9972 19.9232C52.4766 20.2259 52.8299 20.5792 53.057 20.9829C53.3093 21.3614 53.5238 21.8408 53.7004 22.4212C53.877 23.0015 53.9653 23.6323 53.9653 24.3136C53.9653 26.3069 53.2084 27.8966 51.6944 29.0825C50.1805 30.2684 48.1745 30.8614 45.6765 30.8614Z" fill="white"/>
<path d="M55.7283 6.75187V2.43713H60.0808V6.75187H55.7283ZM55.804 30.3693V9.93114H60.0051V30.3693H55.804Z" fill="white"/>
<g clip-path="url(#clip1_284_2020)">
<path fill-rule="evenodd" clip-rule="evenodd" d="M20.0531 25.2934L20.0555 25.2933C20.0555 28.4271 22.5959 30.9675 25.7297 30.9675C28.8635 30.9675 31.4039 28.4271 31.4039 25.2933C34.5374 25.293 37.0776 22.7527 37.0776 19.6191C37.0776 16.4856 34.5374 13.9452 31.4039 13.945C31.4039 10.8112 28.8635 8.27075 25.7297 8.27075C22.5959 8.27075 20.0555 10.8112 20.0555 13.9449L20.0531 13.9449C16.9193 13.9449 14.3789 16.4854 14.3789 19.6191C14.3789 22.7529 16.9193 25.2934 20.0531 25.2934ZM20.7607 14.8555C19.9938 15.7017 19.9938 17.0075 19.9938 19.6192C19.9938 22.2308 19.9938 23.5366 20.7607 24.3828C20.8258 24.4546 20.8943 24.5231 20.9661 24.5882C21.8122 25.3551 23.1181 25.3551 25.7297 25.3551C28.3413 25.3551 29.6472 25.3551 30.4933 24.5882C30.5651 24.5231 30.6336 24.4546 30.6987 24.3828C31.4656 23.5366 31.4656 22.2308 31.4656 19.6192C31.4656 17.0075 31.4656 15.7017 30.6987 14.8555C30.6336 14.7838 30.5651 14.7152 30.4933 14.6502C29.6472 13.8832 28.3413 13.8832 25.7297 13.8832C23.1181 13.8832 21.8122 13.8832 20.9661 14.6502C20.8943 14.7152 20.8258 14.7838 20.7607 14.8555Z" fill="url(#paint0_linear_284_2020)"/>
</g>
<path fill-rule="evenodd" clip-rule="evenodd" d="M64.543 20.2007C64.543 14.476 69.1837 9.83521 74.9084 9.83521H104.531C110.256 9.83521 114.896 14.476 114.896 20.2007C114.896 25.9253 110.256 30.5661 104.531 30.5661H74.9084C69.1837 30.5661 64.543 25.9253 64.543 20.2007ZM74.9084 11.1046C69.8848 11.1046 65.8124 15.1771 65.8124 20.2007C65.8124 25.2243 69.8848 29.2967 74.9084 29.2967H104.531C109.555 29.2967 113.627 25.2243 113.627 20.2007C113.627 15.1771 109.555 11.1046 104.531 11.1046H74.9084Z" fill="url(#paint1_linear_284_2020)"/>
<path d="M76.184 24.4429C75.1946 24.4429 74.4001 24.193 73.8005 23.6934C73.2009 23.1937 72.8911 22.5241 72.8711 21.6847H74.505C74.525 22.0944 74.6899 22.4142 74.9997 22.6441C75.3195 22.8639 75.7342 22.9738 76.2439 22.9738C76.5437 22.9738 76.8085 22.9339 77.0384 22.8539C77.2782 22.774 77.4681 22.654 77.608 22.4941C77.7479 22.3343 77.8179 22.1444 77.8179 21.9245C77.8179 21.7746 77.7829 21.6447 77.713 21.5348C77.643 21.4148 77.5581 21.3199 77.4581 21.25C77.3582 21.18 77.2133 21.115 77.0234 21.0551C76.8435 20.9951 76.6786 20.9501 76.5287 20.9202C76.3888 20.8902 76.1989 20.8552 75.9591 20.8152C75.7093 20.7753 75.5094 20.7403 75.3595 20.7103C75.2096 20.6803 75.0197 20.6353 74.7899 20.5754C74.56 20.5054 74.3701 20.4355 74.2202 20.3655C74.0803 20.2856 73.9254 20.1856 73.7555 20.0657C73.5856 19.9458 73.4507 19.8109 73.3508 19.661C73.2608 19.5111 73.1809 19.3312 73.1109 19.1213C73.051 18.9015 73.021 18.6616 73.021 18.4018C73.021 17.6723 73.3058 17.0826 73.8754 16.6329C74.4551 16.1832 75.2146 15.9584 76.154 15.9584C77.0934 15.9584 77.8479 16.1932 78.4175 16.6629C78.9871 17.1326 79.277 17.7622 79.2869 18.5517H77.713C77.703 18.1719 77.5581 17.8821 77.2782 17.6823C76.9984 17.4724 76.6137 17.3675 76.124 17.3675C75.6643 17.3675 75.2995 17.4574 75.0297 17.6373C74.7599 17.8172 74.625 18.052 74.625 18.3418C74.625 18.4618 74.6449 18.5667 74.6849 18.6566C74.7249 18.7466 74.7899 18.8265 74.8798 18.8965C74.9797 18.9664 75.0697 19.0264 75.1496 19.0764C75.2396 19.1163 75.3695 19.1563 75.5394 19.1963C75.7093 19.2363 75.8492 19.2662 75.9591 19.2862C76.069 19.3062 76.2289 19.3312 76.4388 19.3612C76.7086 19.4111 76.9085 19.4511 77.0384 19.4811C77.1783 19.5011 77.3732 19.5461 77.623 19.616C77.8729 19.676 78.0677 19.7409 78.2076 19.8109C78.3476 19.8808 78.5075 19.9808 78.6873 20.1107C78.8772 20.2306 79.0171 20.3705 79.1071 20.5304C79.207 20.6803 79.2919 20.8702 79.3619 21.1C79.4319 21.3299 79.4668 21.5797 79.4668 21.8496C79.4668 22.6391 79.167 23.2686 78.5674 23.7383C77.9678 24.208 77.1733 24.4429 76.184 24.4429Z" fill="white"/>
<path d="M84.2874 24.4429C83.0882 24.4429 82.0788 24.0381 81.2593 23.2287C80.4499 22.4092 80.0451 21.3999 80.0451 20.2006C80.0451 18.9914 80.4499 17.9821 81.2593 17.1726C82.0788 16.3631 83.0932 15.9584 84.3024 15.9584C85.2917 15.9584 86.1512 16.2382 86.8807 16.7978C87.6102 17.3575 88.0849 18.102 88.3048 19.0314H86.6559C86.446 18.5717 86.1312 18.2119 85.7115 17.9521C85.2917 17.6823 84.817 17.5473 84.2874 17.5473C83.8177 17.5473 83.388 17.6623 82.9982 17.8921C82.6085 18.122 82.2987 18.4418 82.0688 18.8515C81.849 19.2512 81.739 19.701 81.739 20.2006C81.739 20.9501 81.9839 21.5797 82.4736 22.0894C82.9632 22.5991 83.5679 22.8539 84.2874 22.8539C84.817 22.8539 85.2867 22.719 85.6965 22.4492C86.1162 22.1794 86.436 21.7946 86.6559 21.2949H88.3348C88.1049 22.2443 87.6202 23.0088 86.8807 23.5884C86.1512 24.1581 85.2867 24.4429 84.2874 24.4429Z" fill="white"/>
<path d="M96.1458 16.1532H97.4349V24.248H96.0858L95.9209 23.2587C95.1414 24.0481 94.1671 24.4429 92.9978 24.4429C91.7886 24.4429 90.7792 24.0381 89.9698 23.2287C89.1703 22.4192 88.7705 21.4098 88.7705 20.2006C88.7705 18.9814 89.1703 17.9721 89.9698 17.1726C90.7792 16.3631 91.7886 15.9584 92.9978 15.9584C94.187 15.9584 95.1714 16.3581 95.9509 17.1576L96.1458 16.1532ZM91.214 22.1044C91.7236 22.6041 92.3582 22.8539 93.1177 22.8539C93.8872 22.8539 94.5168 22.6041 95.0065 22.1044C95.5062 21.5947 95.756 20.9601 95.756 20.2006C95.756 19.4311 95.5062 18.7965 95.0065 18.2969C94.5168 17.7972 93.8872 17.5473 93.1177 17.5473C92.6181 17.5473 92.1633 17.6623 91.7536 17.8921C91.3539 18.122 91.0391 18.4418 90.8092 18.8515C90.5794 19.2512 90.4644 19.701 90.4644 20.2006C90.4644 20.9601 90.7143 21.5947 91.214 22.1044Z" fill="white"/>
<path d="M103.495 15.9734C104.435 15.9734 105.179 16.2882 105.729 16.9178C106.289 17.5473 106.568 18.3668 106.568 19.3762V24.248H104.904V19.706C104.904 18.9764 104.745 18.4218 104.425 18.042C104.115 17.6523 103.655 17.4574 103.046 17.4574C102.416 17.4574 101.896 17.6873 101.487 18.147C101.077 18.6067 100.872 19.1963 100.872 19.9158V24.248H99.2081V16.1532H100.362L100.692 17.2775C101.002 16.8678 101.397 16.548 101.876 16.3181C102.366 16.0883 102.906 15.9734 103.495 15.9734Z" fill="white"/>
</g>
<defs>
<linearGradient id="paint0_linear_284_2020" x1="31.531" y1="11.6577" x2="14.3514" y2="30.9179" gradientUnits="userSpaceOnUse">
<stop stop-color="#D4EF33"/>
<stop offset="1" stop-color="#00D1FF"/>
</linearGradient>
<linearGradient id="paint1_linear_284_2020" x1="102.592" y1="12.9287" x2="92.3698" y2="40.7629" gradientUnits="userSpaceOnUse">
<stop stop-color="#D4EF33"/>
<stop offset="1" stop-color="#00D1FF"/>
</linearGradient>
<clipPath id="clip0_284_2020">
<rect width="116" height="34" fill="white"/>
</clipPath>
<clipPath id="clip1_284_2020">
<rect width="24.0736" height="24.0736" fill="white" transform="translate(13.6992 7.58228)"/>
</clipPath>
</defs>
</svg>
