<?xml version="1.0" standalone="no"?>
<!DOCTYPE svg PUBLIC "-//W3C//DTD SVG 20010904//EN"
 "http://www.w3.org/TR/2001/REC-SVG-20010904/DTD/svg10.dtd">
<svg version="1.0" xmlns="http://www.w3.org/2000/svg"
 width="287.000000pt" height="287.000000pt" viewBox="0 0 287.000000 287.000000"
 preserveAspectRatio="xMidYMid meet">
<metadata>
Created by potrace 1.14, written by Peter Selinger 2001-2017
</metadata>
<g transform="translate(0.000000,287.000000) scale(0.100000,-0.100000)"
fill="#000000" stroke="none">
<path d="M1667 1840 c-49 -39 -44 -117 10 -143 31 -15 35 -15 76 -4 42 11 62
65 43 111 -24 57 -81 73 -129 36z"/>
<path d="M91 1732 c-6 -2 -11 -29 -11 -64 l0 -59 -40 -17 -41 -17 3 -55 3 -54
38 1 37 0 1 -146 c0 -80 2 -157 5 -170 7 -39 44 -90 77 -108 34 -19 148 -24
200 -10 26 7 27 10 27 70 l0 64 -56 -1 c-86 0 -94 14 -94 174 l0 127 75 -1 75
-1 0 72 0 72 -57 0 c-32 -1 -66 0 -75 0 -14 1 -18 13 -20 63 l-3 63 -67 0
c-36 0 -71 -1 -77 -3z"/>
<path d="M685 1615 c-68 -16 -105 -37 -154 -86 -135 -138 -93 -381 80 -470 58
-29 163 -36 227 -15 69 23 143 91 173 158 32 73 32 184 0 248 -54 106 -126
154 -261 175 -8 1 -37 -3 -65 -10z m127 -157 c38 -26 70 -97 67 -146 -3 -48
-31 -103 -61 -121 -98 -60 -209 7 -210 128 0 123 116 203 204 139z"/>
<path d="M1243 1609 c-50 -15 -109 -77 -123 -128 -30 -111 27 -186 166 -216
40 -9 80 -25 88 -34 15 -17 15 -20 -3 -42 -26 -32 -101 -33 -133 -2 l-21 22
-53 -27 c-30 -15 -54 -33 -54 -41 0 -21 62 -75 107 -93 61 -23 152 -21 211 7
114 53 149 183 72 264 -30 31 -119 69 -171 73 -42 3 -73 42 -56 69 6 10 14 19
17 20 3 0 14 2 24 4 21 4 72 -19 78 -34 3 -9 103 21 116 34 12 12 -30 71 -69
99 -32 22 -54 29 -102 32 -34 2 -77 -1 -94 -7z"/>
<path d="M1640 1324 l0 -284 79 0 79 0 -2 283 -1 282 -77 2 -78 1 0 -284z"/>
<path d="M1982 1260 c-24 -15 -32 -27 -32 -49 0 -32 39 -71 71 -71 30 0 49
-11 49 -30 0 -31 -52 -41 -79 -16 -20 18 -47 5 -38 -18 10 -26 65 -45 100 -35
93 27 88 114 -8 138 -33 8 -45 16 -45 30 0 24 33 33 59 15 19 -14 51 -10 51 7
0 12 -44 39 -72 44 -13 3 -38 -4 -56 -15z"/>
<path d="M2225 1266 c-16 -7 -38 -23 -49 -34 -23 -26 -29 -98 -10 -133 31 -62
114 -81 168 -38 25 20 26 23 12 37 -14 14 -17 14 -34 -1 -10 -9 -30 -17 -45
-17 -69 0 -92 111 -29 144 24 12 32 12 61 0 25 -11 37 -11 47 -3 11 9 9 15
-10 30 -33 26 -75 32 -111 15z"/>
<path d="M2463 1265 c-111 -48 -78 -227 42 -227 18 0 41 4 51 10 12 7 23 6 35
-1 10 -6 22 -8 26 -4 4 5 8 57 8 117 0 112 -8 136 -38 106 -11 -12 -17 -11
-38 0 -30 17 -46 17 -86 -1z m72 -37 c29 -13 45 -59 35 -98 -8 -32 -49 -55
-82 -47 -55 14 -62 114 -10 142 33 18 26 17 57 3z"/>
<path d="M2683 1273 c-10 -3 -13 -37 -13 -120 0 -113 0 -114 23 -111 20 3 22
8 23 79 1 42 4 82 9 88 22 36 94 26 96 -13 1 -12 3 -46 4 -76 4 -81 3 -80 25
-80 19 0 20 7 20 89 0 79 -3 93 -22 116 -25 29 -70 38 -105 22 -15 -7 -27 -7
-35 0 -7 6 -19 8 -25 6z"/>
</g>
</svg>
