<svg width="92" height="44" viewBox="0 0 92 44" fill="none" xmlns="http://www.w3.org/2000/svg">
<g filter="url(#filter0_d_1199_81378)">
<g clip-path="url(#clip0_1199_81378)">
<path d="M2 1H46V41H2V1Z" fill="white"/>
<path d="M21 13.5H17.8333C17.3666 13.5 17.1333 13.5 16.955 13.5908C16.7982 13.6707 16.6707 13.7982 16.5908 13.955C16.5 14.1333 16.5 14.3666 16.5 14.8333V18C16.5 18.4667 16.5 18.7001 16.5908 18.8783C16.6707 19.0351 16.7982 19.1626 16.955 19.2425C17.1333 19.3333 17.3666 19.3333 17.8333 19.3333H21C21.4667 19.3333 21.7001 19.3333 21.8783 19.2425C22.0351 19.1626 22.1626 19.0351 22.2425 18.8783C22.3333 18.7001 22.3333 18.4667 22.3333 18V14.8333C22.3333 14.3666 22.3333 14.1333 22.2425 13.955C22.1626 13.7982 22.0351 13.6707 21.8783 13.5908C21.7001 13.5 21.4667 13.5 21 13.5Z" stroke="#667085" stroke-width="1.66667" stroke-linecap="round" stroke-linejoin="round"/>
<path d="M30.1667 13.5H27C26.5333 13.5 26.2999 13.5 26.1217 13.5908C25.9649 13.6707 25.8374 13.7982 25.7575 13.955C25.6667 14.1333 25.6667 14.3666 25.6667 14.8333V18C25.6667 18.4667 25.6667 18.7001 25.7575 18.8783C25.8374 19.0351 25.9649 19.1626 26.1217 19.2425C26.2999 19.3333 26.5333 19.3333 27 19.3333H30.1667C30.6334 19.3333 30.8667 19.3333 31.045 19.2425C31.2018 19.1626 31.3293 19.0351 31.4092 18.8783C31.5 18.7001 31.5 18.4667 31.5 18V14.8333C31.5 14.3666 31.5 14.1333 31.4092 13.955C31.3293 13.7982 31.2018 13.6707 31.045 13.5908C30.8667 13.5 30.6334 13.5 30.1667 13.5Z" stroke="#667085" stroke-width="1.66667" stroke-linecap="round" stroke-linejoin="round"/>
<path d="M30.1667 22.6667H27C26.5333 22.6667 26.2999 22.6667 26.1217 22.7575C25.9649 22.8374 25.8374 22.9649 25.7575 23.1217C25.6667 23.2999 25.6667 23.5333 25.6667 24V27.1667C25.6667 27.6334 25.6667 27.8667 25.7575 28.045C25.8374 28.2018 25.9649 28.3293 26.1217 28.4092C26.2999 28.5 26.5333 28.5 27 28.5H30.1667C30.6334 28.5 30.8667 28.5 31.045 28.4092C31.2018 28.3293 31.3293 28.2018 31.4092 28.045C31.5 27.8667 31.5 27.6334 31.5 27.1667V24C31.5 23.5333 31.5 23.2999 31.4092 23.1217C31.3293 22.9649 31.2018 22.8374 31.045 22.7575C30.8667 22.6667 30.6334 22.6667 30.1667 22.6667Z" stroke="#667085" stroke-width="1.66667" stroke-linecap="round" stroke-linejoin="round"/>
<path d="M21 22.6667H17.8333C17.3666 22.6667 17.1333 22.6667 16.955 22.7575C16.7982 22.8374 16.6707 22.9649 16.5908 23.1217C16.5 23.2999 16.5 23.5333 16.5 24V27.1667C16.5 27.6334 16.5 27.8667 16.5908 28.045C16.6707 28.2018 16.7982 28.3293 16.955 28.4092C17.1333 28.5 17.3666 28.5 17.8333 28.5H21C21.4667 28.5 21.7001 28.5 21.8783 28.4092C22.0351 28.3293 22.1626 28.2018 22.2425 28.045C22.3333 27.8667 22.3333 27.6334 22.3333 27.1667V24C22.3333 23.5333 22.3333 23.2999 22.2425 23.1217C22.1626 22.9649 22.0351 22.8374 21.8783 22.7575C21.7001 22.6667 21.4667 22.6667 21 22.6667Z" stroke="#667085" stroke-width="1.66667" stroke-linecap="round" stroke-linejoin="round"/>
<path d="M45.5 1V41H46.5V1H45.5Z" fill="#EAECF0"/>
<path d="M46 1H90V41H46V1Z" fill="#F9FAFB"/>
<path d="M75.5 21.0001L65.5 21.0001M75.5 16.0001L65.5 16.0001M75.5 26.0001L65.5 26.0001M62.1667 21.0001C62.1667 21.4603 61.7936 21.8334 61.3333 21.8334C60.8731 21.8334 60.5 21.4603 60.5 21.0001C60.5 20.5398 60.8731 20.1667 61.3333 20.1667C61.7936 20.1667 62.1667 20.5398 62.1667 21.0001ZM62.1667 16.0001C62.1667 16.4603 61.7936 16.8334 61.3333 16.8334C60.8731 16.8334 60.5 16.4603 60.5 16.0001C60.5 15.5398 60.8731 15.1667 61.3333 15.1667C61.7936 15.1667 62.1667 15.5398 62.1667 16.0001ZM62.1667 26.0001C62.1667 26.4603 61.7936 26.8334 61.3333 26.8334C60.8731 26.8334 60.5 26.4603 60.5 26.0001C60.5 25.5398 60.8731 25.1667 61.3333 25.1667C61.7936 25.1667 62.1667 25.5398 62.1667 26.0001Z" stroke="#1D2939" stroke-width="1.66667" stroke-linecap="round" stroke-linejoin="round"/>
<path d="M89.5 1V41H90.5V1H89.5Z" fill="#EAECF0"/>
</g>
<rect x="2.5" y="1.5" width="87" height="39" rx="7.5" stroke="#EAECF0"/>
</g>
<defs>
<filter id="filter0_d_1199_81378" x="0" y="0" width="92" height="44" filterUnits="userSpaceOnUse" color-interpolation-filters="sRGB">
<feFlood flood-opacity="0" result="BackgroundImageFix"/>
<feColorMatrix in="SourceAlpha" type="matrix" values="0 0 0 0 0 0 0 0 0 0 0 0 0 0 0 0 0 0 127 0" result="hardAlpha"/>
<feOffset dy="1"/>
<feGaussianBlur stdDeviation="1"/>
<feColorMatrix type="matrix" values="0 0 0 0 0.0627451 0 0 0 0 0.0941176 0 0 0 0 0.156863 0 0 0 0.05 0"/>
<feBlend mode="normal" in2="BackgroundImageFix" result="effect1_dropShadow_1199_81378"/>
<feBlend mode="normal" in="SourceGraphic" in2="effect1_dropShadow_1199_81378" result="shape"/>
</filter>
<clipPath id="clip0_1199_81378">
<rect x="2" y="1" width="88" height="40" rx="8" fill="white"/>
</clipPath>
</defs>
</svg>
