<svg width="17" height="18" viewBox="0 0 17 18" fill="none" xmlns="http://www.w3.org/2000/svg">
<path d="M16.336 4.13574C15.7583 4.39141 15.1407 4.56406 14.4899 4.64375C15.154 4.24531 15.6653 3.61445 15.9044 2.86406C15.2835 3.23262 14.5962 3.50156 13.8624 3.64434C13.2747 3.0168 12.438 2.625 11.5149 2.625C9.73857 2.625 8.30088 4.06602 8.30088 5.84238C8.30088 6.09473 8.32744 6.34043 8.38389 6.57617C5.71103 6.44336 3.34033 5.16172 1.75654 3.2127C1.48096 3.6875 1.32158 4.24199 1.32158 4.82969C1.32158 5.94531 1.89268 6.93145 2.75596 7.50918C2.22471 7.4959 1.72666 7.3498 1.29502 7.10742V7.14727C1.29502 8.70781 2.404 10.0061 3.8749 10.3016C3.60596 10.3746 3.32041 10.4145 3.02822 10.4145C2.82236 10.4145 2.61982 10.3945 2.42393 10.3547C2.83232 11.633 4.021 12.5627 5.42881 12.5893C4.32979 13.4525 2.94189 13.9672 1.43447 13.9672C1.17549 13.9672 0.919824 13.9506 0.66748 13.9207C2.08525 14.8438 3.77529 15.375 5.58818 15.375C11.5083 15.375 14.7423 10.4709 14.7423 6.21758C14.7423 6.07812 14.739 5.93867 14.7323 5.80254C15.3599 5.34766 15.9044 4.7832 16.336 4.13574Z" fill="#98A2B3"/>
</svg>
