<svg width="462" height="374" viewBox="0 0 462 374" fill="none" xmlns="http://www.w3.org/2000/svg">
<g opacity="0.4">
<path fill-rule="evenodd" clip-rule="evenodd" d="M-14.4052 234.452C-8.28642 228.279 -12.2169 210.526 -13.2849 202.332C-15.3944 186.127 -18.4103 170.095 -21.2339 154.048C-24.0575 138 -26.9245 121.945 -28.663 105.689C-29.7929 95.1347 -31.3502 82.9632 -28.5838 72.2727C-22.6854 49.4935 1.7971 78.2347 9.00403 84.8143C27.3415 101.549 47.0901 122.029 70.9946 131C85.2647 136.355 96.6534 132.792 105.442 119.789C108.306 115.566 110.373 109.478 115.528 107.729C121.034 105.861 127.346 107.918 132.245 109.964C150.111 117.434 165.277 131.396 179.332 144.146C194.501 157.881 208.88 172.679 223.286 186.974C229.394 193.036 238.056 197.084 245.725 201.004C255.779 206.143 266.045 210.889 276.247 215.753C298.678 226.469 321.925 237.378 340.947 253.425C352.86 263.474 363.602 276.736 364.026 293.373C364.238 301.726 360.429 310.019 357.53 317.87C354.034 327.361 350.356 336.796 347.155 346.379C336.85 377.243 331.411 412.035 354.222 436.868C357.673 440.624 361.709 443.667 365.389 447.16C367.73 449.387 369.18 452.002 367.508 455.373C363.317 463.833 346.622 467.109 338.853 469.376C321.843 474.337 304.558 478.037 287.43 482.438C276.101 485.347 259.084 487.789 250.358 496.362C242.583 504.001 246.727 519.286 248.219 528.371C249.62 536.881 253.625 550.833 246.938 558.607C243.696 562.376 238.6 563.09 234.057 563.058C226.104 562.991 218.703 561.154 210.598 562.045C197.302 563.511 182.204 568.725 173.062 579.474C166.727 586.922 165.94 595.161 166.366 604.215C166.544 608.021 166.878 610.921 164.038 613.971C159.532 618.817 152.847 622.03 147.082 624.936C126.45 635.337 104.181 643.076 82.0903 649.003C71.0509 651.965 59.7087 654.582 48.3819 655.199C40.9534 655.614 31.5564 655.552 26.2122 650.197C20.0187 644.003 15.8238 635.091 11.5671 627.307C3.61899 612.766 -3.67885 597.847 -10.834 582.874C-27.377 548.243 -42.947 513.119 -57.5439 477.504C-67.8131 452.405 -78.4468 426.92 -85.2149 400.436C-86.5215 395.258 -87.3248 389.94 -87.614 384.555C-87.9694 378.848 -90.5338 373.889 -93.4555 369.182C-111.589 339.968 -141.778 318.285 -168.218 297.18C-174.927 291.822 -181.641 286.467 -188.165 280.889C-193.773 276.094 -201.168 271.034 -204.471 264.225C-210.982 250.813 -189.557 246.805 -180.693 245.305C-149.486 240.024 -117.326 241.312 -86.066 241.056C-71.191 240.922 -56.2797 240.864 -41.3807 239.904C-33.6291 239.411 -19.7692 239.864 -14.4052 234.452Z" stroke="#75B7BB"/>
<path fill-rule="evenodd" clip-rule="evenodd" d="M-8.9019 237.883C-6.37183 227.406 -8.53615 215.629 -9.79905 205.318C-11.614 190.479 -14.0525 175.74 -16.1845 160.952C-18.1999 146.969 -20.1643 132.901 -20.7768 118.698C-21.15 110.037 -21.8622 99.4138 -17.8728 91.1453C-9.22963 73.2198 13.7229 100.203 20.2343 106.02C36.4181 120.483 53.9884 137.66 75.1593 144.842C88.3794 149.327 99.2594 145.72 107.427 133.776C110.254 129.644 112.048 125.498 116.998 123.525C122.726 121.241 129.183 122.703 134.576 124.57C151.47 130.418 166.084 142.685 179.387 154.035C193.129 165.76 207.108 178.316 218.694 191.379C223.328 196.601 230.669 200.606 236.826 204.204C246.301 209.738 256.003 214.892 265.584 220.246C285.06 231.122 304.772 242.55 321.031 257.867C332.769 268.924 342.808 282.654 345.159 299.269C347.537 316.111 340.589 331.587 335.26 347.574C326.038 375.204 316.066 410.039 333.467 435.226C336.105 439.046 339.529 441.829 342.609 445.199C344.194 446.931 345.85 449.052 344.966 451.619C342.67 458.281 328.498 460.487 323.053 461.904C308.008 465.821 292.736 468.582 277.607 472.05C265.593 474.802 251.519 477.135 240.976 484.096C228.183 492.543 234.828 514.302 232.345 526.774C228.036 548.4 204.243 539.384 189.973 537.479C173.587 535.289 152.972 540.573 150.315 559.88C149.3 567.265 150.716 573.686 146.659 580.589C140.312 591.384 128.835 599.496 118.558 606.164C103.103 616.181 86.202 624.476 68.8418 630.137C56.4099 634.188 36.5351 640.158 27.323 629.007C21.116 621.507 16.5113 612.176 11.9266 603.413C5.06022 590.294 -1.24326 576.864 -7.35613 563.349C-21.4906 532.173 -34.501 500.373 -46.1325 468.074C-54.0664 446.033 -67.0481 375.403 -69.1654 371.229C-75.481 358.786 -86.6842 348.662 -96.8288 339.467C-110.322 327.234 -124.755 316.07 -139.057 304.795C-145.861 299.425 -152.855 294.183 -159.327 288.416C-163.934 284.311 -169.869 278.806 -171.013 272.319C-173.248 259.661 -153.027 256.033 -144.551 254.419C-118.574 249.464 -91.8836 249.366 -65.7219 248.139C-52.8803 247.533 -39.9559 247.031 -27.1392 245.322C-21.9666 244.629 -10.4629 244.355 -8.9019 237.883Z" stroke="#75B7BB"/>
<path fill-rule="evenodd" clip-rule="evenodd" d="M-0.0699087 240.045C2.09302 216.18 -3.20466 191.525 -5.26152 167.73C-6.29218 155.786 -7.21492 143.652 -6.31054 131.557C-5.84142 125.266 -5.20191 117.358 -1.05133 112.086C10.0535 97.9835 30.8532 122.192 38.0673 128.449C52.0181 140.543 67.4338 154.55 85.6799 159.933C96.8298 163.219 106.838 160.321 113.97 150.49C117.136 146.128 119.401 142 124.626 139.834C129.919 137.64 135.789 138.227 141.039 139.516C156.128 143.216 169.624 153.07 181.558 162.291C195.547 173.119 208.665 185.004 220.808 197.849C231.448 209.095 245.745 216.578 258.675 225.017C275.802 236.199 292.809 248.013 306.901 262.889C318.028 274.64 327.107 288.618 330.375 304.908C333.681 321.475 329.731 337.374 324.408 353.469C316.361 377.801 304.814 409.643 316.529 433.655C318.231 437.15 320.554 439.669 323.078 442.505C324.304 443.882 325.961 445.586 325.175 447.663C323.28 452.664 310.854 453.607 306.922 454.334C294.371 456.657 281.724 458.214 269.144 460.311C257.399 462.268 244.929 464.077 233.861 469.066C216.237 477.015 224.227 499.957 211.609 511.708C203.775 519.002 191.484 517.56 182.294 515.875C170.985 513.795 158.311 507.19 146.54 512.26C137.771 516.036 138.038 523.603 136.294 531.379C133.341 544.554 122.758 555.834 112.891 564.637C99.5597 576.534 83.9571 586.533 67.5929 593.358C60.1755 596.452 52.0606 599.273 44.0804 599.457C36.6028 599.631 32.1664 597.156 28.0695 591.492C15.5316 574.152 7.1413 552.375 -1.2062 532.071C-11.6933 506.559 -21.151 480.514 -29.041 453.962C-34.4205 435.855 -39.6958 417.114 -41.2112 398.015C-41.6056 393.037 -41.8656 387.795 -40.8067 382.807C-40.0195 379.05 -38.7736 376.543 -39.979 372.743C-43.5537 361.48 -54.8782 352.167 -63.2266 344.617C-76.5726 332.544 -90.9148 321.588 -105.072 310.482C-113.339 304.007 -130.043 292.94 -129.168 280.293C-128.41 269.374 -112.324 265.549 -104.05 263.538C-83.1212 258.453 -61.5158 257.227 -40.3075 254.927C-30.5877 253.873 -20.6567 252.948 -11.0892 250.537C-8.64821 249.925 -5.16028 249.366 -3.05402 247.763C-0.64658 245.92 -0.341637 242.981 -0.0699087 240.045Z" stroke="#75B7BB"/>
<path fill-rule="evenodd" clip-rule="evenodd" d="M-2.16651 244.007C-0.686501 222.474 -3.3129 200.941 -3.30934 179.409C-3.30781 169.755 -3.11709 159.816 -0.905024 150.249C0.284038 145.103 2.17031 139.016 6.65242 135.625C19.5162 125.892 37.0043 145.421 45.1436 152.236C57.2266 162.375 70.9702 174.16 86.887 177.893C97.3131 180.338 105.62 176.858 112.019 168.056C118.882 158.613 127.684 155.579 138.795 157.594C152.722 160.125 165.431 168.189 176.635 176.093C190.125 185.626 202.658 196.406 214.084 208.301C225.195 219.871 238.186 228.853 250.756 238.815C267.419 252.024 283.687 266.588 294.915 284.896C304.69 300.837 309.51 319.244 307.71 338.456C305.839 358.515 296.526 376.832 291.779 396.347C288.818 408.519 285.231 424.95 290.896 436.497C292.785 440.348 299.34 444.256 292.221 446.789C288.151 448.239 283.277 448.208 279.084 448.527C272.307 449.043 265.528 449.354 258.749 449.767C244.299 450.648 229.206 451.211 215.045 455.203C197.21 460.224 197.939 478.543 185.191 488.969C178.331 494.581 169.245 495.449 160.988 495.011C155.643 494.731 150.372 493.847 145.184 492.751C139.764 491.607 134.253 489.352 128.627 489.254C120.616 489.108 117.731 495.535 113.411 501.384C105.822 511.665 97.0409 521.038 87.2678 529.288C75.2908 539.402 61.7456 548.58 47.1074 554.018C41.41 556.136 35.0001 558.012 29.0133 557.265C23.0265 556.519 19.7237 552.857 16.6551 548.211C7.54429 534.437 1.55092 517.593 -4.1616 501.597C-11.3102 481.575 -17.4353 461.063 -21.9704 440.161C-25.1004 425.733 -27.8055 410.821 -27.4907 395.817C-27.3976 391.451 -27.0431 387.032 -26.0214 382.723C-25.3223 379.767 -23.5689 376.804 -23.83 373.795C-24.6572 364.392 -36.2074 355.403 -42.4557 349.653C-54.925 338.177 -69.0709 328.755 -81.602 317.372C-88.4417 311.16 -99.4512 301.729 -98.3808 291.074C-97.3765 281.056 -84.6143 276.457 -76.6103 273.841C-60.8752 268.693 -44.4605 266.503 -28.3799 263.171C-21.7654 261.798 -14.7146 260.491 -8.45617 257.628C-2.88315 255.073 -2.54716 249.527 -2.16651 244.007Z" stroke="#75B7BB"/>
<path fill-rule="evenodd" clip-rule="evenodd" d="M0.111516 246.661C2.25615 228.555 1.62324 209.945 3.8749 191.616C5.19581 180.885 7.22356 162.651 19.3584 157.794C32.6863 152.45 46.8562 166.112 55.6522 173.403C66.1213 182.081 78.5873 192.101 92.6098 194.465C97.0438 195.214 101.69 194.982 105.839 192.705C110.279 190.268 112.193 186.164 115.492 182.58C122.414 175.06 132.297 173.348 141.684 174.774C154.954 176.787 167.17 183.68 178.051 190.85C190.369 198.983 201.795 208.346 212.167 218.806C222.085 228.795 232.167 238.411 242.4 248.107C255.789 260.78 268.425 274.573 277.413 290.865C286.266 306.916 290.841 324.983 289.81 343.799C288.802 362.158 282.82 379.847 275.89 397.029C271.956 406.781 266.644 421.921 270.126 432.316C271.673 436.94 274.807 439.862 267.525 440.582C258.356 441.488 248.746 439.962 239.652 439.486C226.532 438.801 213.116 438.065 199.93 439.664C191.509 440.684 185.279 443.616 179.422 449.983C174.962 454.837 171.248 460.338 166.122 464.56C154.093 474.473 138.38 473.807 124.133 473.572C114.97 473.42 107.279 472.603 98.4723 476.615C88.0612 481.355 78.6293 488.406 68.8688 494.376C58.1496 500.932 46.7604 507.512 34.6088 510.576C23.7909 513.304 15.8343 511.422 10.2964 502.234C1.65626 487.906 -2.65718 469.581 -6.37123 452.905C-10.1542 435.934 -12.9386 418.321 -12.474 400.659C-12.2221 391.122 -9.64381 382.206 -8.50874 372.825C-7.09351 361.038 -21.3255 351.806 -28.8565 345.393C-41.3582 334.746 -84.718 305.269 -58.875 286.147C-48.0883 278.166 -33.9039 275.029 -21.5832 270.788C-16.4723 269.025 -9.92473 267.324 -5.60796 263.765C-0.906206 259.888 -0.537166 252.109 0.111516 246.661Z" stroke="#75B7BB"/>
<path fill-rule="evenodd" clip-rule="evenodd" d="M3.46527 251.735C6.54222 236.46 7.91199 220.493 12.5893 205.349C15.6126 195.536 20.8544 183.627 32.0247 181.215C44.6311 178.495 57.3167 187.607 66.3017 194.639C75.5581 201.885 86.2539 210.89 98.8086 211.823C102.805 212.118 107.07 211.39 110.388 208.731C113.572 206.181 115.543 202.418 118.759 199.796C125.978 193.907 135.145 192.274 143.919 193.213C169.871 195.991 193.829 214.795 211.464 231.825C220.29 240.35 228.428 250.068 236.594 259.366C247.189 271.431 256.96 284.355 263.965 298.961C278.863 330.013 276.347 363.327 264.81 396.373C261.178 406.775 256.177 416.957 255.842 427.9C255.665 433.546 252.977 435.04 247.526 434.899C239.005 434.678 230.502 432.518 222.187 431.131C210.361 429.156 198.315 427.108 186.312 426.906C178.038 426.767 171.134 427.7 164.128 432.893C159.133 436.595 154.853 441.177 150.088 445.164C141.036 452.736 130.253 458.451 118.871 460.859C109.842 462.76 100.631 463.483 91.5096 463.833C79.6424 464.297 68.5559 465.738 56.908 468.726C41.4809 472.672 15.5469 482.473 6.75379 464.223C-2.94206 444.092 -3.66284 416.856 -0.385826 394.442C0.713804 386.916 3.3654 378.989 2.21231 371.475C0.478395 360.234 -6.27087 353.818 -14.0071 346.121C-25.5866 334.595 -53.3719 312.103 -35.3815 293.569C-28.2532 286.227 -18.445 282.353 -10.0649 276.815C-0.668245 270.623 1.37737 262.154 3.46527 251.735Z" stroke="#75B7BB"/>
<path fill-rule="evenodd" clip-rule="evenodd" d="M7.18986 257.096C13.1163 239.104 19.2401 205.925 42.8271 202.916C55.2898 201.323 67.5436 208.294 77.1813 214.784C84.9438 220 93.2479 227.348 103.548 226.855C111.12 226.491 115.294 219.117 121.642 215.53C129.513 211.086 138.485 209.981 147.106 211.028C171.197 213.951 193.225 229.483 210.165 245.041C227.756 261.199 242.999 283.143 252.435 305.467C264.197 333.304 263.811 363.357 254.911 393.004C253.267 398.476 251.355 403.866 249.592 409.305C248.411 412.955 247.906 417.122 246.338 420.636C243.722 426.493 238.35 428.047 232.528 427.747C224.151 427.32 215.915 424.742 207.913 422.706C196.967 419.925 185.942 416.919 174.769 415.324C167.255 414.257 159.293 413.238 152.166 417.295C147.304 420.061 143.047 423.883 139.135 427.87C130.747 436.421 123.477 442.849 111.974 446.859C93.0744 453.428 72.1435 455.398 52.6008 454.911C37.2635 454.528 13.2111 453.706 6.75825 437.255C0.959514 422.503 5.66364 405.778 7.55662 390.346C8.47655 382.843 8.62531 375.3 7.27648 367.96C5.57552 358.706 2.00393 351.965 -3.86778 344.858C-13.7496 332.896 -29.9483 316.156 -19.5016 298.957C-15.647 292.609 -9.65149 288.037 -5.13785 282.215C0.840593 274.528 4.20098 266.171 7.18986 257.096Z" stroke="#75B7BB"/>
<path fill-rule="evenodd" clip-rule="evenodd" d="M13.0198 263.811C21.8095 246.43 32.6575 224.295 54.6628 223.041C65.3223 222.432 75.5409 226.352 84.7361 230.84C91.3229 234.053 99.5996 241.337 107.79 239.155C113.812 237.545 119.382 232.586 125.467 230.493C133.831 227.615 142.616 227.139 151.115 228.389C173.259 231.643 193.449 244.534 209.577 258.572C244.619 289.078 259.907 340.486 247.731 387.737C244.104 401.823 241.427 418 223.927 418.598C204.829 419.243 186.306 409.969 168.28 405.971C161.394 404.442 152.813 402.3 145.617 404.801C141.29 406.304 137.537 409.864 134.264 413.008C125.922 421.01 117.929 427.717 107.189 432.228C90.5952 439.202 72.0536 442.403 54.4566 442.617C39.1114 442.802 19.1758 441.118 13.7654 424.512C9.62707 411.769 13.4051 397.285 13.5779 383.996C13.7761 369.201 9.80142 355.124 2.35777 342.744C-4.88952 330.707 -13.8501 318.516 -8.75721 303.26C-7.01022 298.027 -4.3124 291.687 -1.10293 287.17C4.21129 279.746 8.93449 271.934 13.0198 263.811Z" stroke="#75B7BB"/>
<path fill-rule="evenodd" clip-rule="evenodd" d="M19.9219 270.898C31.1482 255.697 44.7054 241.698 64.3531 240.517C73.5209 239.968 82.42 241.964 91.0558 244.345C97.4097 246.096 103.536 248.341 110.335 247.595C116.633 246.907 122.82 244.983 129.112 244.106C137.433 242.927 145.819 243.089 153.946 244.584C174.301 248.348 192.852 259.139 208.233 271.828C215.682 277.968 223.392 284.998 228.358 293.53C233.155 301.768 236.879 310.933 239.699 320.097C245.702 339.573 246.877 360.48 242.407 380.957C239.339 395.001 233.987 406.288 218.201 407.86C200.406 409.631 182.445 402.467 165.741 398.462C154.284 395.715 142.056 392.024 131.474 399.952C123.054 406.26 115.207 412.391 105.513 416.619C91.1781 422.819 75.8968 426.139 60.5757 426.382C46.5914 426.577 31.8529 423.871 25.7778 410.223C20.9698 399.404 21.6407 386.608 19.6278 374.968C17.3964 361.984 12.0019 350.661 5.58342 339.475C-0.176266 329.414 -4.3198 318.661 -2.41623 306.532C-2.02883 304.052 -1.56684 301.392 -0.769681 298.981C0.247625 295.905 2.3562 293.957 4.44803 291.461C9.97537 284.88 14.84 277.777 19.9219 270.898Z" stroke="#75B7BB"/>
<path fill-rule="evenodd" clip-rule="evenodd" d="M28.714 277.53C41.4347 265.149 56.1571 256.148 73.7736 254.202C81.3076 253.367 88.754 253.921 96.2742 253.772C102.333 253.649 108.01 253.582 113.969 254.447C128.096 256.511 142.48 255.285 156.453 258.517C175.117 262.821 192.24 272.006 206.88 283.472C214.029 289.07 220.884 295.383 226.456 302.707C231.242 308.997 233.905 316.942 236.124 324.564C240.476 339.499 242.318 356.383 239.064 372.16C231.89 406.944 189.42 394.979 166.519 389.942C155.985 387.626 141.41 382.568 130.64 388.075C122.944 392.008 115.886 396.775 107.828 399.987C86.1884 408.612 55.1801 413.199 39.9452 393.225C33.4245 384.68 30.6711 373.701 26.3996 363.908C22.0019 353.824 16.1132 344.765 10.3264 335.5C4.91693 326.841 1.62284 318.923 3.27784 308.181C4.06639 303.05 7.80167 299.698 11.2395 295.873C16.8886 289.593 22.6924 283.398 28.714 277.53Z" stroke="#75B7BB"/>
<path fill-rule="evenodd" clip-rule="evenodd" d="M37.3438 282.945C59.1165 266.829 90.3025 256.65 116.749 261.093C147.859 266.319 178.44 275.103 203.279 293.677C214.795 302.288 226.534 312.597 231.28 326.844C234.894 337.684 237.888 351.479 234.27 363.052C225.424 391.359 188.991 384.505 168.065 380.768C156.8 378.756 143.84 374.814 132.08 376.567C125.259 377.581 118.595 381.281 111.948 383.24C91.8068 389.176 69.5982 388 53.1529 375.316C45.55 369.451 39.8414 361.593 34.0127 354.055C28.0457 346.34 21.5942 338.939 16.0153 330.921C11.5627 324.519 6.81663 316.474 10.9458 308.347C16.1473 298.104 28.4532 289.527 37.3438 282.945Z" stroke="#75B7BB"/>
<path fill-rule="evenodd" clip-rule="evenodd" d="M47.2733 286.787C69.2091 273.101 95.3173 264.462 120.634 268.513C134.059 270.661 146.99 275.808 159.514 280.641C173.709 286.12 187.37 293.015 199.546 301.835C214.706 312.815 237.759 332.099 228.874 354.642C220.055 377.016 189.124 373.693 171.129 371.432C159.596 369.978 148.021 367.653 136.308 366.958C129.957 366.581 123.914 367.44 117.564 368.096C99.9898 369.934 81.0887 366.401 65.5535 359.069C50.496 351.964 35.027 340.016 24.644 327.005C20.1616 321.393 18.4598 315.88 22.3512 308.936C27.7674 299.289 38.2108 292.44 47.2733 286.787Z" stroke="#75B7BB"/>
<path fill-rule="evenodd" clip-rule="evenodd" d="M58.9132 288.833C78.6928 277.249 101.854 271.764 124.158 275.244C149.161 279.144 173.632 291.889 193.717 306.011C204.391 313.519 228.386 328.926 220.732 345.848C213.077 362.77 187.572 361.484 173.196 360.44C155.76 359.161 137.871 356.872 120.546 354.043C105.488 351.59 89.7028 348.691 75.353 344.074C67.2437 341.486 59.418 338.169 51.9686 334.161C46.4627 331.184 39.1835 327.675 35.6771 322.287C26.8361 308.693 49.4552 294.371 58.9132 288.833Z" stroke="#75B7BB"/>
<path fill-rule="evenodd" clip-rule="evenodd" d="M72.0553 292.583C110.702 271.917 153.773 285.817 186.284 308.16C193.837 313.353 215.958 326.965 210.461 339.586C205.13 351.822 183.734 351.26 173.659 351.055C142.439 350.421 111.422 342.082 81.5425 334.669C72.216 332.355 54.11 329.467 50.4001 318.737C46.3791 307.08 64.0433 296.87 72.0553 292.583Z" stroke="#75B7BB"/>
<path fill-rule="evenodd" clip-rule="evenodd" d="M86.9728 296.085C116.631 282.064 151.899 292.279 176.937 309.059C183.068 313.169 199.221 323.03 197.005 333.003C194.956 342.23 178.221 341.834 171.77 341.875C157.407 341.969 142.997 339.468 128.92 336.839C115.901 334.411 102.666 332.032 90.0605 328.384C83.4225 326.461 70.3639 323.463 69.14 314.959C67.8192 305.806 80.3873 299.198 86.9728 296.085Z" stroke="#75B7BB"/>
<path fill-rule="evenodd" clip-rule="evenodd" d="M103.502 299.852C123.723 291.549 148.945 298.248 166.102 309.25C170.717 312.212 181.049 318.257 180.436 325.261C179.87 331.711 169.986 332.112 165.507 332.382C145.653 333.582 122.591 329.326 104.301 322.587C99.7027 320.892 91.1965 318.086 90.8904 311.918C90.5796 305.589 98.8581 301.758 103.502 299.852Z" stroke="#75B7BB"/>
<path fill-rule="evenodd" clip-rule="evenodd" d="M120.259 304.627C130.699 300.903 144.819 304.336 153.79 309.906C160.102 313.826 165.219 321.01 154.595 322.715C144.048 324.403 130.241 321.771 120.798 317.282C113.594 313.856 111.292 307.827 120.259 304.627Z" stroke="#75B7BB"/>
<path fill-rule="evenodd" clip-rule="evenodd" d="M-201.105 81.3657C-187.329 67.1587 -179.834 45.5712 -162.097 34.7945C-147.531 25.943 -132.167 39.3514 -118.232 42.6768C-107.16 45.3204 -95.8022 41.7466 -84.9301 38.2922C-75.1668 35.1936 -65.5493 31.5625 -55.7136 28.7476C-49.352 26.9308 -37.4201 22.8033 -32.3469 27.5864C-27.4894 32.1646 -29.4206 42.748 -30.3789 49.1874C-31.6272 57.582 -33.5994 65.89 -35.0281 74.2581C-37.4433 88.3679 -36.5434 101.499 -34.2984 115.321C-31.7427 131.049 -28.8111 146.703 -25.5036 162.283C-23.082 173.767 -20.5789 185.265 -18.8745 196.927C-17.8065 204.243 -14.4156 219.358 -20.1326 225.16C-22.8606 227.928 -28.3717 228.504 -32.2321 229.037C-38.7657 229.941 -45.3742 230.132 -51.9194 230.24C-64.1107 230.442 -76.2752 230.108 -88.4436 229.913C-104.237 229.66 -119.543 229.64 -135.418 231.408C-151.841 233.246 -168.239 235.711 -184.65 237.905C-195.767 239.393 -207.654 241.66 -218.465 238.583C-231.997 234.719 -234.04 222.482 -242.777 213.627C-250.292 206.008 -231.229 188.061 -227.045 181.954C-222.802 175.781 -220.08 168.806 -215.684 162.761C-210.195 155.216 -203.541 148.535 -197.207 141.696C-189.457 133.333 -181.909 125.541 -186.996 114.31C-189.893 107.921 -194.55 102.531 -198.31 96.6789C-200.745 92.8868 -205.458 85.8539 -201.105 81.3657Z" stroke="#75B7BB"/>
<path fill-rule="evenodd" clip-rule="evenodd" d="M-194.896 82.5967C-183.961 70.0751 -173.635 50.3776 -157.097 42.7021C-142.965 36.1419 -129.784 46.6404 -116.377 49.178C-105.313 51.2767 -95.048 46.8711 -84.5519 42.9546C-76.1317 39.8131 -67.7357 36.5362 -59.1435 33.9361C-52.8115 32.02 -42.4777 28.4289 -37.0334 32.1663C-32.1388 35.526 -33.8593 46.0987 -34.6697 51.5424C-35.855 59.4875 -37.9221 67.336 -39.7901 75.1757C-43.0697 88.9481 -45.3647 101.987 -43.9493 115.929C-42.5269 129.932 -38.7923 143.073 -35.1596 156.496C-32.3182 166.997 -29.6219 177.576 -27.705 188.336C-26.2755 196.349 -23.7006 207.352 -27.4107 215.383C-30.3444 221.737 -46.7248 220.77 -52.0027 220.932C-62.8604 221.259 -73.6898 220.93 -84.4972 220.559C-97.6695 220.103 -110.261 218.631 -123.532 219.867C-147.262 222.071 -172.407 229.223 -195.894 225.012C-210.06 222.472 -220.841 214.663 -229.262 204.503C-232.597 200.48 -227.999 194.116 -225.265 190.455C-220.725 184.373 -215.42 178.873 -210.68 172.948C-206.243 167.401 -202.734 161.425 -198.832 155.536C-194.878 149.571 -190.078 144.208 -185.825 138.474C-183.184 134.915 -180.029 130.854 -179.543 126.356C-179.038 121.7 -181.381 117.195 -183.552 113.381C-187.645 106.233 -202.612 91.434 -194.896 82.5967Z" stroke="#75B7BB"/>
<path fill-rule="evenodd" clip-rule="evenodd" d="M-185.199 82.475C-175.767 70.3753 -164.225 55.0988 -148.872 50.6143C-136.32 46.946 -125.097 54.6699 -113.046 56.152C-103.024 57.3856 -93.9087 52.5222 -84.6202 48.8208C-77.0005 45.7857 -69.3456 42.7393 -61.4977 40.4481C-55.546 38.7105 -47.6177 36.2131 -42.0929 39.0555C-37.3698 41.4864 -38.463 50.6612 -39.0353 55.1997C-40.0139 62.9311 -42.1408 70.5637 -44.2219 78.113C-47.6286 90.4647 -51.9293 102.997 -51.9729 115.771C-52.0067 128.176 -48.33 139.194 -44.9723 150.807C-42.4014 159.703 -39.9879 168.685 -38.3572 177.858C-37.1031 184.9 -35.392 193.469 -38.0458 200.446C-40.3293 206.468 -50.0436 206.585 -55.3709 207.117C-64.1651 207.992 -72.9951 208.034 -81.7817 208.154C-91.2626 208.282 -100.874 207.535 -110.322 207.932C-130.197 208.776 -149.269 212.643 -168.934 208.851C-181.671 206.396 -196.562 200.845 -204.701 191.027C-210.553 183.964 -195.047 169.307 -190.849 163.868C-183.989 154.97 -177.68 144.722 -173.55 134.336C-170.018 125.43 -174.484 117.128 -178.962 109.86C-181.765 105.306 -185.148 100.977 -187.352 96.0651C-189.903 90.3774 -189.152 87.5467 -185.199 82.475Z" stroke="#75B7BB"/>
<path fill-rule="evenodd" clip-rule="evenodd" d="M-175.686 81.8947C-167.379 71.9985 -156.437 61.4139 -143.419 58.685C-132.013 56.2971 -122.17 62.5088 -111.028 62.7852C-102.334 63.0026 -93.673 57.8418 -85.6715 54.6329C-75.8894 50.7081 -59.1276 42.1539 -49.1607 46.9628C-39.8905 51.4378 -48.0193 73.941 -50.0983 80.9963C-53.3882 92.1639 -58.0214 103.386 -59.9197 114.839C-61.5527 124.7 -59.2178 133.389 -56.7815 142.653C-53.6828 154.473 -47.5283 170.969 -52.0386 183.456C-55.3984 192.761 -74.4797 192.509 -82.1683 193.595C-90.2041 194.726 -98.2373 197.558 -106.222 198.417C-118.822 199.772 -133.55 196.279 -145.36 193.044C-156.843 189.901 -170.955 185.02 -178.977 176.449C-184.249 170.817 -176.4 160.893 -173.223 155.389C-168.719 147.551 -165.405 139.805 -165.968 130.848C-166.541 121.73 -170.238 114.005 -174.48 106.24C-176.664 102.26 -179.479 98.0447 -180.422 93.4739C-181.494 88.4541 -178.879 85.6994 -175.686 81.8947Z" stroke="#75B7BB"/>
<path fill-rule="evenodd" clip-rule="evenodd" d="M-77.8829 643.813C-100.569 638.836 -123.514 630.509 -145.688 623.194C-178.09 612.501 -210.518 601.199 -241.245 586.645C-257.718 578.84 -279.696 569.359 -289.326 552.939C-292.847 546.936 -293.436 538.839 -295.266 532.13C-297.79 522.879 -300.568 513.708 -303.328 504.539C-308.869 486.153 -314.512 467.794 -319.437 449.201C-321.807 440.247 -323.154 430.607 -326.241 421.905C-328.043 416.818 -332.933 413.464 -336.718 409.887C-345.486 401.603 -354.465 393.541 -363.376 385.41C-374.275 375.464 -385.228 365.525 -395.474 354.903C-400.094 350.111 -412.501 339.466 -410.815 332.598C-409.906 328.901 -402.467 328.033 -399.023 327.634C-392.695 326.899 -386.299 326.93 -379.977 326.951C-365.357 326.999 -350.63 327.85 -335.972 326.231C-328.439 325.397 -318.939 324.674 -315.414 316.776C-311.852 308.8 -310.68 299.982 -307.264 291.9C-303.334 282.599 -297.563 274.601 -291.816 266.317C-287.57 260.193 -285.163 253.413 -282.439 246.577C-279.427 239.022 -276.452 231.341 -272.457 224.192C-269.819 219.469 -264.88 211.165 -258.904 212.482C-250.409 214.35 -243.376 226.749 -238.445 233.631C-231.63 243.141 -225.242 252.96 -218.579 262.578C-213.744 269.562 -208.992 276.671 -203.109 282.805C-193.626 292.692 -183.208 301.71 -172.896 310.718C-153.802 327.398 -134.406 343.52 -116.458 361.468C-100.734 377.192 -83.5915 432.722 -78.4655 444.608C-68.2349 468.331 -57.2016 492.156 -50.1124 517.198C-48.1966 523.974 -44.7457 533.901 -47.461 541.191C-49.1325 545.684 -51.5631 546.817 -50.2217 552.131C-48.3917 559.38 -43.6392 566.261 -39.8264 572.498C-33.6855 582.543 -27.1827 592.352 -20.82 602.251C-7.94169 622.261 4.35714 642.626 16.8523 662.883C20.6298 669.007 26.3597 675.256 29.0126 682.043C30.7278 686.412 28.741 687.767 24.3696 687.429C16.7001 686.838 8.94616 683.013 2.04847 680.152C-8.05755 675.96 -17.9619 671.332 -27.8321 666.663C-37.7022 661.993 -47.5291 657.206 -57.408 652.539C-63.9284 649.45 -70.8021 645.367 -77.8829 643.813Z" stroke="#75B7BB"/>
<path fill-rule="evenodd" clip-rule="evenodd" d="M-87.3169 630.484C-110.82 624.725 -134.129 615.553 -156.682 606.793C-185.551 595.587 -214.319 583.373 -240.951 567.781C-256.587 558.625 -274.789 547.575 -283.74 531.195C-286.933 525.351 -287.33 518.996 -288.574 512.493C-289.989 505.078 -291.824 497.743 -293.702 490.452C-297.57 475.443 -301.727 460.525 -306.173 445.697C-308.517 437.833 -310.44 428.517 -315.249 421.793C-319.071 416.446 -325.383 412.341 -330.309 408.056C-339.18 400.34 -348.067 392.644 -356.87 384.853C-367.026 375.862 -377.165 366.799 -386.666 357.112C-391.962 351.712 -402.001 343.392 -402.136 335.964C-402.254 329.483 -378.734 329.988 -374.435 329.914C-361.012 329.685 -347.574 330.123 -334.134 328.964C-326.201 328.288 -316.547 327.471 -309.312 323.296C-303.147 319.736 -300.12 311.683 -297.109 305.704C-293.335 298.218 -288.997 290.884 -285.642 283.216C-282.652 276.385 -281.334 268.954 -279.555 261.805C-277.597 253.941 -275.596 245.96 -272.431 238.41C-270.477 233.77 -267.18 226.027 -261.368 225.554C-254.661 225.015 -247.523 236.888 -244.132 241.312C-237.267 250.301 -230.98 259.744 -224.521 269.03C-213.792 284.451 -203.378 298.969 -189.572 311.792C-171.59 328.489 -152.758 344.301 -134.586 360.801C-127.872 366.891 -120.741 372.767 -114.673 379.513C-111.196 383.381 -109.583 387.362 -110.117 392.168C-110.844 398.73 -106.143 407.467 -103.561 414.232C-99.533 424.777 -95.1859 435.186 -90.8986 445.615C-81.4901 468.511 -71.5269 491.473 -64.9304 515.514C-62.8425 523.119 -60.3691 531.744 -61.3418 539.886C-61.8829 544.428 -64.8354 546.372 -66.3156 550.294C-68.252 555.463 -64.5404 562.382 -62.5255 566.721C-58.6392 575.098 -53.7608 582.986 -48.8367 590.73C-37.6937 608.251 -25.4245 624.713 -12.4043 640.822C-9.34982 644.594 2.84765 659.277 -10.2017 658.208C-24.621 657.029 -39.1272 649.012 -52.0393 643.561C-63.6647 638.643 -75.0636 633.486 -87.3169 630.484Z" stroke="#75B7BB"/>
<path fill-rule="evenodd" clip-rule="evenodd" d="M-105.896 608.623C-127.454 602.677 -148.512 593.266 -168.894 584.025C-193.627 572.812 -218.077 560.414 -240.303 544.939C-254.263 535.216 -268.946 523.788 -277.187 508.506C-282.816 498.071 -282.532 485.361 -285.117 473.837C-287.702 462.312 -290.847 450.776 -294.909 439.719C-297.431 432.857 -300.291 425.624 -305.798 420.69C-319.186 408.691 -333.521 397.67 -347.032 385.767C-355.975 377.898 -364.84 369.917 -373.139 361.353C-378.145 356.19 -385.452 349.527 -387.132 342.204C-388.986 334.107 -335.843 333.951 -330.34 333.455C-316.541 332.212 -298.957 329.832 -289.475 317.923C-280.411 306.537 -277.809 293.871 -275.489 280.168C-274.161 272.381 -272.344 249.848 -262.578 247.759C-256.997 246.564 -250.942 254.965 -247.739 258.63C-241.426 265.852 -235.674 273.56 -229.791 281.14C-221.206 292.186 -213.021 304.171 -203.72 314.586C-197.242 321.837 -189.82 328.225 -182.933 335.09C-173.059 344.935 -163.278 354.874 -153.512 364.826C-145.312 373.184 -136.885 381.453 -129.473 390.541C-124.86 396.185 -122.126 401.237 -121.721 408.189C-121.367 414.237 -118.205 420.733 -115.936 426.624C-112.186 436.351 -108.129 445.948 -104.139 455.568C-95.7874 475.71 -87.1488 495.892 -80.8791 516.895C-78.0152 526.482 -72.2548 541.654 -78.9442 551.264C-81.3558 554.729 -82.2378 556.387 -81.1887 560.777C-79.6991 567.009 -76.1444 572.701 -72.7424 577.962C-64.8117 590.227 -54.0976 600.292 -46.1588 612.515C-42.9364 617.503 -39.4818 624.768 -48.5307 624.443C-59.1011 624.076 -69.8661 618.92 -79.5693 615.52C-84.4122 613.822 -89.2534 611.925 -94.2788 610.739C-98.1429 609.833 -102.081 609.687 -105.896 608.623Z" stroke="#75B7BB"/>
</g>
</svg>
