<svg width="602" height="374" viewBox="0 0 602 374" fill="none" xmlns="http://www.w3.org/2000/svg">
<g style="mix-blend-mode:screen" opacity="0.2">
<path fill-rule="evenodd" clip-rule="evenodd" d="M477.595 -115.548C483.714 -121.721 479.783 -139.474 478.715 -147.668C476.606 -163.873 473.59 -179.905 470.766 -195.952C467.942 -212 465.075 -228.055 463.337 -244.311C462.207 -254.865 460.65 -267.037 463.416 -277.727C469.315 -300.506 493.797 -271.765 501.004 -265.186C519.342 -248.451 539.09 -227.971 562.995 -219C577.265 -213.645 588.653 -217.208 597.442 -230.211C600.306 -234.434 602.373 -240.522 607.528 -242.271C613.034 -244.139 619.346 -242.082 624.245 -240.036C642.111 -232.566 657.277 -218.604 671.332 -205.854C686.501 -192.119 700.88 -177.321 715.286 -163.026C721.394 -156.964 730.056 -152.916 737.725 -148.996C747.779 -143.857 758.045 -139.111 768.247 -134.247C790.678 -123.531 813.925 -112.622 832.947 -96.575C844.86 -86.5261 855.602 -73.2644 856.026 -56.6272C856.238 -48.2738 852.429 -39.9811 849.53 -32.1298C846.034 -22.6387 842.356 -13.2037 839.155 -3.62121C828.85 27.2435 823.411 62.0354 846.222 86.8679C849.673 90.6239 853.709 93.6667 857.389 97.1602C859.73 99.387 861.18 102.002 859.508 105.373C855.317 113.833 838.622 117.109 830.853 119.376C813.843 124.337 796.558 128.037 779.43 132.438C768.101 135.347 751.084 137.789 742.358 146.362C734.583 154.001 738.727 169.286 740.219 178.371C741.62 186.881 745.625 200.833 738.938 208.607C735.696 212.376 730.6 213.09 726.057 213.058C718.104 212.991 710.703 211.154 702.598 212.045C689.302 213.511 674.204 218.725 665.062 229.474C658.727 236.922 657.94 245.161 658.366 254.215C658.544 258.021 658.878 260.921 656.038 263.971C651.532 268.817 644.847 272.03 639.082 274.936C618.45 285.337 596.181 293.076 574.09 299.003C563.051 301.965 551.709 304.582 540.382 305.199C532.953 305.614 523.556 305.552 518.212 300.197C512.019 294.003 507.824 285.091 503.567 277.307C495.619 262.766 488.321 247.847 481.166 232.874C464.623 198.243 449.053 163.119 434.456 127.504C424.187 102.405 413.553 76.9202 406.785 50.4363C405.479 45.258 404.675 39.9403 404.386 34.5552C404.031 28.8479 401.466 23.8889 398.544 19.182C380.411 -10.032 350.222 -31.7147 323.782 -52.82C317.073 -58.1783 310.359 -63.5329 303.835 -69.1106C298.227 -73.9056 290.832 -78.9663 287.529 -85.7749C281.018 -99.1872 302.443 -103.195 311.307 -104.695C342.514 -109.976 374.674 -108.688 405.934 -108.944C420.809 -109.078 435.72 -109.136 450.619 -110.096C458.371 -110.589 472.231 -110.136 477.595 -115.548Z" stroke="#D6EAEB"/>
<path fill-rule="evenodd" clip-rule="evenodd" d="M483.098 -112.117C485.628 -122.594 483.464 -134.371 482.201 -144.682C480.386 -159.521 477.948 -174.26 475.816 -189.048C473.8 -203.031 471.836 -217.099 471.223 -231.302C470.85 -239.963 470.138 -250.586 474.127 -258.855C482.77 -276.78 505.723 -249.797 512.234 -243.98C528.418 -229.517 545.988 -212.34 567.159 -205.158C580.379 -200.673 591.259 -204.28 599.427 -216.224C602.254 -220.356 604.048 -224.502 608.998 -226.475C614.726 -228.759 621.183 -227.297 626.576 -225.43C643.47 -219.582 658.084 -207.315 671.387 -195.965C685.129 -184.24 699.108 -171.684 710.694 -158.621C715.328 -153.399 722.669 -149.394 728.826 -145.796C738.301 -140.262 748.003 -135.108 757.584 -129.754C777.06 -118.878 796.772 -107.45 813.031 -92.1334C824.769 -81.0757 834.808 -67.3463 837.159 -50.7313C839.537 -33.8885 832.589 -18.4132 827.26 -2.4258C818.038 25.2044 808.066 60.0391 825.467 85.2261C828.105 89.0462 831.529 91.8287 834.609 95.1993C836.194 96.9314 837.85 99.0524 836.966 101.619C834.67 108.281 820.498 110.487 815.053 111.904C800.008 115.821 784.736 118.582 769.607 122.05C757.593 124.802 743.519 127.135 732.976 134.096C720.183 142.543 726.828 164.302 724.345 176.774C720.036 198.4 696.243 189.384 681.973 187.479C665.587 185.289 644.972 190.573 642.315 209.88C641.3 217.265 642.716 223.686 638.659 230.589C632.312 241.384 620.835 249.496 610.558 256.164C595.103 266.181 578.202 274.476 560.842 280.137C548.41 284.188 528.535 290.158 519.323 279.007C513.116 271.507 508.511 262.176 503.927 253.413C497.06 240.294 490.757 226.864 484.644 213.349C470.509 182.173 457.499 150.373 445.868 118.074C437.934 96.0332 424.952 25.403 422.835 21.229C416.519 8.78625 405.316 -1.33844 395.171 -10.5334C381.678 -22.7658 367.245 -33.9303 352.943 -45.2047C346.139 -50.5754 339.145 -55.8173 332.673 -61.584C328.066 -65.6888 322.131 -71.1942 320.987 -77.6806C318.752 -90.3391 338.973 -93.9671 347.449 -95.5809C373.426 -100.536 400.116 -100.634 426.278 -101.861C439.12 -102.467 452.044 -102.969 464.861 -104.678C470.033 -105.371 481.537 -105.645 483.098 -112.117Z" stroke="#D6EAEB"/>
<path fill-rule="evenodd" clip-rule="evenodd" d="M491.93 -109.955C494.093 -133.82 488.795 -158.475 486.739 -182.27C485.708 -194.214 484.785 -206.348 485.69 -218.443C486.159 -224.734 486.798 -232.642 490.949 -237.914C502.054 -252.017 522.853 -227.808 530.067 -221.551C544.018 -209.457 559.434 -195.45 577.68 -190.067C588.83 -186.781 598.838 -189.679 605.97 -199.51C609.136 -203.872 611.402 -208 616.626 -210.166C621.919 -212.36 627.789 -211.773 633.039 -210.484C648.129 -206.784 661.624 -196.93 673.558 -187.709C687.547 -176.881 700.665 -164.996 712.808 -152.151C723.448 -140.905 737.745 -133.422 750.675 -124.983C767.802 -113.801 784.809 -101.987 798.901 -87.1111C810.028 -75.3604 819.107 -61.3818 822.375 -45.0924C825.682 -28.525 821.731 -12.6263 816.409 3.46942C808.362 27.8013 796.814 59.6434 808.529 83.6555C810.231 87.1495 812.554 89.6694 815.078 92.505C816.304 93.8818 817.961 95.5856 817.175 97.6631C815.28 102.664 802.854 103.607 798.922 104.334C786.371 106.657 773.725 108.214 761.144 110.311C749.399 112.268 736.93 114.077 725.861 119.066C708.238 127.015 716.227 149.957 703.61 161.708C695.775 169.002 683.484 167.56 674.294 165.875C662.985 163.795 650.311 157.19 638.54 162.26C629.772 166.036 630.038 173.603 628.294 181.379C625.341 194.554 614.758 205.834 604.891 214.637C591.56 226.534 575.957 236.533 559.593 243.358C552.176 246.452 544.061 249.273 536.08 249.457C528.603 249.631 524.166 247.156 520.07 241.492C507.532 224.152 499.141 202.375 490.794 182.071C480.307 156.559 470.849 130.514 462.959 103.962C457.58 85.8551 452.304 67.1142 450.789 48.0152C450.395 43.0367 450.134 37.7948 451.193 32.8073C451.981 29.0499 453.227 26.5433 452.021 22.7429C448.446 11.4803 437.122 2.16655 428.774 -5.38259C415.428 -17.4563 401.085 -28.4115 386.929 -39.5182C378.661 -45.9932 361.957 -57.06 362.832 -69.7074C363.59 -80.6265 379.676 -84.4507 387.951 -86.4623C408.879 -91.5474 430.484 -92.7728 451.693 -95.0727C461.412 -96.1267 471.343 -97.052 480.911 -99.4625C483.352 -100.075 486.84 -100.634 488.946 -102.237C491.354 -104.08 491.658 -107.019 491.93 -109.955Z" stroke="#D6EAEB"/>
<path fill-rule="evenodd" clip-rule="evenodd" d="M489.833 -105.993C491.313 -127.526 488.687 -149.059 488.691 -170.591C488.692 -180.245 488.883 -190.184 491.095 -199.751C492.284 -204.897 494.17 -210.984 498.652 -214.375C511.516 -224.108 529.004 -204.579 537.144 -197.764C549.227 -187.625 562.97 -175.84 578.887 -172.107C589.313 -169.662 597.62 -173.142 604.019 -181.944C610.882 -191.387 619.684 -194.421 630.795 -192.406C644.722 -189.875 657.431 -181.811 668.635 -173.907C682.125 -164.374 694.658 -153.594 706.084 -141.699C717.195 -130.129 730.186 -121.147 742.756 -111.185C759.419 -97.976 775.687 -83.4123 786.915 -65.104C796.69 -49.1631 801.51 -30.7557 799.71 -11.5435C797.839 8.51522 788.526 26.8319 783.779 46.3467C780.818 58.5187 777.231 74.95 782.896 86.4971C784.785 90.3485 791.34 94.2558 784.221 96.7894C780.151 98.2392 775.277 98.2081 771.084 98.5269C764.307 99.0426 757.528 99.3542 750.749 99.7669C736.299 100.648 721.206 101.211 707.045 105.203C689.21 110.224 689.939 128.543 677.191 138.969C670.331 144.581 661.245 145.449 652.988 145.011C647.643 144.731 642.372 143.847 637.184 142.751C631.764 141.607 626.253 139.352 620.627 139.254C612.616 139.108 609.731 145.535 605.411 151.384C597.822 161.665 589.041 171.038 579.268 179.288C567.291 189.402 553.746 198.58 539.107 204.018C533.41 206.136 527 208.012 521.013 207.265C515.027 206.519 511.724 202.857 508.655 198.211C499.544 184.437 493.551 167.593 487.838 151.597C480.69 131.575 474.565 111.063 470.03 90.1613C466.9 75.7327 464.195 60.8215 464.509 45.8168C464.602 41.4513 464.957 37.0317 465.979 32.7233C466.678 29.7674 468.431 26.804 468.17 23.7954C467.343 14.392 455.793 5.40283 449.544 -0.346889C437.075 -11.8226 422.929 -21.2446 410.398 -32.6279C403.558 -38.8399 392.549 -48.2712 393.619 -58.9263C394.623 -68.9444 407.386 -73.5426 415.39 -76.1594C431.125 -81.307 447.539 -83.4974 463.62 -86.8289C470.235 -88.2023 477.285 -89.509 483.544 -92.372C489.117 -94.9268 489.453 -100.473 489.833 -105.993Z" stroke="#D6EAEB"/>
<path fill-rule="evenodd" clip-rule="evenodd" d="M492.111 -103.339C494.256 -121.445 493.623 -140.055 495.875 -158.384C497.196 -169.115 499.223 -187.349 511.358 -192.206C524.686 -197.55 538.856 -183.888 547.652 -176.597C558.121 -167.919 570.587 -157.899 584.61 -155.535C589.044 -154.786 593.69 -155.018 597.839 -157.295C602.279 -159.732 604.192 -163.836 607.492 -167.42C614.414 -174.94 624.296 -176.652 633.684 -175.226C646.954 -173.213 659.17 -166.32 670.051 -159.15C682.369 -151.017 693.795 -141.654 704.167 -131.194C714.085 -121.205 724.167 -111.589 734.399 -101.893C747.789 -89.2202 760.424 -75.4274 769.413 -59.1354C778.266 -43.0839 782.84 -25.0167 781.81 -6.20074C780.802 12.1579 774.82 29.8469 767.89 47.0295C763.956 56.7812 758.644 71.9212 762.126 82.3159C763.673 86.9396 766.807 89.8616 759.525 90.5817C750.356 91.488 740.746 89.9621 731.652 89.4857C718.532 88.801 705.116 88.0648 691.93 89.6636C683.509 90.6843 677.279 93.6165 671.421 99.9834C666.962 104.837 663.247 110.338 658.122 114.56C646.093 124.473 630.38 123.807 616.133 123.572C606.97 123.42 599.279 122.603 590.472 126.615C580.061 131.355 570.629 138.406 560.869 144.376C550.149 150.932 538.76 157.512 526.609 160.576C515.791 163.304 507.834 161.422 502.296 152.234C493.656 137.906 489.343 119.581 485.629 102.905C481.846 85.9338 479.061 68.3211 479.526 50.6585C479.778 41.1216 482.356 32.2061 483.491 22.8252C484.906 11.0382 470.674 1.80629 463.143 -4.60722C450.642 -15.2536 407.282 -44.7306 433.125 -63.8526C443.912 -71.8341 458.096 -74.971 470.417 -79.2122C475.528 -80.9746 482.075 -82.6758 486.392 -86.2352C491.094 -90.1117 491.463 -97.8911 492.111 -103.339Z" stroke="#D6EAEB"/>
<path fill-rule="evenodd" clip-rule="evenodd" d="M495.465 -98.2649C498.542 -113.54 499.912 -129.507 504.589 -144.651C507.613 -154.464 512.855 -166.373 524.025 -168.785C536.631 -171.505 549.317 -162.393 558.302 -155.361C567.558 -148.115 578.254 -139.11 590.809 -138.177C594.805 -137.882 599.07 -138.61 602.388 -141.269C605.572 -143.819 607.543 -147.582 610.759 -150.204C617.979 -156.093 627.146 -157.726 635.919 -156.787C661.872 -154.009 685.829 -135.205 703.464 -118.175C712.29 -109.65 720.429 -99.9318 728.594 -90.6341C739.19 -78.5691 748.96 -65.6451 755.965 -51.0389C770.863 -19.9868 768.347 13.3266 756.81 46.3732C753.178 56.7746 748.177 66.9567 747.842 77.8999C747.665 83.5461 744.977 85.0397 739.526 84.8995C731.005 84.6784 722.502 82.5183 714.187 81.1306C702.362 79.1562 690.315 77.1076 678.312 76.9058C670.038 76.7669 663.134 77.6998 656.128 82.8927C651.133 86.5946 646.853 91.1768 642.089 95.1637C633.036 102.736 622.253 108.451 610.872 110.859C601.842 112.76 592.632 113.483 583.51 113.833C571.642 114.297 560.556 115.738 548.908 118.726C533.481 122.672 507.547 132.473 498.754 114.223C489.058 94.0919 488.337 66.8561 491.614 44.4423C492.714 36.9162 495.366 28.989 494.212 21.4751C492.479 10.2339 485.729 3.8179 477.993 -3.87889C466.414 -15.4047 438.628 -37.897 456.619 -56.4306C463.747 -63.7728 473.555 -67.6468 481.935 -73.1854C491.332 -79.3774 493.377 -87.846 495.465 -98.2649Z" stroke="#D6EAEB"/>
<path fill-rule="evenodd" clip-rule="evenodd" d="M499.19 -92.9043C505.116 -110.896 511.24 -144.075 534.827 -147.084C547.29 -148.677 559.544 -141.706 569.181 -135.216C576.944 -130 585.248 -122.652 595.548 -123.145C603.12 -123.509 607.294 -130.883 613.642 -134.47C621.513 -138.914 630.485 -140.019 639.106 -138.972C663.197 -136.049 685.225 -120.517 702.165 -104.959C719.756 -88.8008 734.999 -66.857 744.435 -44.5331C756.197 -16.6959 755.811 13.3572 746.911 43.0043C745.267 48.4761 743.355 53.8662 741.592 59.3046C740.411 62.9547 739.906 67.1222 738.338 70.6362C735.722 76.4928 730.35 78.0468 724.528 77.7474C716.151 77.3202 707.915 74.7417 699.913 72.7061C688.967 69.9254 677.942 66.9185 666.769 65.3241C659.255 64.257 651.293 63.2384 644.166 67.2949C639.304 70.0609 635.047 73.883 631.135 77.8703C622.747 86.4211 615.477 92.8487 603.974 96.8588C585.074 103.428 564.144 105.398 544.601 104.911C529.263 104.528 505.211 103.706 498.758 87.2547C492.96 72.5033 497.664 55.7782 499.557 40.3459C500.477 32.8431 500.625 25.2996 499.276 17.9597C497.576 8.70618 494.004 1.96533 488.132 -5.14186C478.25 -17.1043 462.052 -33.8437 472.498 -51.0431C476.353 -57.3909 482.349 -61.9632 486.862 -67.7846C492.841 -75.4716 496.201 -83.8285 499.19 -92.9043Z" stroke="#D6EAEB"/>
<path fill-rule="evenodd" clip-rule="evenodd" d="M505.02 -86.1888C513.81 -103.57 524.658 -125.705 546.663 -126.959C557.322 -127.568 567.541 -123.648 576.736 -119.16C583.323 -115.947 591.6 -108.663 599.79 -110.845C605.812 -112.455 611.382 -117.414 617.467 -119.507C625.831 -122.385 634.616 -122.861 643.115 -121.611C665.259 -118.357 685.449 -105.466 701.577 -91.428C736.619 -60.9215 751.907 -9.51402 739.731 37.7368C736.104 51.823 733.427 67.9999 715.927 68.598C696.829 69.2432 678.306 59.9691 660.28 55.9715C653.394 54.442 644.813 52.2998 637.617 54.8013C633.29 56.3038 629.537 59.8639 626.264 63.008C617.922 71.0104 609.929 77.7166 599.189 82.2276C582.595 89.2017 564.054 92.4035 546.457 92.6172C531.111 92.8025 511.176 91.1184 505.765 74.5119C501.627 61.7694 505.405 47.2851 505.578 33.9959C505.776 19.2013 501.801 5.12397 494.358 -7.25633C487.11 -19.2933 478.15 -31.4839 483.243 -46.74C484.99 -51.9731 487.688 -58.3133 490.897 -62.8296C496.211 -70.2536 500.934 -78.0658 505.02 -86.1888Z" stroke="#D6EAEB"/>
<path fill-rule="evenodd" clip-rule="evenodd" d="M511.922 -79.1023C523.148 -94.3032 536.705 -108.302 556.353 -109.483C565.521 -110.032 574.42 -108.036 583.056 -105.655C589.41 -103.904 595.536 -101.659 602.335 -102.405C608.633 -103.093 614.82 -105.017 621.112 -105.894C629.433 -107.073 637.819 -106.911 645.946 -105.416C666.301 -101.652 684.852 -90.8611 700.233 -78.1717C707.682 -72.0315 715.392 -65.0019 720.358 -56.4702C725.155 -48.2323 728.879 -39.0674 731.699 -29.9027C737.702 -10.4266 738.877 10.4799 734.407 30.957C731.339 45.0009 725.987 56.2875 710.201 57.8601C692.406 59.6313 674.445 52.4666 657.741 48.4616C646.284 45.7148 634.056 42.0242 623.474 49.9523C615.054 56.2598 607.207 62.3914 597.513 66.6191C583.178 72.8188 567.897 76.1388 552.576 76.3821C538.591 76.5774 523.853 73.8715 517.778 60.2227C512.97 49.4038 513.641 36.6084 511.628 24.9681C509.396 11.9837 504.002 0.66076 497.583 -10.5248C491.824 -20.5857 487.68 -31.3387 489.584 -43.4677C489.971 -45.9478 490.433 -48.6077 491.23 -51.0186C492.248 -54.0945 494.356 -56.0434 496.448 -58.5395C501.975 -65.1199 506.84 -72.2233 511.922 -79.1023Z" stroke="#D6EAEB"/>
<path fill-rule="evenodd" clip-rule="evenodd" d="M520.714 -72.4703C533.435 -84.8515 548.157 -93.8524 565.773 -95.7983C573.307 -96.6328 580.754 -96.0792 588.274 -96.2276C594.333 -96.3509 600.01 -96.4182 605.969 -95.5528C620.096 -93.4891 634.48 -94.715 648.453 -91.4831C667.117 -87.1794 684.24 -77.9938 698.88 -66.528C706.029 -60.93 712.884 -54.617 718.456 -47.2929C723.242 -41.0026 725.905 -33.0581 728.124 -25.4364C732.476 -10.5012 734.318 6.3833 731.064 22.1603C723.89 56.9436 681.42 44.9789 658.518 39.9416C647.985 37.626 633.41 32.5681 622.64 38.0752C614.944 42.0082 607.885 46.7751 599.828 49.987C578.188 58.6116 547.18 63.1989 531.945 43.2251C525.424 34.6796 522.671 23.7013 518.399 13.9083C514.002 3.8239 508.113 -5.23479 502.326 -14.5005C496.917 -23.1589 493.623 -31.077 495.278 -41.8186C496.066 -46.9501 499.802 -50.3017 503.239 -54.1266C508.889 -60.4073 514.692 -66.6016 520.714 -72.4703Z" stroke="#D6EAEB"/>
<path fill-rule="evenodd" clip-rule="evenodd" d="M529.344 -67.0552C551.117 -83.1715 582.303 -93.3495 608.75 -88.9066C639.859 -83.6807 670.44 -74.8966 695.279 -56.323C706.796 -47.7119 718.534 -37.4026 723.28 -23.1561C726.894 -12.3161 729.888 1.47932 726.27 13.0515C717.424 41.3595 680.991 34.5046 660.066 30.768C648.8 28.7559 635.84 24.8138 624.08 26.5666C617.259 27.5811 610.595 31.2811 603.949 33.2399C583.807 39.1756 561.598 38.0001 545.153 25.3165C537.55 19.4511 531.842 11.593 526.013 4.05542C520.046 -3.65991 513.594 -11.0608 508.015 -19.0793C503.563 -25.4808 498.817 -33.5265 502.946 -41.6532C508.147 -51.896 520.453 -60.4728 529.344 -67.0552Z" stroke="#D6EAEB"/>
<path fill-rule="evenodd" clip-rule="evenodd" d="M539.273 -63.2127C561.209 -76.8989 587.317 -85.5379 612.634 -81.4872C626.059 -79.3387 638.99 -74.1916 651.514 -69.3587C665.709 -63.8796 679.37 -56.9845 691.546 -48.1651C706.706 -37.1851 729.759 -17.9007 720.874 4.64151C712.055 27.0162 681.124 23.6933 663.129 21.4317C651.596 19.9776 640.021 17.6534 628.308 16.9583C621.957 16.5809 615.914 17.4403 609.564 18.0965C591.99 19.934 573.089 16.4005 557.554 9.06895C542.496 1.96413 527.027 -9.98389 516.644 -22.9951C512.162 -28.6069 510.46 -34.1201 514.351 -41.0642C519.767 -50.7107 530.211 -57.5603 539.273 -63.2127Z" stroke="#D6EAEB"/>
<path fill-rule="evenodd" clip-rule="evenodd" d="M550.913 -61.1671C570.693 -72.7514 593.854 -78.2364 616.158 -74.7565C641.161 -70.8562 665.632 -58.1108 685.716 -43.989C696.391 -36.4814 720.386 -21.0739 712.732 -4.152C705.077 12.77 679.572 11.4837 665.195 10.4399C647.759 9.16069 629.871 6.87174 612.545 4.04298C597.488 1.58979 581.703 -1.30945 567.353 -5.92591C559.244 -8.51354 551.418 -11.8308 543.968 -15.8386C538.463 -18.8165 531.183 -22.3252 527.677 -27.7132C518.836 -41.3067 541.455 -55.6287 550.913 -61.1671Z" stroke="#D6EAEB"/>
<path fill-rule="evenodd" clip-rule="evenodd" d="M564.055 -57.417C602.702 -78.0826 645.773 -64.1828 678.284 -41.8399C685.837 -36.6468 707.958 -23.0355 702.461 -10.4137C697.13 1.82192 675.734 1.25976 665.659 1.05505C634.439 0.42078 603.422 -7.91808 573.542 -15.3312C564.216 -17.6452 546.11 -20.5334 542.4 -31.263C538.379 -42.9198 556.043 -53.1302 564.055 -57.417Z" stroke="#D6EAEB"/>
<path fill-rule="evenodd" clip-rule="evenodd" d="M578.973 -53.9154C608.631 -67.9364 643.899 -57.7207 668.937 -40.9414C675.068 -36.8306 691.221 -26.97 689.005 -16.9967C686.956 -7.76951 670.221 -8.1664 663.77 -8.12506C649.407 -8.03113 634.997 -10.5316 620.92 -13.1611C607.901 -15.5891 594.666 -17.9679 582.061 -21.6161C575.423 -23.5389 562.364 -26.5366 561.14 -35.0411C559.819 -44.1942 572.387 -50.8019 578.973 -53.9154Z" stroke="#D6EAEB"/>
<path fill-rule="evenodd" clip-rule="evenodd" d="M595.502 -50.1481C615.723 -58.451 640.946 -51.7517 658.102 -40.75C662.717 -37.7878 673.049 -31.7435 672.436 -24.7387C671.87 -18.2887 661.986 -17.8882 657.507 -17.6178C637.653 -16.4181 614.591 -20.6738 596.301 -27.4132C591.703 -29.1079 583.197 -31.9142 582.89 -38.0816C582.58 -44.4112 590.858 -48.2423 595.502 -50.1481Z" stroke="#D6EAEB"/>
<path fill-rule="evenodd" clip-rule="evenodd" d="M414.117 293.813C391.431 288.836 368.486 280.509 346.313 273.194C313.91 262.501 281.482 251.199 250.755 236.645C234.282 228.84 212.304 219.359 202.674 202.939C199.153 196.936 198.565 188.839 196.734 182.13C194.21 172.879 191.432 163.708 188.672 154.539C183.131 136.153 177.488 117.794 172.564 99.201C170.194 90.2473 168.846 80.6073 165.76 71.9046C163.957 66.8176 159.067 63.4638 155.282 59.8871C146.515 51.6029 137.535 43.5405 128.624 35.4101C117.725 25.4641 106.772 15.5249 96.526 4.90259C91.9059 0.110531 79.4989 -10.5341 81.185 -17.4017C82.0943 -21.0987 89.5327 -21.9669 92.9773 -22.3658C99.3052 -23.1014 105.702 -23.0702 112.023 -23.0492C126.643 -23.0007 141.371 -22.1498 156.028 -23.7688C163.561 -24.6029 173.061 -25.3257 176.586 -33.2238C180.148 -41.1995 181.32 -50.0179 184.736 -58.0996C188.666 -67.4013 194.437 -75.3995 200.184 -83.6829C204.43 -89.8066 206.837 -96.5872 209.561 -103.423C212.573 -110.978 215.548 -118.659 219.543 -125.808C222.181 -130.531 227.12 -138.835 233.096 -137.518C241.591 -135.65 248.624 -123.251 253.555 -116.369C260.371 -106.859 266.758 -97.0401 273.421 -87.422C278.256 -80.4376 283.008 -73.329 288.891 -67.1954C298.374 -57.3075 308.792 -48.29 319.104 -39.2819C338.198 -22.6018 357.594 -6.4797 375.542 11.4678C391.266 27.1918 408.409 82.7224 413.535 94.6076C423.765 118.331 434.799 142.156 441.888 167.198C443.804 173.974 447.254 183.901 444.539 191.191C442.868 195.684 440.437 196.817 441.778 202.131C443.608 209.38 448.361 216.261 452.174 222.498C458.315 232.543 464.817 242.352 471.18 252.251C484.058 272.261 496.357 292.626 508.852 312.883C512.63 319.007 518.36 325.256 521.013 332.043C522.728 336.412 520.741 337.767 516.37 337.429C508.7 336.838 500.946 333.013 494.049 330.152C483.943 325.96 474.038 321.332 464.168 316.663C454.298 311.993 444.471 307.206 434.592 302.539C428.072 299.45 421.198 295.367 414.117 293.813Z" stroke="#D6EAEB"/>
<path fill-rule="evenodd" clip-rule="evenodd" d="M404.683 280.484C381.18 274.725 357.871 265.553 335.318 256.793C306.449 245.587 277.681 233.373 251.049 217.781C235.413 208.625 217.211 197.575 208.26 181.195C205.067 175.351 204.67 168.996 203.426 162.493C202.011 155.078 200.176 147.743 198.298 140.452C194.43 125.443 190.273 110.525 185.827 95.6973C183.483 87.8326 181.56 78.5171 176.751 71.7927C172.929 66.4456 166.617 62.3405 161.691 58.0564C152.82 50.3404 143.933 42.6441 135.13 34.853C124.974 25.8621 114.835 16.7992 105.334 7.1117C100.038 1.7124 89.9994 -6.60837 89.864 -14.0363C89.7463 -20.5174 113.266 -20.0125 117.565 -20.0864C130.988 -20.3155 144.426 -19.8769 157.866 -21.0363C165.799 -21.7119 175.453 -22.5288 182.688 -26.7041C188.853 -30.2639 191.88 -38.3174 194.891 -44.2961C198.665 -51.782 203.003 -59.1159 206.358 -66.784C209.348 -73.6153 210.666 -81.0463 212.445 -88.195C214.403 -96.0587 216.404 -104.04 219.569 -111.59C221.523 -116.23 224.82 -123.973 230.632 -124.446C237.339 -124.985 244.477 -113.112 247.868 -108.688C254.733 -99.6994 261.02 -90.2556 267.479 -80.9699C278.208 -65.5487 288.622 -51.0312 302.428 -38.2079C320.41 -21.5108 339.242 -5.6988 357.414 10.8012C364.128 16.8909 371.259 22.7669 377.327 29.5127C380.804 33.3812 382.417 37.3617 381.883 42.1685C381.156 48.7303 385.857 57.4673 388.439 64.2317C392.467 74.7771 396.814 85.1864 401.101 95.6147C410.51 118.511 420.473 141.473 427.07 165.514C429.157 173.119 431.631 181.744 430.658 189.886C430.117 194.428 427.165 196.372 425.684 200.294C423.748 205.463 427.46 212.382 429.475 216.721C433.361 225.098 438.239 232.986 443.163 240.73C454.306 258.251 466.575 274.713 479.596 290.822C482.65 294.594 494.848 309.277 481.798 308.208C467.379 307.029 452.873 299.012 439.961 293.561C428.335 288.643 416.936 283.486 404.683 280.484Z" stroke="#D6EAEB"/>
<path fill-rule="evenodd" clip-rule="evenodd" d="M386.104 258.623C364.546 252.677 343.488 243.266 323.106 234.025C298.373 222.812 273.923 210.414 251.697 194.939C237.737 185.216 223.054 173.788 214.813 158.506C209.184 148.071 209.467 135.361 206.882 123.837C204.297 112.312 201.153 100.776 197.091 89.7195C194.569 82.8574 191.709 75.6238 186.202 70.6899C172.814 58.6914 158.479 47.6699 144.968 35.767C136.025 27.8981 127.16 19.9174 118.861 11.3533C113.855 6.19005 106.548 -0.472599 104.868 -7.79616C103.014 -15.8931 156.157 -16.0494 161.66 -16.5449C175.459 -17.7881 193.043 -20.1676 202.525 -32.0774C211.589 -43.4634 214.191 -56.1291 216.511 -69.8321C217.839 -77.6193 219.656 -100.152 229.422 -102.241C235.003 -103.436 241.058 -95.0351 244.261 -91.3703C250.573 -84.1481 256.326 -76.4403 262.209 -68.8599C270.794 -57.8143 278.979 -45.8287 288.28 -35.414C294.758 -28.1629 302.18 -21.7754 309.067 -14.91C318.941 -5.0648 328.722 4.87352 338.488 14.8262C346.688 23.1835 355.115 31.453 362.527 40.5408C367.14 46.1852 369.874 51.2366 370.279 58.1887C370.633 64.2369 373.795 70.7335 376.064 76.6237C379.814 86.3509 383.871 95.948 387.86 105.568C396.212 125.71 404.851 145.892 411.121 166.895C413.985 176.482 419.745 191.654 413.056 201.264C410.644 204.729 409.762 206.387 410.811 210.777C412.301 217.009 415.855 222.701 419.257 227.962C427.188 240.227 437.902 250.292 445.841 262.515C449.064 267.503 452.518 274.768 443.469 274.443C432.899 274.076 422.134 268.92 412.431 265.52C407.588 263.822 402.746 261.925 397.721 260.739C393.857 259.833 389.919 259.687 386.104 258.623Z" stroke="#D6EAEB"/>
<path fill-rule="evenodd" clip-rule="evenodd" d="M362.494 230.139C343.449 223.773 325.041 214.585 307.335 205.189C287.674 194.748 268.442 183.151 251.199 169.158C239.29 159.499 227.467 148.341 220.445 134.43C216.005 125.631 216.1 116.561 214.247 107.022C211.459 92.6171 206.761 78.7138 195.313 69.5063C182.482 59.1807 169.925 48.5042 157.644 37.4769C150.235 30.8258 142.895 24.0523 136.12 16.75C131.835 12.1347 126.38 6.12323 124.636 0.124763C122.305 -7.90386 163.438 -10.1232 169.023 -10.8571C182.873 -12.6773 195.503 -16.489 207.787 -23.62C217.81 -29.4401 219.744 -39.9593 221.241 -50.3127C222.168 -56.7453 222.528 -74.8955 230.091 -76.8887C234.254 -77.9962 239.152 -72.8258 241.99 -70.2568C247.398 -65.3589 252.307 -59.9183 257.343 -54.6489C264.772 -46.8607 274.104 -39.9946 280.656 -31.4578C295.178 -12.5413 309.953 6.03839 325.27 24.3674C333.714 34.4703 342.29 44.5539 349.881 55.3438C352.606 59.2176 355.406 63.2342 357.232 67.66C358.409 70.5059 358.084 73.024 358.614 75.888C361.153 89.5341 368.859 102.955 374.413 115.629C381.798 132.477 389.321 149.316 395.526 166.7C398.789 175.843 404.075 187.886 402.343 198.155C401.82 201.258 399.82 202.159 398.888 204.713C397.811 207.657 400.047 211.092 401.319 213.484C404.203 218.913 419.677 238.235 404.194 237.683C396.812 237.413 389.656 234.82 382.549 233.303C379.975 232.753 377.435 232.249 374.767 232.313C370.299 232.426 366.847 231.587 362.494 230.139Z" stroke="#D6EAEB"/>
<path fill-rule="evenodd" clip-rule="evenodd" d="M337.486 199.641C302.146 184.815 265.763 162.408 239.771 133.708C231.129 124.163 222.853 112.87 220.131 99.8266C218.531 92.1301 218.258 84.9745 213.775 78.29C210.539 73.4649 205.297 70.0266 200.916 66.2985C194.57 60.8993 188.271 55.4465 182.047 49.9079C174.338 43.0347 166.701 36.0426 159.568 28.5659C154.473 23.2226 147.125 16.1548 145.55 8.66186C143.665 -0.280592 174 -3.05624 178.888 -4.06726C190.737 -6.5177 200.958 -10.1506 210.765 -17.5765C213.626 -19.7366 217.38 -21.1296 219.757 -23.8129C222.181 -26.5568 222.973 -30.366 223.612 -33.7907C224.453 -38.2751 224.449 -50.9106 229.506 -52.3486C232.3 -53.1418 236.279 -49.6142 238.605 -48.0488C242.972 -45.1163 247.06 -41.7993 251.302 -38.6977C258.504 -33.4399 267.854 -30.4194 274.016 -24.0779C290.591 -7.02949 302.145 15.527 315.598 35.0235C323.59 46.6201 331.816 58.1163 339.051 70.2323C341.339 74.0665 343.692 78.0194 345.291 82.2402C346.408 85.1854 346.082 88.1199 346.939 91.0248C350.219 102.17 356.127 112.851 361.225 123.243C367.837 136.741 374.587 150.169 380.906 163.819C384.868 172.375 390.895 182.443 392.027 192.097C392.855 199.147 389.232 197.386 384.256 198.205C381.717 198.622 380.506 200.323 378.372 201.535C375.325 203.265 371.745 203.124 368.454 202.925C363.912 202.654 358.947 201.207 354.361 201.858C352.745 202.086 351.634 203.262 350.269 203.504C346.296 204.212 340.809 201.035 337.486 199.641Z" stroke="#D6EAEB"/>
<path fill-rule="evenodd" clip-rule="evenodd" d="M314.472 169.319C287.667 155.41 261.344 136.432 241.53 113.209C234.637 105.129 228.483 96.2165 224.539 86.2126C222.74 81.6656 221.89 77.7518 218.496 74.1924C210.618 65.9348 201.86 58.5074 193.635 50.6012C187.748 44.9439 181.905 39.1841 176.636 32.9358C173.113 28.7589 168.297 23.1611 167.634 17.5151C166.679 9.30243 187.29 5.24091 192.382 3.51676C200.826 0.655437 209.878 -2.85941 215.312 -10.5066C216.972 -12.8462 218.138 -15.2141 220.1 -17.3318C221.778 -19.1591 223.604 -20.5683 224.691 -22.8328C226.04 -25.6384 226.024 -32.101 229.05 -32.8996C231.115 -33.4466 233.427 -31.2565 235.342 -30.1771C238.449 -28.4262 241.709 -26.9441 245.09 -25.7459C248.656 -24.4904 252.493 -24.2227 255.945 -22.6797C261.545 -20.1719 266.229 -15.7793 270.483 -11.5111C287.457 5.52025 301.135 26.2775 314.006 46.5494C320.709 57.1054 327.332 67.8362 332.796 79.145C334.455 82.5795 336.449 86.3571 337.049 90.2359C337.426 92.6538 337.094 94.8801 337.914 97.2352C344.918 117.349 358.161 135.46 367.822 154.589C370.336 159.568 384.874 186.559 368.161 181.559C358.006 178.522 349.419 173.171 338.532 172.021C335.219 171.668 332.771 171.671 329.796 173.213C327.821 174.244 329.719 174.617 326.562 174.603C322.75 174.568 317.596 170.939 314.472 169.319Z" stroke="#D6EAEB"/>
<path fill-rule="evenodd" clip-rule="evenodd" d="M297.119 144.338C268.022 125.769 242.532 100.779 222.988 71.9032C218.06 64.625 211.428 58.5542 205.548 52.0775C199.832 45.7887 188.564 35.712 189.074 26.4819C189.444 19.7899 200.377 15.7173 205.513 12.9547C212.056 9.43523 218.574 5.55875 220.979 -1.80969C222.386 -6.12522 223.119 -10.841 224.394 -15.2353C225.002 -17.3349 225.541 -20.9452 227.464 -21.5874C230.639 -22.6444 236.483 -18.5811 239.885 -17.1754C250.757 -12.6815 259.707 -5.3595 267.898 2.87733C283.028 18.0907 296.089 35.5299 308.002 53.3813C313.483 61.5948 318.968 69.9948 323.196 78.9736C325.589 84.0536 325.754 89.4014 327.786 94.506C334.325 110.946 344.023 125.935 351.184 142.149C353.255 146.843 361.526 163.842 350.015 162.623C338.872 161.441 330.475 151.86 319.381 150.139C318.119 149.95 316.58 149.695 315.292 150.142C314.525 150.412 313.975 151.837 313.491 151.943C308.316 153.182 300.811 146.696 297.119 144.338Z" stroke="#D6EAEB"/>
<path fill-rule="evenodd" clip-rule="evenodd" d="M285.156 125.418C271.16 114.961 258.225 102.903 245.68 90.5815C238.823 83.8465 230.899 76.8365 226.066 68.3705C223.1 63.1671 220.133 58.2436 216.627 53.3279C212.855 48.0383 206.112 40.1914 207.466 33.3198C208.478 28.1854 216.208 23.2806 220.02 19.6187C224.198 15.6004 226.441 11.7648 226.632 6.08983C226.754 2.51886 225.549 -12.0944 228.396 -13.1136C231.107 -14.0853 236.901 -8.85651 239.762 -6.95205C248.811 -0.938407 256.972 6.16473 264.55 13.9082C276.289 25.8988 286.921 39.0845 296.406 52.9576C300.323 58.6979 304.369 64.6323 307.16 71.0664C309.038 75.4008 309.451 80.169 311.267 84.5243C316.462 97.0027 323.333 108.819 328.493 121.395C330.146 125.433 336.245 137.879 329.131 140.548C323.193 142.778 315.646 137.717 309.812 137.356C299.874 136.755 292.847 131.167 285.156 125.418Z" stroke="#D6EAEB"/>
<path fill-rule="evenodd" clip-rule="evenodd" d="M279.801 115.369C268.93 106.841 258.493 97.4281 248.626 87.6114C242.258 81.276 235.466 74.6665 230.739 66.9272C228.364 63.0404 227.412 58.5518 225.71 54.3277C223.955 49.9797 221.192 44.3217 222.847 40.0294C224.402 35.996 228.942 32.3819 231.223 27.9243C233.244 23.9668 233.065 20.0943 232.904 15.8922C232.806 13.2107 231.258 0.482165 233.318 0.0735177C235.525 -0.363573 239.704 4.03084 242.118 6.0789C248.776 11.7129 255.107 17.7174 261.083 24.0666C269.222 32.75 276.938 41.985 283.484 51.97C288.129 59.0514 289.65 66.3757 292.989 73.9705C297.307 83.8165 302.458 93.3383 306.449 103.376C308.438 108.378 311.673 115.49 309.574 121.168C308.772 123.347 305.65 127.805 303.393 128.529C300.682 129.4 296.496 126.734 294.419 125.577C289.219 122.674 284.421 118.993 279.801 115.369Z" stroke="#D6EAEB"/>
</g>
</svg>
