<svg width="396" height="44" viewBox="0 0 396 44" fill="none" xmlns="http://www.w3.org/2000/svg">
<g filter="url(#filter0_d_1199_81377)">
<rect x="2" y="1" width="392" height="40" rx="8" fill="white"/>
<path d="M31.5 28.5L27.875 24.875M29.8333 20.1667C29.8333 23.8486 26.8486 26.8333 23.1667 26.8333C19.4848 26.8333 16.5 23.8486 16.5 20.1667C16.5 16.4848 19.4848 13.5 23.1667 13.5C26.8486 13.5 29.8333 16.4848 29.8333 20.1667Z" stroke="#667085" stroke-width="1.66667" stroke-linecap="round" stroke-linejoin="round"/>
<path d="M49.7727 18.2727C49.7045 17.697 49.428 17.25 48.9432 16.9318C48.4583 16.6136 47.8636 16.4545 47.1591 16.4545C46.6439 16.4545 46.1932 16.5379 45.8068 16.7045C45.4242 16.8712 45.125 17.1004 44.9091 17.392C44.697 17.6837 44.5909 18.0152 44.5909 18.3864C44.5909 18.697 44.6648 18.964 44.8125 19.1875C44.964 19.4072 45.1572 19.5909 45.392 19.7386C45.6269 19.8826 45.8731 20.0019 46.1307 20.0966C46.3883 20.1875 46.625 20.2614 46.8409 20.3182L48.0227 20.6364C48.3258 20.7159 48.6629 20.8258 49.0341 20.9659C49.4091 21.1061 49.767 21.2973 50.108 21.5398C50.4527 21.7784 50.7367 22.0852 50.9602 22.4602C51.1837 22.8352 51.2955 23.2955 51.2955 23.8409C51.2955 24.4697 51.1307 25.0379 50.8011 25.5455C50.4754 26.053 49.9981 26.4564 49.3693 26.7557C48.7443 27.0549 47.9848 27.2045 47.0909 27.2045C46.2576 27.2045 45.536 27.0701 44.9261 26.8011C44.3201 26.5322 43.8428 26.1572 43.4943 25.6761C43.1496 25.1951 42.9545 24.6364 42.9091 24H44.3636C44.4015 24.4394 44.5492 24.803 44.8068 25.0909C45.0682 25.375 45.3977 25.5871 45.7955 25.7273C46.197 25.8636 46.6288 25.9318 47.0909 25.9318C47.6288 25.9318 48.1117 25.8447 48.5398 25.6705C48.9678 25.4924 49.3068 25.2462 49.5568 24.9318C49.8068 24.6136 49.9318 24.2424 49.9318 23.8182C49.9318 23.4318 49.8239 23.1174 49.608 22.875C49.392 22.6326 49.108 22.4356 48.7557 22.2841C48.4034 22.1326 48.0227 22 47.6136 21.8864L46.1818 21.4773C45.2727 21.2159 44.553 20.8428 44.0227 20.358C43.4924 19.8731 43.2273 19.2386 43.2273 18.4545C43.2273 17.803 43.4034 17.2348 43.7557 16.75C44.1117 16.2614 44.589 15.8826 45.1875 15.6136C45.7898 15.3409 46.4621 15.2045 47.2045 15.2045C47.9545 15.2045 48.6212 15.339 49.2045 15.608C49.7879 15.8731 50.25 16.2367 50.5909 16.6989C50.9356 17.161 51.1174 17.6856 51.1364 18.2727H49.7727ZM57.0895 27.1818C56.2486 27.1818 55.5232 26.9962 54.9134 26.625C54.3073 26.25 53.8395 25.7273 53.5099 25.0568C53.1842 24.3826 53.0213 23.5985 53.0213 22.7045C53.0213 21.8106 53.1842 21.0227 53.5099 20.3409C53.8395 19.6553 54.2978 19.1212 54.8849 18.7386C55.4759 18.3523 56.1652 18.1591 56.9531 18.1591C57.4077 18.1591 57.8565 18.2348 58.2997 18.3864C58.7429 18.5379 59.1463 18.7841 59.5099 19.125C59.8736 19.4621 60.1634 19.9091 60.3793 20.4659C60.5952 21.0227 60.7031 21.7083 60.7031 22.5227V23.0909H53.9759V21.9318H59.3395C59.3395 21.4394 59.241 21 59.044 20.6136C58.8509 20.2273 58.5743 19.9223 58.2145 19.6989C57.8584 19.4754 57.438 19.3636 56.9531 19.3636C56.419 19.3636 55.9569 19.4962 55.5668 19.7614C55.1804 20.0227 54.883 20.3636 54.6747 20.7841C54.4664 21.2045 54.3622 21.6553 54.3622 22.1364V22.9091C54.3622 23.5682 54.4759 24.1269 54.7031 24.5852C54.9342 25.0398 55.2543 25.3864 55.6634 25.625C56.0724 25.8598 56.5478 25.9773 57.0895 25.9773C57.4418 25.9773 57.7599 25.928 58.044 25.8295C58.3319 25.7273 58.58 25.5758 58.7884 25.375C58.9967 25.1705 59.1577 24.9167 59.2713 24.6136L60.5668 24.9773C60.4304 25.4167 60.2012 25.803 59.8793 26.1364C59.5573 26.4659 59.1596 26.7235 58.6861 26.9091C58.2126 27.0909 57.6804 27.1818 57.0895 27.1818ZM65.3111 27.2045C64.758 27.2045 64.2562 27.1004 63.8054 26.892C63.3546 26.6799 62.9967 26.375 62.7315 25.9773C62.4664 25.5758 62.3338 25.0909 62.3338 24.5227C62.3338 24.0227 62.4323 23.6174 62.6293 23.3068C62.8262 22.9924 63.0895 22.7462 63.419 22.5682C63.7486 22.3902 64.1122 22.2576 64.5099 22.1705C64.9115 22.0795 65.3149 22.0076 65.7202 21.9545C66.2505 21.8864 66.6804 21.8352 67.0099 21.8011C67.3433 21.7633 67.5857 21.7008 67.7372 21.6136C67.8925 21.5265 67.9702 21.375 67.9702 21.1591V21.1136C67.9702 20.553 67.8168 20.1174 67.5099 19.8068C67.2069 19.4962 66.7467 19.3409 66.1293 19.3409C65.4891 19.3409 64.9872 19.4811 64.6236 19.7614C64.2599 20.0417 64.0043 20.3409 63.8565 20.6591L62.5838 20.2045C62.8111 19.6742 63.1141 19.2614 63.4929 18.9659C63.8755 18.6667 64.2921 18.4583 64.7429 18.3409C65.1974 18.2197 65.6444 18.1591 66.0838 18.1591C66.3641 18.1591 66.6861 18.1932 67.0497 18.2614C67.4171 18.3258 67.7713 18.4602 68.1122 18.6648C68.4569 18.8693 68.7429 19.178 68.9702 19.5909C69.1974 20.0038 69.3111 20.5568 69.3111 21.25V27H67.9702V25.8182H67.902C67.8111 26.0076 67.6596 26.2102 67.4474 26.4261C67.2353 26.642 66.9531 26.8258 66.6009 26.9773C66.2486 27.1288 65.8187 27.2045 65.3111 27.2045ZM65.5156 26C66.0459 26 66.4929 25.8958 66.8565 25.6875C67.224 25.4792 67.5005 25.2102 67.6861 24.8807C67.8755 24.5511 67.9702 24.2045 67.9702 23.8409V22.6136C67.9134 22.6818 67.7884 22.7443 67.5952 22.8011C67.4058 22.8542 67.1861 22.9015 66.9361 22.9432C66.6899 22.9811 66.4493 23.0152 66.2145 23.0455C65.9834 23.072 65.7959 23.0947 65.652 23.1136C65.3035 23.1591 64.9777 23.233 64.6747 23.3352C64.3755 23.4337 64.133 23.5833 63.9474 23.7841C63.7656 23.9811 63.6747 24.25 63.6747 24.5909C63.6747 25.0568 63.8471 25.4091 64.1918 25.6477C64.5402 25.8826 64.9815 26 65.5156 26ZM71.7585 27V18.2727H73.054V19.5909H73.1449C73.304 19.1591 73.5919 18.8087 74.0085 18.5398C74.4252 18.2708 74.8949 18.1364 75.4176 18.1364C75.5161 18.1364 75.6392 18.1383 75.7869 18.142C75.9347 18.1458 76.0464 18.1515 76.1222 18.1591V19.5227C76.0767 19.5114 75.9725 19.4943 75.8097 19.4716C75.6506 19.4451 75.482 19.4318 75.304 19.4318C74.8797 19.4318 74.5009 19.5208 74.1676 19.6989C73.8381 19.8731 73.5767 20.1155 73.3835 20.4261C73.1941 20.733 73.0994 21.0833 73.0994 21.4773V27H71.7585ZM80.9915 27.1818C80.1733 27.1818 79.4688 26.9886 78.8778 26.6023C78.2869 26.2159 77.8324 25.6837 77.5142 25.0057C77.196 24.3277 77.0369 23.553 77.0369 22.6818C77.0369 21.7955 77.1998 21.0133 77.5256 20.3352C77.8551 19.6534 78.3134 19.1212 78.9006 18.7386C79.4915 18.3523 80.1809 18.1591 80.9688 18.1591C81.5824 18.1591 82.1354 18.2727 82.6278 18.5C83.1203 18.7273 83.5237 19.0455 83.8381 19.4545C84.1525 19.8636 84.3475 20.3409 84.4233 20.8864H83.0824C82.9801 20.4886 82.7528 20.1364 82.4006 19.8295C82.0521 19.5189 81.5824 19.3636 80.9915 19.3636C80.4688 19.3636 80.0104 19.5 79.6165 19.7727C79.2263 20.0417 78.9214 20.4223 78.7017 20.9148C78.4858 21.4034 78.3778 21.9773 78.3778 22.6364C78.3778 23.3106 78.4839 23.8977 78.696 24.3977C78.9119 24.8977 79.215 25.286 79.6051 25.5625C79.9991 25.839 80.4612 25.9773 80.9915 25.9773C81.34 25.9773 81.6562 25.9167 81.9403 25.7955C82.2244 25.6742 82.465 25.5 82.6619 25.2727C82.8589 25.0455 82.9991 24.7727 83.0824 24.4545H84.4233C84.3475 24.9697 84.16 25.4337 83.8608 25.8466C83.5653 26.2557 83.1733 26.5814 82.6847 26.8239C82.1998 27.0625 81.6354 27.1818 80.9915 27.1818ZM87.7244 21.75V27H86.3835V15.3636H87.7244V19.6364H87.8381C88.0426 19.1856 88.3494 18.8277 88.7585 18.5625C89.1714 18.2936 89.7206 18.1591 90.4062 18.1591C91.0009 18.1591 91.5218 18.2784 91.9688 18.517C92.4157 18.7519 92.7623 19.1136 93.0085 19.6023C93.2585 20.0871 93.3835 20.7045 93.3835 21.4545V27H92.0426V21.5455C92.0426 20.8523 91.8627 20.3163 91.5028 19.9375C91.1468 19.5549 90.6525 19.3636 90.0199 19.3636C89.5805 19.3636 89.1866 19.4564 88.8381 19.642C88.4934 19.8277 88.2206 20.0985 88.0199 20.4545C87.8229 20.8106 87.7244 21.2424 87.7244 21.75ZM102.905 27.2045C102.352 27.2045 101.85 27.1004 101.399 26.892C100.948 26.6799 100.59 26.375 100.325 25.9773C100.06 25.5758 99.9276 25.0909 99.9276 24.5227C99.9276 24.0227 100.026 23.6174 100.223 23.3068C100.42 22.9924 100.683 22.7462 101.013 22.5682C101.342 22.3902 101.706 22.2576 102.104 22.1705C102.505 22.0795 102.909 22.0076 103.314 21.9545C103.844 21.8864 104.274 21.8352 104.604 21.8011C104.937 21.7633 105.179 21.7008 105.331 21.6136C105.486 21.5265 105.564 21.375 105.564 21.1591V21.1136C105.564 20.553 105.411 20.1174 105.104 19.8068C104.801 19.4962 104.34 19.3409 103.723 19.3409C103.083 19.3409 102.581 19.4811 102.217 19.7614C101.854 20.0417 101.598 20.3409 101.45 20.6591L100.178 20.2045C100.405 19.6742 100.708 19.2614 101.087 18.9659C101.469 18.6667 101.886 18.4583 102.337 18.3409C102.791 18.2197 103.238 18.1591 103.678 18.1591C103.958 18.1591 104.28 18.1932 104.643 18.2614C105.011 18.3258 105.365 18.4602 105.706 18.6648C106.051 18.8693 106.337 19.178 106.564 19.5909C106.791 20.0038 106.905 20.5568 106.905 21.25V27H105.564V25.8182H105.496C105.405 26.0076 105.253 26.2102 105.041 26.4261C104.829 26.642 104.547 26.8258 104.195 26.9773C103.842 27.1288 103.412 27.2045 102.905 27.2045ZM103.109 26C103.64 26 104.087 25.8958 104.45 25.6875C104.818 25.4792 105.094 25.2102 105.28 24.8807C105.469 24.5511 105.564 24.2045 105.564 23.8409V22.6136C105.507 22.6818 105.382 22.7443 105.189 22.8011C105 22.8542 104.78 22.9015 104.53 22.9432C104.284 22.9811 104.043 23.0152 103.808 23.0455C103.577 23.072 103.39 23.0947 103.246 23.1136C102.897 23.1591 102.571 23.233 102.268 23.3352C101.969 23.4337 101.727 23.5833 101.541 23.7841C101.359 23.9811 101.268 24.25 101.268 24.5909C101.268 25.0568 101.441 25.4091 101.786 25.6477C102.134 25.8826 102.575 26 103.109 26ZM115.534 20.2273L114.33 20.5682C114.254 20.3674 114.142 20.1723 113.994 19.983C113.85 19.7898 113.653 19.6307 113.403 19.5057C113.153 19.3807 112.833 19.3182 112.443 19.3182C111.909 19.3182 111.464 19.4413 111.108 19.6875C110.756 19.9299 110.58 20.2386 110.58 20.6136C110.58 20.947 110.701 21.2102 110.943 21.4034C111.186 21.5966 111.564 21.7576 112.08 21.8864L113.375 22.2045C114.155 22.3939 114.737 22.6837 115.119 23.0739C115.502 23.4602 115.693 23.9583 115.693 24.5682C115.693 25.0682 115.549 25.5152 115.261 25.9091C114.977 26.303 114.58 26.6136 114.068 26.8409C113.557 27.0682 112.962 27.1818 112.284 27.1818C111.394 27.1818 110.657 26.9886 110.074 26.6023C109.491 26.2159 109.121 25.6515 108.966 24.9091L110.239 24.5909C110.36 25.0606 110.589 25.4129 110.926 25.6477C111.267 25.8826 111.712 26 112.261 26C112.886 26 113.383 25.8674 113.75 25.6023C114.121 25.3333 114.307 25.0114 114.307 24.6364C114.307 24.3333 114.201 24.0795 113.989 23.875C113.777 23.6667 113.451 23.5114 113.011 23.4091L111.557 23.0682C110.758 22.8788 110.17 22.5852 109.795 22.1875C109.424 21.786 109.239 21.2841 109.239 20.6818C109.239 20.1894 109.377 19.7538 109.653 19.375C109.934 18.9962 110.314 18.6989 110.795 18.483C111.28 18.267 111.83 18.1591 112.443 18.1591C113.307 18.1591 113.985 18.3485 114.477 18.7273C114.973 19.1061 115.326 19.6061 115.534 20.2273ZM123.893 20.2273L122.689 20.5682C122.613 20.3674 122.501 20.1723 122.354 19.983C122.21 19.7898 122.013 19.6307 121.763 19.5057C121.513 19.3807 121.193 19.3182 120.803 19.3182C120.268 19.3182 119.823 19.4413 119.467 19.6875C119.115 19.9299 118.939 20.2386 118.939 20.6136C118.939 20.947 119.06 21.2102 119.303 21.4034C119.545 21.5966 119.924 21.7576 120.439 21.8864L121.734 22.2045C122.515 22.3939 123.096 22.6837 123.479 23.0739C123.861 23.4602 124.053 23.9583 124.053 24.5682C124.053 25.0682 123.909 25.5152 123.621 25.9091C123.337 26.303 122.939 26.6136 122.428 26.8409C121.916 27.0682 121.321 27.1818 120.643 27.1818C119.753 27.1818 119.017 26.9886 118.433 26.6023C117.85 26.2159 117.481 25.6515 117.325 24.9091L118.598 24.5909C118.719 25.0606 118.948 25.4129 119.286 25.6477C119.626 25.8826 120.071 26 120.621 26C121.246 26 121.742 25.8674 122.109 25.6023C122.481 25.3333 122.666 25.0114 122.666 24.6364C122.666 24.3333 122.56 24.0795 122.348 23.875C122.136 23.6667 121.81 23.5114 121.371 23.4091L119.916 23.0682C119.117 22.8788 118.53 22.5852 118.155 22.1875C117.784 21.786 117.598 21.2841 117.598 20.6818C117.598 20.1894 117.736 19.7538 118.013 19.375C118.293 18.9962 118.674 18.6989 119.155 18.483C119.64 18.267 120.189 18.1591 120.803 18.1591C121.666 18.1591 122.344 18.3485 122.837 18.7273C123.333 19.1061 123.685 19.6061 123.893 20.2273ZM129.73 27.1818C128.889 27.1818 128.164 26.9962 127.554 26.625C126.948 26.25 126.48 25.7273 126.151 25.0568C125.825 24.3826 125.662 23.5985 125.662 22.7045C125.662 21.8106 125.825 21.0227 126.151 20.3409C126.48 19.6553 126.938 19.1212 127.526 18.7386C128.116 18.3523 128.806 18.1591 129.594 18.1591C130.048 18.1591 130.497 18.2348 130.94 18.3864C131.384 18.5379 131.787 18.7841 132.151 19.125C132.514 19.4621 132.804 19.9091 133.02 20.4659C133.236 21.0227 133.344 21.7083 133.344 22.5227V23.0909H126.616V21.9318H131.98C131.98 21.4394 131.882 21 131.685 20.6136C131.491 20.2273 131.215 19.9223 130.855 19.6989C130.499 19.4754 130.079 19.3636 129.594 19.3636C129.06 19.3636 128.598 19.4962 128.207 19.7614C127.821 20.0227 127.524 20.3636 127.315 20.7841C127.107 21.2045 127.003 21.6553 127.003 22.1364V22.9091C127.003 23.5682 127.116 24.1269 127.344 24.5852C127.575 25.0398 127.895 25.3864 128.304 25.625C128.713 25.8598 129.188 25.9773 129.73 25.9773C130.082 25.9773 130.401 25.928 130.685 25.8295C130.973 25.7273 131.221 25.5758 131.429 25.375C131.637 25.1705 131.798 24.9167 131.912 24.6136L133.207 24.9773C133.071 25.4167 132.842 25.803 132.52 26.1364C132.198 26.4659 131.8 26.7235 131.327 26.9091C130.853 27.0909 130.321 27.1818 129.73 27.1818ZM139.179 18.2727V19.4091H134.656V18.2727H139.179ZM135.974 16.1818H137.315V24.5C137.315 24.8788 137.37 25.1629 137.48 25.3523C137.594 25.5379 137.738 25.6629 137.912 25.7273C138.09 25.7879 138.277 25.8182 138.474 25.8182C138.622 25.8182 138.743 25.8106 138.838 25.7955C138.933 25.7765 139.009 25.7614 139.065 25.75L139.338 26.9545C139.247 26.9886 139.12 27.0227 138.957 27.0568C138.795 27.0947 138.588 27.1136 138.338 27.1136C137.959 27.1136 137.588 27.0322 137.224 26.8693C136.865 26.7064 136.565 26.4583 136.327 26.125C136.092 25.7917 135.974 25.3712 135.974 24.8636V16.1818ZM147.222 20.2273L146.017 20.5682C145.941 20.3674 145.83 20.1723 145.682 19.983C145.538 19.7898 145.341 19.6307 145.091 19.5057C144.841 19.3807 144.521 19.3182 144.131 19.3182C143.597 19.3182 143.152 19.4413 142.795 19.6875C142.443 19.9299 142.267 20.2386 142.267 20.6136C142.267 20.947 142.388 21.2102 142.631 21.4034C142.873 21.5966 143.252 21.7576 143.767 21.8864L145.062 22.2045C145.843 22.3939 146.424 22.6837 146.807 23.0739C147.189 23.4602 147.381 23.9583 147.381 24.5682C147.381 25.0682 147.237 25.5152 146.949 25.9091C146.665 26.303 146.267 26.6136 145.756 26.8409C145.244 27.0682 144.65 27.1818 143.972 27.1818C143.081 27.1818 142.345 26.9886 141.761 26.6023C141.178 26.2159 140.809 25.6515 140.653 24.9091L141.926 24.5909C142.047 25.0606 142.277 25.4129 142.614 25.6477C142.955 25.8826 143.4 26 143.949 26C144.574 26 145.07 25.8674 145.438 25.6023C145.809 25.3333 145.994 25.0114 145.994 24.6364C145.994 24.3333 145.888 24.0795 145.676 23.875C145.464 23.6667 145.138 23.5114 144.699 23.4091L143.244 23.0682C142.445 22.8788 141.858 22.5852 141.483 22.1875C141.112 21.786 140.926 21.2841 140.926 20.6818C140.926 20.1894 141.064 19.7538 141.341 19.375C141.621 18.9962 142.002 18.6989 142.483 18.483C142.968 18.267 143.517 18.1591 144.131 18.1591C144.994 18.1591 145.672 18.3485 146.165 18.7273C146.661 19.1061 147.013 19.6061 147.222 20.2273ZM150.376 27.0909C150.096 27.0909 149.856 26.9905 149.655 26.7898C149.454 26.589 149.354 26.3485 149.354 26.0682C149.354 25.7879 149.454 25.5473 149.655 25.3466C149.856 25.1458 150.096 25.0455 150.376 25.0455C150.657 25.0455 150.897 25.1458 151.098 25.3466C151.299 25.5473 151.399 25.7879 151.399 26.0682C151.399 26.2538 151.352 26.4242 151.257 26.5795C151.166 26.7348 151.043 26.8598 150.888 26.9545C150.736 27.0455 150.566 27.0909 150.376 27.0909ZM154.783 27.0909C154.502 27.0909 154.262 26.9905 154.061 26.7898C153.86 26.589 153.76 26.3485 153.76 26.0682C153.76 25.7879 153.86 25.5473 154.061 25.3466C154.262 25.1458 154.502 25.0455 154.783 25.0455C155.063 25.0455 155.304 25.1458 155.504 25.3466C155.705 25.5473 155.805 25.7879 155.805 26.0682C155.805 26.2538 155.758 26.4242 155.663 26.5795C155.572 26.7348 155.449 26.8598 155.294 26.9545C155.143 27.0455 154.972 27.0909 154.783 27.0909ZM159.189 27.0909C158.909 27.0909 158.668 26.9905 158.467 26.7898C158.267 26.589 158.166 26.3485 158.166 26.0682C158.166 25.7879 158.267 25.5473 158.467 25.3466C158.668 25.1458 158.909 25.0455 159.189 25.0455C159.469 25.0455 159.71 25.1458 159.911 25.3466C160.111 25.5473 160.212 25.7879 160.212 26.0682C160.212 26.2538 160.164 26.4242 160.07 26.5795C159.979 26.7348 159.856 26.8598 159.7 26.9545C159.549 27.0455 159.378 27.0909 159.189 27.0909Z" fill="#667085"/>
<rect x="2.5" y="1.5" width="391" height="39" rx="7.5" stroke="#EAECF0"/>
</g>
<defs>
<filter id="filter0_d_1199_81377" x="0" y="0" width="396" height="44" filterUnits="userSpaceOnUse" color-interpolation-filters="sRGB">
<feFlood flood-opacity="0" result="BackgroundImageFix"/>
<feColorMatrix in="SourceAlpha" type="matrix" values="0 0 0 0 0 0 0 0 0 0 0 0 0 0 0 0 0 0 127 0" result="hardAlpha"/>
<feOffset dy="1"/>
<feGaussianBlur stdDeviation="1"/>
<feColorMatrix type="matrix" values="0 0 0 0 0.0627451 0 0 0 0 0.0941176 0 0 0 0 0.156863 0 0 0 0.05 0"/>
<feBlend mode="normal" in2="BackgroundImageFix" result="effect1_dropShadow_1199_81377"/>
<feBlend mode="normal" in="SourceGraphic" in2="effect1_dropShadow_1199_81377" result="shape"/>
</filter>
</defs>
</svg>
