<svg width="96" height="28" viewBox="0 0 96 28" fill="none" xmlns="http://www.w3.org/2000/svg">
<mask id="mask0_1767_144409" style="mask-type:alpha" maskUnits="userSpaceOnUse" x="0" y="0" width="96" height="28">
<path d="M7.942 20.498C7.942 21.3847 8.208 22.0687 8.74 22.55C9.29733 23.0313 10.0193 23.272 10.906 23.272C11.6153 23.272 12.3247 23.1327 13.034 22.854V27.262C12.4007 27.4647 11.7293 27.6293 11.02 27.756C10.3107 27.908 9.60133 27.984 8.892 27.984C8.08133 27.984 7.30867 27.8827 6.574 27.68C5.83933 27.4773 5.18067 27.1353 4.598 26.654C4.01533 26.1473 3.54667 25.4887 3.192 24.678C2.86267 23.842 2.698 22.816 2.698 21.6V13.088H0V9.55399L2.698 8.41399V4.19599H7.942V8.41399H13.034V13.088H7.942V20.498Z" fill="#212B36"/>
<path d="M24.8069 7.88199C26.1495 7.88199 27.4162 8.14799 28.6069 8.67999C29.7975 9.18666 30.8362 9.89599 31.7229 10.808C32.6095 11.6947 33.3062 12.746 33.8129 13.962C34.3449 15.1527 34.6109 16.432 34.6109 17.8C34.6109 19.168 34.3449 20.46 33.8129 21.676C33.3062 22.8667 32.6095 23.918 31.7229 24.83C30.8362 25.7167 29.7975 26.426 28.6069 26.958C27.4162 27.4647 26.1495 27.718 24.8069 27.718C23.4389 27.718 22.1595 27.4647 20.9689 26.958C19.7782 26.426 18.7395 25.7167 17.8529 24.83C16.9662 23.918 16.2569 22.8667 15.7249 21.676C15.2182 20.46 14.9649 19.168 14.9649 17.8C14.9649 16.432 15.2182 15.1527 15.7249 13.962C16.2569 12.746 16.9662 11.6947 17.8529 10.808C18.7395 9.89599 19.7782 9.18666 20.9689 8.67999C22.1595 8.14799 23.4389 7.88199 24.8069 7.88199ZM24.8069 23.12C25.4402 23.12 26.0229 22.9933 26.5549 22.74C27.1122 22.4867 27.5935 22.1447 27.9989 21.714C28.4295 21.258 28.7589 20.726 28.9869 20.118C29.2402 19.4847 29.3669 18.788 29.3669 18.028C29.3669 17.268 29.2402 16.5587 28.9869 15.9C28.7589 15.2413 28.4295 14.6713 27.9989 14.19C27.5935 13.6833 27.1122 13.2907 26.5549 13.012C26.0229 12.708 25.4402 12.556 24.8069 12.556C24.1735 12.556 23.5782 12.708 23.0209 13.012C22.4635 13.2907 21.9695 13.6833 21.5389 14.19C21.1335 14.6713 20.8042 15.2413 20.5509 15.9C20.3229 16.5587 20.2089 17.268 20.2089 18.028C20.2089 18.788 20.3229 19.4847 20.5509 20.118C20.8042 20.726 21.1335 21.258 21.5389 21.714C21.9695 22.1447 22.4635 22.4867 23.0209 22.74C23.5782 22.9933 24.1735 23.12 24.8069 23.12Z" fill="#212B36"/>
<path d="M49.3252 17.382C50.7185 18.37 51.4152 19.776 51.4152 21.6C51.4152 22.436 51.2125 23.2213 50.8072 23.956C50.4272 24.6907 49.8952 25.3367 49.2112 25.894C48.5272 26.4513 47.7292 26.8947 46.8172 27.224C45.9052 27.528 44.9299 27.68 43.8912 27.68C43.1059 27.68 42.3332 27.5787 41.5732 27.376C40.8385 27.1733 40.1545 26.8947 39.5212 26.54C38.8879 26.1853 38.3305 25.7673 37.8492 25.286C37.3932 24.7793 37.0512 24.222 36.8232 23.614C37.4059 23.3353 38.0519 23.0313 38.7612 22.702C39.4705 22.3473 40.0912 22.0307 40.6232 21.752C40.8512 22.132 41.2059 22.4867 41.6872 22.816C42.1685 23.12 42.8272 23.272 43.6632 23.272C44.5245 23.272 45.1579 23.0693 45.5632 22.664C45.9685 22.2587 46.1712 21.8787 46.1712 21.524C46.1712 21.2707 46.0319 21.0427 45.7532 20.84C45.4745 20.612 45.1579 20.4347 44.8032 20.308C44.2965 20.1053 43.8785 20.004 43.5492 20.004C43.2199 19.9787 42.8399 19.9027 42.4092 19.776C41.0412 19.4467 39.9899 19.016 39.2552 18.484C38.5459 17.9267 38.0265 17.3693 37.6972 16.812C37.3679 16.2547 37.1779 15.7227 37.1272 15.216C37.1019 14.7093 37.0892 14.304 37.0892 14C37.0892 13.1893 37.2665 12.4167 37.6212 11.682C37.9759 10.9473 38.4572 10.314 39.0652 9.78199C39.6985 9.22466 40.4205 8.78132 41.2312 8.45199C42.0672 8.12266 42.9539 7.95799 43.8912 7.95799C44.6765 7.95799 45.4239 8.07199 46.1332 8.29999C46.8425 8.52799 47.4885 8.84466 48.0712 9.24999C48.6539 9.65532 49.1479 10.1367 49.5532 10.694C49.9839 11.2513 50.3005 11.872 50.5032 12.556L46.4372 13.924C46.2852 13.468 45.9685 13.1007 45.4872 12.822C45.0312 12.5433 44.5372 12.404 44.0052 12.404C43.4732 12.404 43.0425 12.5813 42.7132 12.936C42.3839 13.2907 42.2192 13.6453 42.2192 14C42.2192 14.4307 42.3712 14.7727 42.6752 15.026C43.0045 15.254 43.3592 15.4187 43.7392 15.52C44.0179 15.5707 44.2839 15.6213 44.5372 15.672C44.8159 15.6973 45.0819 15.7353 45.3352 15.786C46.2219 15.9887 46.9819 16.2167 47.6152 16.47C48.2739 16.7233 48.8439 17.0273 49.3252 17.382Z" fill="#212B36"/>
<path d="M59.9028 27.262H54.6588V8.41399H59.9028V27.262ZM57.2808 5.82999C56.4702 5.82999 55.7862 5.55132 55.2288 4.99399C54.6715 4.43666 54.3928 3.75266 54.3928 2.94199C54.3928 2.13132 54.6715 1.44732 55.2288 0.889991C55.7862 0.307325 56.4702 0.0159912 57.2808 0.0159912C58.0915 0.0159912 58.7755 0.307325 59.3328 0.889991C59.8902 1.44732 60.1688 2.13132 60.1688 2.94199C60.1688 3.75266 59.8902 4.43666 59.3328 4.99399C58.7755 5.55132 58.0915 5.82999 57.2808 5.82999Z" fill="#212B36"/>
<path d="M68.742 25.662C68.838 25.5767 68.9233 25.4807 68.998 25.374C69.0727 25.2673 69.11 25.1447 69.11 25.006C69.11 24.8353 69.046 24.6913 68.918 24.574C68.8007 24.4567 68.6513 24.3607 68.47 24.286C68.2993 24.2007 68.118 24.1367 67.926 24.094C67.734 24.0513 67.574 24.014 67.446 23.982C67.094 23.8967 66.7633 23.7953 66.454 23.678C66.1447 23.55 65.8727 23.4007 65.638 23.23C65.414 23.0487 65.2327 22.8407 65.094 22.606C64.966 22.3607 64.902 22.0727 64.902 21.742C64.902 21.4327 64.9767 21.1447 65.126 20.878C65.2753 20.6007 65.4727 20.3607 65.718 20.158C65.974 19.9447 66.2673 19.7793 66.598 19.662C66.9393 19.534 67.2967 19.47 67.67 19.47C68.0007 19.47 68.3153 19.518 68.614 19.614C68.9127 19.71 69.1793 19.8433 69.414 20.014C69.6593 20.174 69.862 20.3713 70.022 20.606C70.1927 20.8407 70.3047 21.102 70.358 21.39L68.966 21.726C68.902 21.47 68.7633 21.2567 68.55 21.086C68.3367 20.9153 68.0433 20.83 67.67 20.83C67.542 20.83 67.4087 20.8513 67.27 20.894C67.1313 20.926 67.0033 20.9793 66.886 21.054C66.7687 21.1287 66.6673 21.2193 66.582 21.326C66.5073 21.4327 66.47 21.5553 66.47 21.694C66.47 21.8433 66.5127 21.9713 66.598 22.078C66.694 22.1847 66.806 22.2753 66.934 22.35C67.062 22.414 67.2007 22.4673 67.35 22.51C67.4993 22.5527 67.638 22.59 67.766 22.622C68.3313 22.7607 68.8007 22.91 69.174 23.07C69.5473 23.23 69.846 23.406 70.07 23.598C70.294 23.79 70.4487 24.0033 70.534 24.238C70.63 24.462 70.678 24.718 70.678 25.006C70.678 25.3473 70.598 25.6673 70.438 25.966C70.2887 26.2647 70.0753 26.526 69.798 26.75C69.5313 26.9633 69.206 27.134 68.822 27.262C68.4487 27.3793 68.0433 27.438 67.606 27.438C66.9447 27.438 66.3527 27.278 65.83 26.958C65.318 26.6273 64.9713 26.19 64.79 25.646L66.102 25.054C66.2727 25.4273 66.4913 25.6833 66.758 25.822C67.0247 25.95 67.3287 26.014 67.67 26.014C68.0967 26.014 68.454 25.8967 68.742 25.662Z" fill="#01AFA5"/>
<path d="M68.742 25.662C68.838 25.5767 68.9233 25.4807 68.998 25.374C69.0727 25.2673 69.11 25.1447 69.11 25.006C69.11 24.8353 69.046 24.6913 68.918 24.574C68.8007 24.4567 68.6513 24.3607 68.47 24.286C68.2993 24.2007 68.118 24.1367 67.926 24.094C67.734 24.0513 67.574 24.014 67.446 23.982C67.094 23.8967 66.7633 23.7953 66.454 23.678C66.1447 23.55 65.8727 23.4007 65.638 23.23C65.414 23.0487 65.2327 22.8407 65.094 22.606C64.966 22.3607 64.902 22.0727 64.902 21.742C64.902 21.4327 64.9767 21.1447 65.126 20.878C65.2753 20.6007 65.4727 20.3607 65.718 20.158C65.974 19.9447 66.2673 19.7793 66.598 19.662C66.9393 19.534 67.2967 19.47 67.67 19.47C68.0007 19.47 68.3153 19.518 68.614 19.614C68.9127 19.71 69.1793 19.8433 69.414 20.014C69.6593 20.174 69.862 20.3713 70.022 20.606C70.1927 20.8407 70.3047 21.102 70.358 21.39L68.966 21.726C68.902 21.47 68.7633 21.2567 68.55 21.086C68.3367 20.9153 68.0433 20.83 67.67 20.83C67.542 20.83 67.4087 20.8513 67.27 20.894C67.1313 20.926 67.0033 20.9793 66.886 21.054C66.7687 21.1287 66.6673 21.2193 66.582 21.326C66.5073 21.4327 66.47 21.5553 66.47 21.694C66.47 21.8433 66.5127 21.9713 66.598 22.078C66.694 22.1847 66.806 22.2753 66.934 22.35C67.062 22.414 67.2007 22.4673 67.35 22.51C67.4993 22.5527 67.638 22.59 67.766 22.622C68.3313 22.7607 68.8007 22.91 69.174 23.07C69.5473 23.23 69.846 23.406 70.07 23.598C70.294 23.79 70.4487 24.0033 70.534 24.238C70.63 24.462 70.678 24.718 70.678 25.006C70.678 25.3473 70.598 25.6673 70.438 25.966C70.2887 26.2647 70.0753 26.526 69.798 26.75C69.5313 26.9633 69.206 27.134 68.822 27.262C68.4487 27.3793 68.0433 27.438 67.606 27.438C66.9447 27.438 66.3527 27.278 65.83 26.958C65.318 26.6273 64.9713 26.19 64.79 25.646L66.102 25.054C66.2727 25.4273 66.4913 25.6833 66.758 25.822C67.0247 25.95 67.3287 26.014 67.67 26.014C68.0967 26.014 68.454 25.8967 68.742 25.662Z" fill="url(#paint0_linear_1767_144409)"/>
<path d="M75.569 27.454C75.0357 27.454 74.5343 27.3527 74.065 27.15C73.6063 26.9367 73.201 26.6487 72.849 26.286C72.5077 25.9233 72.2357 25.4967 72.033 25.006C71.8303 24.5153 71.729 23.9927 71.729 23.438C71.729 22.8833 71.8303 22.3607 72.033 21.87C72.2357 21.3793 72.5077 20.9527 72.849 20.59C73.201 20.2273 73.6063 19.9447 74.065 19.742C74.5343 19.5287 75.0357 19.422 75.569 19.422C76.1877 19.422 76.7583 19.5607 77.281 19.838C77.8037 20.1153 78.241 20.494 78.593 20.974L77.505 21.822C77.2917 21.5127 77.0197 21.2727 76.689 21.102C76.369 20.9207 76.0223 20.83 75.649 20.83C75.329 20.83 75.025 20.8993 74.737 21.038C74.449 21.166 74.1983 21.3473 73.985 21.582C73.7717 21.8167 73.601 22.094 73.473 22.414C73.3557 22.734 73.297 23.0753 73.297 23.438C73.297 23.8007 73.3557 24.142 73.473 24.462C73.601 24.782 73.7717 25.0647 73.985 25.31C74.1983 25.5447 74.449 25.7313 74.737 25.87C75.025 26.0087 75.329 26.078 75.649 26.078C76.065 26.078 76.4437 25.966 76.785 25.742C77.1263 25.518 77.4037 25.2193 77.617 24.846L78.673 25.774C78.3317 26.286 77.889 26.6967 77.345 27.006C76.801 27.3047 76.209 27.454 75.569 27.454Z" fill="#01AFA5"/>
<path d="M75.569 27.454C75.0357 27.454 74.5343 27.3527 74.065 27.15C73.6063 26.9367 73.201 26.6487 72.849 26.286C72.5077 25.9233 72.2357 25.4967 72.033 25.006C71.8303 24.5153 71.729 23.9927 71.729 23.438C71.729 22.8833 71.8303 22.3607 72.033 21.87C72.2357 21.3793 72.5077 20.9527 72.849 20.59C73.201 20.2273 73.6063 19.9447 74.065 19.742C74.5343 19.5287 75.0357 19.422 75.569 19.422C76.1877 19.422 76.7583 19.5607 77.281 19.838C77.8037 20.1153 78.241 20.494 78.593 20.974L77.505 21.822C77.2917 21.5127 77.0197 21.2727 76.689 21.102C76.369 20.9207 76.0223 20.83 75.649 20.83C75.329 20.83 75.025 20.8993 74.737 21.038C74.449 21.166 74.1983 21.3473 73.985 21.582C73.7717 21.8167 73.601 22.094 73.473 22.414C73.3557 22.734 73.297 23.0753 73.297 23.438C73.297 23.8007 73.3557 24.142 73.473 24.462C73.601 24.782 73.7717 25.0647 73.985 25.31C74.1983 25.5447 74.449 25.7313 74.737 25.87C75.025 26.0087 75.329 26.078 75.649 26.078C76.065 26.078 76.4437 25.966 76.785 25.742C77.1263 25.518 77.4037 25.2193 77.617 24.846L78.673 25.774C78.3317 26.286 77.889 26.6967 77.345 27.006C76.801 27.3047 76.209 27.454 75.569 27.454Z" fill="url(#paint1_linear_1767_144409)"/>
<path d="M87.438 19.598V27.262H86.126L85.886 26.382C85.6193 26.734 85.278 27.0007 84.862 27.182C84.446 27.3633 84.0247 27.454 83.598 27.454C83.0647 27.454 82.5633 27.3527 82.094 27.15C81.6353 26.9367 81.23 26.6487 80.878 26.286C80.5367 25.9233 80.2647 25.4967 80.062 25.006C79.8593 24.5153 79.758 23.9927 79.758 23.438C79.758 22.8833 79.8593 22.3607 80.062 21.87C80.2647 21.3793 80.5367 20.9527 80.878 20.59C81.23 20.2273 81.6353 19.9447 82.094 19.742C82.5633 19.5287 83.0647 19.422 83.598 19.422C84.0247 19.422 84.4353 19.5073 84.83 19.678C85.2247 19.838 85.5767 20.094 85.886 20.446L86.126 19.598H87.438ZM83.598 26.078C83.9073 26.078 84.2007 26.0087 84.478 25.87C84.7553 25.7313 84.9953 25.5447 85.198 25.31C85.4007 25.0647 85.5607 24.782 85.678 24.462C85.7953 24.142 85.854 23.8007 85.854 23.438C85.854 23.0753 85.7953 22.734 85.678 22.414C85.5607 22.094 85.4007 21.8167 85.198 21.582C84.9953 21.3367 84.7553 21.1447 84.478 21.006C84.2007 20.8673 83.9073 20.798 83.598 20.798C83.2887 20.798 82.9953 20.8673 82.718 21.006C82.4407 21.1447 82.2007 21.3367 81.998 21.582C81.7953 21.8167 81.6353 22.094 81.518 22.414C81.4007 22.734 81.342 23.0753 81.342 23.438C81.342 23.8007 81.4007 24.142 81.518 24.462C81.6353 24.782 81.7953 25.0647 81.998 25.31C82.2007 25.5447 82.4407 25.7313 82.718 25.87C82.9953 26.0087 83.2887 26.078 83.598 26.078Z" fill="#01AFA5"/>
<path d="M87.438 19.598V27.262H86.126L85.886 26.382C85.6193 26.734 85.278 27.0007 84.862 27.182C84.446 27.3633 84.0247 27.454 83.598 27.454C83.0647 27.454 82.5633 27.3527 82.094 27.15C81.6353 26.9367 81.23 26.6487 80.878 26.286C80.5367 25.9233 80.2647 25.4967 80.062 25.006C79.8593 24.5153 79.758 23.9927 79.758 23.438C79.758 22.8833 79.8593 22.3607 80.062 21.87C80.2647 21.3793 80.5367 20.9527 80.878 20.59C81.23 20.2273 81.6353 19.9447 82.094 19.742C82.5633 19.5287 83.0647 19.422 83.598 19.422C84.0247 19.422 84.4353 19.5073 84.83 19.678C85.2247 19.838 85.5767 20.094 85.886 20.446L86.126 19.598H87.438ZM83.598 26.078C83.9073 26.078 84.2007 26.0087 84.478 25.87C84.7553 25.7313 84.9953 25.5447 85.198 25.31C85.4007 25.0647 85.5607 24.782 85.678 24.462C85.7953 24.142 85.854 23.8007 85.854 23.438C85.854 23.0753 85.7953 22.734 85.678 22.414C85.5607 22.094 85.4007 21.8167 85.198 21.582C84.9953 21.3367 84.7553 21.1447 84.478 21.006C84.2007 20.8673 83.9073 20.798 83.598 20.798C83.2887 20.798 82.9953 20.8673 82.718 21.006C82.4407 21.1447 82.2007 21.3367 81.998 21.582C81.7953 21.8167 81.6353 22.094 81.518 22.414C81.4007 22.734 81.342 23.0753 81.342 23.438C81.342 23.8007 81.4007 24.142 81.518 24.462C81.6353 24.782 81.7953 25.0647 81.998 25.31C82.2007 25.5447 82.4407 25.7313 82.718 25.87C82.9953 26.0087 83.2887 26.078 83.598 26.078Z" fill="url(#paint2_linear_1767_144409)"/>
<path d="M90.5378 27.262H88.9857V19.598H90.2178L90.5378 20.27C90.7937 20.0247 91.1031 19.822 91.4658 19.662C91.8284 19.502 92.2231 19.422 92.6497 19.422C92.9271 19.422 93.2418 19.4647 93.5938 19.55C93.9457 19.6353 94.2711 19.7953 94.5697 20.03C94.8791 20.2647 95.1351 20.59 95.3378 21.006C95.5511 21.422 95.6578 21.9607 95.6578 22.622V27.262H94.1858V22.606C94.1858 22.2753 94.1324 21.998 94.0257 21.774C93.9297 21.5393 93.7964 21.3527 93.6257 21.214C93.4657 21.0753 93.2791 20.9793 93.0658 20.926C92.8631 20.862 92.6497 20.83 92.4258 20.83C92.2551 20.83 92.0577 20.862 91.8337 20.926C91.6204 20.99 91.4178 21.0967 91.2258 21.246C91.0338 21.3847 90.8684 21.566 90.7298 21.79C90.6018 22.0033 90.5378 22.27 90.5378 22.59V27.262Z" fill="#01AFA5"/>
<path d="M90.5378 27.262H88.9857V19.598H90.2178L90.5378 20.27C90.7937 20.0247 91.1031 19.822 91.4658 19.662C91.8284 19.502 92.2231 19.422 92.6497 19.422C92.9271 19.422 93.2418 19.4647 93.5938 19.55C93.9457 19.6353 94.2711 19.7953 94.5697 20.03C94.8791 20.2647 95.1351 20.59 95.3378 21.006C95.5511 21.422 95.6578 21.9607 95.6578 22.622V27.262H94.1858V22.606C94.1858 22.2753 94.1324 21.998 94.0257 21.774C93.9297 21.5393 93.7964 21.3527 93.6257 21.214C93.4657 21.0753 93.2791 20.9793 93.0658 20.926C92.8631 20.862 92.6497 20.83 92.4258 20.83C92.2551 20.83 92.0577 20.862 91.8337 20.926C91.6204 20.99 91.4178 21.0967 91.2258 21.246C91.0338 21.3847 90.8684 21.566 90.7298 21.79C90.6018 22.0033 90.5378 22.27 90.5378 22.59V27.262Z" fill="url(#paint3_linear_1767_144409)"/>
</mask>
<g mask="url(#mask0_1767_144409)">
<path d="M7.942 20.498C7.942 21.3847 8.208 22.0687 8.74 22.55C9.29733 23.0313 10.0193 23.272 10.906 23.272C11.6153 23.272 12.3247 23.1327 13.034 22.854V27.262C12.4007 27.4647 11.7293 27.6293 11.02 27.756C10.3107 27.908 9.60133 27.984 8.892 27.984C8.08133 27.984 7.30867 27.8827 6.574 27.68C5.83933 27.4773 5.18067 27.1353 4.598 26.654C4.01533 26.1473 3.54667 25.4887 3.192 24.678C2.86267 23.842 2.698 22.816 2.698 21.6V13.088H0V9.55399L2.698 8.41399V4.19599H7.942V8.41399H13.034V13.088H7.942V20.498Z" fill="#212B36"/>
<path d="M24.8069 7.88199C26.1495 7.88199 27.4162 8.14799 28.6069 8.67999C29.7975 9.18666 30.8362 9.89599 31.7229 10.808C32.6095 11.6947 33.3062 12.746 33.8129 13.962C34.3449 15.1527 34.6109 16.432 34.6109 17.8C34.6109 19.168 34.3449 20.46 33.8129 21.676C33.3062 22.8667 32.6095 23.918 31.7229 24.83C30.8362 25.7167 29.7975 26.426 28.6069 26.958C27.4162 27.4647 26.1495 27.718 24.8069 27.718C23.4389 27.718 22.1595 27.4647 20.9689 26.958C19.7782 26.426 18.7395 25.7167 17.8529 24.83C16.9662 23.918 16.2569 22.8667 15.7249 21.676C15.2182 20.46 14.9649 19.168 14.9649 17.8C14.9649 16.432 15.2182 15.1527 15.7249 13.962C16.2569 12.746 16.9662 11.6947 17.8529 10.808C18.7395 9.89599 19.7782 9.18666 20.9689 8.67999C22.1595 8.14799 23.4389 7.88199 24.8069 7.88199ZM24.8069 23.12C25.4402 23.12 26.0229 22.9933 26.5549 22.74C27.1122 22.4867 27.5935 22.1447 27.9989 21.714C28.4295 21.258 28.7589 20.726 28.9869 20.118C29.2402 19.4847 29.3669 18.788 29.3669 18.028C29.3669 17.268 29.2402 16.5587 28.9869 15.9C28.7589 15.2413 28.4295 14.6713 27.9989 14.19C27.5935 13.6833 27.1122 13.2907 26.5549 13.012C26.0229 12.708 25.4402 12.556 24.8069 12.556C24.1735 12.556 23.5782 12.708 23.0209 13.012C22.4635 13.2907 21.9695 13.6833 21.5389 14.19C21.1335 14.6713 20.8042 15.2413 20.5509 15.9C20.3229 16.5587 20.2089 17.268 20.2089 18.028C20.2089 18.788 20.3229 19.4847 20.5509 20.118C20.8042 20.726 21.1335 21.258 21.5389 21.714C21.9695 22.1447 22.4635 22.4867 23.0209 22.74C23.5782 22.9933 24.1735 23.12 24.8069 23.12Z" fill="#212B36"/>
<path d="M49.3252 17.382C50.7185 18.37 51.4152 19.776 51.4152 21.6C51.4152 22.436 51.2125 23.2213 50.8072 23.956C50.4272 24.6907 49.8952 25.3367 49.2112 25.894C48.5272 26.4513 47.7292 26.8947 46.8172 27.224C45.9052 27.528 44.9299 27.68 43.8912 27.68C43.1059 27.68 42.3332 27.5787 41.5732 27.376C40.8385 27.1733 40.1545 26.8947 39.5212 26.54C38.8879 26.1853 38.3305 25.7673 37.8492 25.286C37.3932 24.7793 37.0512 24.222 36.8232 23.614C37.4059 23.3353 38.0519 23.0313 38.7612 22.702C39.4705 22.3473 40.0912 22.0307 40.6232 21.752C40.8512 22.132 41.2059 22.4867 41.6872 22.816C42.1685 23.12 42.8272 23.272 43.6632 23.272C44.5245 23.272 45.1579 23.0693 45.5632 22.664C45.9685 22.2587 46.1712 21.8787 46.1712 21.524C46.1712 21.2707 46.0319 21.0427 45.7532 20.84C45.4745 20.612 45.1579 20.4347 44.8032 20.308C44.2965 20.1053 43.8785 20.004 43.5492 20.004C43.2199 19.9787 42.8399 19.9027 42.4092 19.776C41.0412 19.4467 39.9899 19.016 39.2552 18.484C38.5459 17.9267 38.0265 17.3693 37.6972 16.812C37.3679 16.2547 37.1779 15.7227 37.1272 15.216C37.1019 14.7093 37.0892 14.304 37.0892 14C37.0892 13.1893 37.2665 12.4167 37.6212 11.682C37.9759 10.9473 38.4572 10.314 39.0652 9.78199C39.6985 9.22466 40.4205 8.78132 41.2312 8.45199C42.0672 8.12266 42.9539 7.95799 43.8912 7.95799C44.6765 7.95799 45.4239 8.07199 46.1332 8.29999C46.8425 8.52799 47.4885 8.84466 48.0712 9.24999C48.6539 9.65532 49.1479 10.1367 49.5532 10.694C49.9839 11.2513 50.3005 11.872 50.5032 12.556L46.4372 13.924C46.2852 13.468 45.9685 13.1007 45.4872 12.822C45.0312 12.5433 44.5372 12.404 44.0052 12.404C43.4732 12.404 43.0425 12.5813 42.7132 12.936C42.3839 13.2907 42.2192 13.6453 42.2192 14C42.2192 14.4307 42.3712 14.7727 42.6752 15.026C43.0045 15.254 43.3592 15.4187 43.7392 15.52C44.0179 15.5707 44.2839 15.6213 44.5372 15.672C44.8159 15.6973 45.0819 15.7353 45.3352 15.786C46.2219 15.9887 46.9819 16.2167 47.6152 16.47C48.2739 16.7233 48.8439 17.0273 49.3252 17.382Z" fill="#212B36"/>
<path d="M59.9028 27.262H54.6588V8.41399H59.9028V27.262ZM57.2808 5.82999C56.4702 5.82999 55.7862 5.55132 55.2288 4.99399C54.6715 4.43666 54.3928 3.75266 54.3928 2.94199C54.3928 2.13132 54.6715 1.44732 55.2288 0.889991C55.7862 0.307325 56.4702 0.0159912 57.2808 0.0159912C58.0915 0.0159912 58.7755 0.307325 59.3328 0.889991C59.8902 1.44732 60.1688 2.13132 60.1688 2.94199C60.1688 3.75266 59.8902 4.43666 59.3328 4.99399C58.7755 5.55132 58.0915 5.82999 57.2808 5.82999Z" fill="#212B36"/>
<path d="M68.742 25.662C68.838 25.5767 68.9233 25.4807 68.998 25.374C69.0727 25.2673 69.11 25.1447 69.11 25.006C69.11 24.8353 69.046 24.6913 68.918 24.574C68.8007 24.4567 68.6513 24.3607 68.47 24.286C68.2993 24.2007 68.118 24.1367 67.926 24.094C67.734 24.0513 67.574 24.014 67.446 23.982C67.094 23.8967 66.7633 23.7953 66.454 23.678C66.1447 23.55 65.8727 23.4007 65.638 23.23C65.414 23.0487 65.2327 22.8407 65.094 22.606C64.966 22.3607 64.902 22.0727 64.902 21.742C64.902 21.4327 64.9767 21.1447 65.126 20.878C65.2753 20.6007 65.4727 20.3607 65.718 20.158C65.974 19.9447 66.2673 19.7793 66.598 19.662C66.9393 19.534 67.2967 19.47 67.67 19.47C68.0007 19.47 68.3153 19.518 68.614 19.614C68.9127 19.71 69.1793 19.8433 69.414 20.014C69.6593 20.174 69.862 20.3713 70.022 20.606C70.1927 20.8407 70.3047 21.102 70.358 21.39L68.966 21.726C68.902 21.47 68.7633 21.2567 68.55 21.086C68.3367 20.9153 68.0433 20.83 67.67 20.83C67.542 20.83 67.4087 20.8513 67.27 20.894C67.1313 20.926 67.0033 20.9793 66.886 21.054C66.7687 21.1287 66.6673 21.2193 66.582 21.326C66.5073 21.4327 66.47 21.5553 66.47 21.694C66.47 21.8433 66.5127 21.9713 66.598 22.078C66.694 22.1847 66.806 22.2753 66.934 22.35C67.062 22.414 67.2007 22.4673 67.35 22.51C67.4993 22.5527 67.638 22.59 67.766 22.622C68.3313 22.7607 68.8007 22.91 69.174 23.07C69.5473 23.23 69.846 23.406 70.07 23.598C70.294 23.79 70.4487 24.0033 70.534 24.238C70.63 24.462 70.678 24.718 70.678 25.006C70.678 25.3473 70.598 25.6673 70.438 25.966C70.2887 26.2647 70.0753 26.526 69.798 26.75C69.5313 26.9633 69.206 27.134 68.822 27.262C68.4487 27.3793 68.0433 27.438 67.606 27.438C66.9447 27.438 66.3527 27.278 65.83 26.958C65.318 26.6273 64.9713 26.19 64.79 25.646L66.102 25.054C66.2727 25.4273 66.4913 25.6833 66.758 25.822C67.0247 25.95 67.3287 26.014 67.67 26.014C68.0967 26.014 68.454 25.8967 68.742 25.662Z" fill="#01AFA5"/>
<path d="M68.742 25.662C68.838 25.5767 68.9233 25.4807 68.998 25.374C69.0727 25.2673 69.11 25.1447 69.11 25.006C69.11 24.8353 69.046 24.6913 68.918 24.574C68.8007 24.4567 68.6513 24.3607 68.47 24.286C68.2993 24.2007 68.118 24.1367 67.926 24.094C67.734 24.0513 67.574 24.014 67.446 23.982C67.094 23.8967 66.7633 23.7953 66.454 23.678C66.1447 23.55 65.8727 23.4007 65.638 23.23C65.414 23.0487 65.2327 22.8407 65.094 22.606C64.966 22.3607 64.902 22.0727 64.902 21.742C64.902 21.4327 64.9767 21.1447 65.126 20.878C65.2753 20.6007 65.4727 20.3607 65.718 20.158C65.974 19.9447 66.2673 19.7793 66.598 19.662C66.9393 19.534 67.2967 19.47 67.67 19.47C68.0007 19.47 68.3153 19.518 68.614 19.614C68.9127 19.71 69.1793 19.8433 69.414 20.014C69.6593 20.174 69.862 20.3713 70.022 20.606C70.1927 20.8407 70.3047 21.102 70.358 21.39L68.966 21.726C68.902 21.47 68.7633 21.2567 68.55 21.086C68.3367 20.9153 68.0433 20.83 67.67 20.83C67.542 20.83 67.4087 20.8513 67.27 20.894C67.1313 20.926 67.0033 20.9793 66.886 21.054C66.7687 21.1287 66.6673 21.2193 66.582 21.326C66.5073 21.4327 66.47 21.5553 66.47 21.694C66.47 21.8433 66.5127 21.9713 66.598 22.078C66.694 22.1847 66.806 22.2753 66.934 22.35C67.062 22.414 67.2007 22.4673 67.35 22.51C67.4993 22.5527 67.638 22.59 67.766 22.622C68.3313 22.7607 68.8007 22.91 69.174 23.07C69.5473 23.23 69.846 23.406 70.07 23.598C70.294 23.79 70.4487 24.0033 70.534 24.238C70.63 24.462 70.678 24.718 70.678 25.006C70.678 25.3473 70.598 25.6673 70.438 25.966C70.2887 26.2647 70.0753 26.526 69.798 26.75C69.5313 26.9633 69.206 27.134 68.822 27.262C68.4487 27.3793 68.0433 27.438 67.606 27.438C66.9447 27.438 66.3527 27.278 65.83 26.958C65.318 26.6273 64.9713 26.19 64.79 25.646L66.102 25.054C66.2727 25.4273 66.4913 25.6833 66.758 25.822C67.0247 25.95 67.3287 26.014 67.67 26.014C68.0967 26.014 68.454 25.8967 68.742 25.662Z" fill="url(#paint4_linear_1767_144409)"/>
<path d="M75.569 27.454C75.0357 27.454 74.5343 27.3527 74.065 27.15C73.6063 26.9367 73.201 26.6487 72.849 26.286C72.5077 25.9233 72.2357 25.4967 72.033 25.006C71.8303 24.5153 71.729 23.9927 71.729 23.438C71.729 22.8833 71.8303 22.3607 72.033 21.87C72.2357 21.3793 72.5077 20.9527 72.849 20.59C73.201 20.2273 73.6063 19.9447 74.065 19.742C74.5343 19.5287 75.0357 19.422 75.569 19.422C76.1877 19.422 76.7583 19.5607 77.281 19.838C77.8037 20.1153 78.241 20.494 78.593 20.974L77.505 21.822C77.2917 21.5127 77.0197 21.2727 76.689 21.102C76.369 20.9207 76.0223 20.83 75.649 20.83C75.329 20.83 75.025 20.8993 74.737 21.038C74.449 21.166 74.1983 21.3473 73.985 21.582C73.7717 21.8167 73.601 22.094 73.473 22.414C73.3557 22.734 73.297 23.0753 73.297 23.438C73.297 23.8007 73.3557 24.142 73.473 24.462C73.601 24.782 73.7717 25.0647 73.985 25.31C74.1983 25.5447 74.449 25.7313 74.737 25.87C75.025 26.0087 75.329 26.078 75.649 26.078C76.065 26.078 76.4437 25.966 76.785 25.742C77.1263 25.518 77.4037 25.2193 77.617 24.846L78.673 25.774C78.3317 26.286 77.889 26.6967 77.345 27.006C76.801 27.3047 76.209 27.454 75.569 27.454Z" fill="#01AFA5"/>
<path d="M75.569 27.454C75.0357 27.454 74.5343 27.3527 74.065 27.15C73.6063 26.9367 73.201 26.6487 72.849 26.286C72.5077 25.9233 72.2357 25.4967 72.033 25.006C71.8303 24.5153 71.729 23.9927 71.729 23.438C71.729 22.8833 71.8303 22.3607 72.033 21.87C72.2357 21.3793 72.5077 20.9527 72.849 20.59C73.201 20.2273 73.6063 19.9447 74.065 19.742C74.5343 19.5287 75.0357 19.422 75.569 19.422C76.1877 19.422 76.7583 19.5607 77.281 19.838C77.8037 20.1153 78.241 20.494 78.593 20.974L77.505 21.822C77.2917 21.5127 77.0197 21.2727 76.689 21.102C76.369 20.9207 76.0223 20.83 75.649 20.83C75.329 20.83 75.025 20.8993 74.737 21.038C74.449 21.166 74.1983 21.3473 73.985 21.582C73.7717 21.8167 73.601 22.094 73.473 22.414C73.3557 22.734 73.297 23.0753 73.297 23.438C73.297 23.8007 73.3557 24.142 73.473 24.462C73.601 24.782 73.7717 25.0647 73.985 25.31C74.1983 25.5447 74.449 25.7313 74.737 25.87C75.025 26.0087 75.329 26.078 75.649 26.078C76.065 26.078 76.4437 25.966 76.785 25.742C77.1263 25.518 77.4037 25.2193 77.617 24.846L78.673 25.774C78.3317 26.286 77.889 26.6967 77.345 27.006C76.801 27.3047 76.209 27.454 75.569 27.454Z" fill="url(#paint5_linear_1767_144409)"/>
<path d="M87.438 19.598V27.262H86.126L85.886 26.382C85.6193 26.734 85.278 27.0007 84.862 27.182C84.446 27.3633 84.0247 27.454 83.598 27.454C83.0647 27.454 82.5633 27.3527 82.094 27.15C81.6353 26.9367 81.23 26.6487 80.878 26.286C80.5367 25.9233 80.2647 25.4967 80.062 25.006C79.8593 24.5153 79.758 23.9927 79.758 23.438C79.758 22.8833 79.8593 22.3607 80.062 21.87C80.2647 21.3793 80.5367 20.9527 80.878 20.59C81.23 20.2273 81.6353 19.9447 82.094 19.742C82.5633 19.5287 83.0647 19.422 83.598 19.422C84.0247 19.422 84.4353 19.5073 84.83 19.678C85.2247 19.838 85.5767 20.094 85.886 20.446L86.126 19.598H87.438ZM83.598 26.078C83.9073 26.078 84.2007 26.0087 84.478 25.87C84.7553 25.7313 84.9953 25.5447 85.198 25.31C85.4007 25.0647 85.5607 24.782 85.678 24.462C85.7953 24.142 85.854 23.8007 85.854 23.438C85.854 23.0753 85.7953 22.734 85.678 22.414C85.5607 22.094 85.4007 21.8167 85.198 21.582C84.9953 21.3367 84.7553 21.1447 84.478 21.006C84.2007 20.8673 83.9073 20.798 83.598 20.798C83.2887 20.798 82.9953 20.8673 82.718 21.006C82.4407 21.1447 82.2007 21.3367 81.998 21.582C81.7953 21.8167 81.6353 22.094 81.518 22.414C81.4007 22.734 81.342 23.0753 81.342 23.438C81.342 23.8007 81.4007 24.142 81.518 24.462C81.6353 24.782 81.7953 25.0647 81.998 25.31C82.2007 25.5447 82.4407 25.7313 82.718 25.87C82.9953 26.0087 83.2887 26.078 83.598 26.078Z" fill="#01AFA5"/>
<path d="M87.438 19.598V27.262H86.126L85.886 26.382C85.6193 26.734 85.278 27.0007 84.862 27.182C84.446 27.3633 84.0247 27.454 83.598 27.454C83.0647 27.454 82.5633 27.3527 82.094 27.15C81.6353 26.9367 81.23 26.6487 80.878 26.286C80.5367 25.9233 80.2647 25.4967 80.062 25.006C79.8593 24.5153 79.758 23.9927 79.758 23.438C79.758 22.8833 79.8593 22.3607 80.062 21.87C80.2647 21.3793 80.5367 20.9527 80.878 20.59C81.23 20.2273 81.6353 19.9447 82.094 19.742C82.5633 19.5287 83.0647 19.422 83.598 19.422C84.0247 19.422 84.4353 19.5073 84.83 19.678C85.2247 19.838 85.5767 20.094 85.886 20.446L86.126 19.598H87.438ZM83.598 26.078C83.9073 26.078 84.2007 26.0087 84.478 25.87C84.7553 25.7313 84.9953 25.5447 85.198 25.31C85.4007 25.0647 85.5607 24.782 85.678 24.462C85.7953 24.142 85.854 23.8007 85.854 23.438C85.854 23.0753 85.7953 22.734 85.678 22.414C85.5607 22.094 85.4007 21.8167 85.198 21.582C84.9953 21.3367 84.7553 21.1447 84.478 21.006C84.2007 20.8673 83.9073 20.798 83.598 20.798C83.2887 20.798 82.9953 20.8673 82.718 21.006C82.4407 21.1447 82.2007 21.3367 81.998 21.582C81.7953 21.8167 81.6353 22.094 81.518 22.414C81.4007 22.734 81.342 23.0753 81.342 23.438C81.342 23.8007 81.4007 24.142 81.518 24.462C81.6353 24.782 81.7953 25.0647 81.998 25.31C82.2007 25.5447 82.4407 25.7313 82.718 25.87C82.9953 26.0087 83.2887 26.078 83.598 26.078Z" fill="url(#paint6_linear_1767_144409)"/>
<path d="M90.5378 27.262H88.9857V19.598H90.2178L90.5378 20.27C90.7937 20.0247 91.1031 19.822 91.4658 19.662C91.8284 19.502 92.2231 19.422 92.6497 19.422C92.9271 19.422 93.2418 19.4647 93.5938 19.55C93.9457 19.6353 94.2711 19.7953 94.5697 20.03C94.8791 20.2647 95.1351 20.59 95.3378 21.006C95.5511 21.422 95.6578 21.9607 95.6578 22.622V27.262H94.1858V22.606C94.1858 22.2753 94.1324 21.998 94.0257 21.774C93.9297 21.5393 93.7964 21.3527 93.6257 21.214C93.4657 21.0753 93.2791 20.9793 93.0658 20.926C92.8631 20.862 92.6497 20.83 92.4258 20.83C92.2551 20.83 92.0577 20.862 91.8337 20.926C91.6204 20.99 91.4178 21.0967 91.2258 21.246C91.0338 21.3847 90.8684 21.566 90.7298 21.79C90.6018 22.0033 90.5378 22.27 90.5378 22.59V27.262Z" fill="#01AFA5"/>
<path d="M90.5378 27.262H88.9857V19.598H90.2178L90.5378 20.27C90.7937 20.0247 91.1031 19.822 91.4658 19.662C91.8284 19.502 92.2231 19.422 92.6497 19.422C92.9271 19.422 93.2418 19.4647 93.5938 19.55C93.9457 19.6353 94.2711 19.7953 94.5697 20.03C94.8791 20.2647 95.1351 20.59 95.3378 21.006C95.5511 21.422 95.6578 21.9607 95.6578 22.622V27.262H94.1858V22.606C94.1858 22.2753 94.1324 21.998 94.0257 21.774C93.9297 21.5393 93.7964 21.3527 93.6257 21.214C93.4657 21.0753 93.2791 20.9793 93.0658 20.926C92.8631 20.862 92.6497 20.83 92.4258 20.83C92.2551 20.83 92.0577 20.862 91.8337 20.926C91.6204 20.99 91.4178 21.0967 91.2258 21.246C91.0338 21.3847 90.8684 21.566 90.7298 21.79C90.6018 22.0033 90.5378 22.27 90.5378 22.59V27.262Z" fill="url(#paint7_linear_1767_144409)"/>
<circle cx="57.2773" cy="3.26196" r="4" fill="#22B477"/>
</g>
<defs>
<linearGradient id="paint0_linear_1767_144409" x1="64.2778" y1="29.262" x2="99.0197" y2="22.9141" gradientUnits="userSpaceOnUse">
<stop stop-color="#07939C"/>
<stop offset="1" stop-color="#24B871"/>
</linearGradient>
<linearGradient id="paint1_linear_1767_144409" x1="64.2778" y1="29.262" x2="99.0197" y2="22.9141" gradientUnits="userSpaceOnUse">
<stop stop-color="#07939C"/>
<stop offset="1" stop-color="#24B871"/>
</linearGradient>
<linearGradient id="paint2_linear_1767_144409" x1="64.2778" y1="29.262" x2="99.0197" y2="22.9141" gradientUnits="userSpaceOnUse">
<stop stop-color="#07939C"/>
<stop offset="1" stop-color="#24B871"/>
</linearGradient>
<linearGradient id="paint3_linear_1767_144409" x1="64.2778" y1="29.262" x2="99.0197" y2="22.9141" gradientUnits="userSpaceOnUse">
<stop stop-color="#07939C"/>
<stop offset="1" stop-color="#24B871"/>
</linearGradient>
<linearGradient id="paint4_linear_1767_144409" x1="64.2778" y1="29.262" x2="99.0197" y2="22.9141" gradientUnits="userSpaceOnUse">
<stop stop-color="#07939C"/>
<stop offset="1" stop-color="#24B871"/>
</linearGradient>
<linearGradient id="paint5_linear_1767_144409" x1="64.2778" y1="29.262" x2="99.0197" y2="22.9141" gradientUnits="userSpaceOnUse">
<stop stop-color="#07939C"/>
<stop offset="1" stop-color="#24B871"/>
</linearGradient>
<linearGradient id="paint6_linear_1767_144409" x1="64.2778" y1="29.262" x2="99.0197" y2="22.9141" gradientUnits="userSpaceOnUse">
<stop stop-color="#07939C"/>
<stop offset="1" stop-color="#24B871"/>
</linearGradient>
<linearGradient id="paint7_linear_1767_144409" x1="64.2778" y1="29.262" x2="99.0197" y2="22.9141" gradientUnits="userSpaceOnUse">
<stop stop-color="#07939C"/>
<stop offset="1" stop-color="#24B871"/>
</linearGradient>
</defs>
</svg>
